<svg xmlns="http://www.w3.org/2000/svg" viewBox="0 0 248.12 203.49"><defs><style>.cls-3{fill:#20221d}</style><clipPath id="clip-path" transform="translate(-26.31 -45.52)"><path fill="none" d="M0 0h300v300H0z"/></clipPath></defs><g id="Layer_2" data-name="Layer 2"><g clip-path="url(#clip-path)" id="Remove_Black" data-name="Remove Black"><path class="cls-3" d="M139.06 204.75L155.42 167l-27.73-29.77L140.92 107l-33.45-7.88-2.42-18.22-72.37 29.25a10.18 10.18 0 0 0-5.62 13.25l48.19 119.24a10.19 10.19 0 0 0 13.26 5.63l71.35-29.11.14-6.62z" transform="translate(-26.31 -45.52)"/><path class="cls-3" d="M267 189.44a10.18 10.18 0 0 0 7.09-12.53L239.67 53a10.18 10.18 0 0 0-12.53-7.09l-66 18.32-11.82 20.6L164.58 109l-17.81 25.7 22.9 32.57-22.9 34.1 13.09 17.81z" transform="translate(-26.31 -45.52)"/></g></g></svg>