<svg xmlns="http://www.w3.org/2000/svg" viewBox="0 0 234.76 162.68"><defs><style>.cls-3{fill:#20221d}</style><clipPath id="clip-path" transform="translate(-32.31 -67)"><path fill="none" d="M0 0h300v300H0z"/></clipPath></defs><g id="Layer_2" data-name="Layer 2"><g clip-path="url(#clip-path)" id="Return_Black" data-name="Return Black"><path class="cls-3" d="M259.43 160a3.72 3.72 0 0 1-.81-.09l-7.87-1.91a3.47 3.47 0 0 1 1.61-6.75l7.87 1.89a3.46 3.46 0 0 1-.8 6.83m-120.38 69.71a3.72 3.72 0 0 1-.81-.09L123 225.94a3.46 3.46 0 0 1 1.61-6.74l15.25 3.64a3.47 3.47 0 0 1-.8 6.84m15.39-.39a3.46 3.46 0 0 1-1.36-6.65 7.05 7.05 0 0 0 .87-.44l12.23-7.28a3.46 3.46 0 1 1 3.55 6l-12.24 7.29a14.2 14.2 0 0 1-1.7.86 3.39 3.39 0 0 1-1.35.27m-45.89-6.9a3.21 3.21 0 0 1-.81-.1l-15.25-3.65a3.47 3.47 0 0 1 1.62-6.74l15.24 3.65a3.47 3.47 0 0 1-.8 6.84m-30.5-7.3a3.7 3.7 0 0 1-.8-.09L62 211.35a3.46 3.46 0 1 1 1.61-6.74l15.25 3.65a3.46 3.46 0 0 1-.81 6.83m103.38-1.76a3.46 3.46 0 0 1-1.78-6.44l13.47-8a3.46 3.46 0 1 1 3.55 5.95l-13.47 8a3.48 3.48 0 0 1-1.77.49M47.56 207.8a3.72 3.72 0 0 1-.81-.09l-7.58-1.82c-6.19-1.48-6.86-5-6.86-6.43a5.89 5.89 0 0 1 2.46-4.65A3.47 3.47 0 0 1 40.1 199c.19.06.42.13.68.19l7.58 1.81a3.47 3.47 0 0 1-.8 6.84m160.8-10.52a3.47 3.47 0 0 1-1.78-6.45l13.47-8a3.46 3.46 0 1 1 3.55 5.95l-13.46 8a3.49 3.49 0 0 1-1.78.49m-158-4.38a3.46 3.46 0 0 1-1.77-6.44l13.46-8a3.47 3.47 0 0 1 3.55 6l-13.46 8a3.39 3.39 0 0 1-1.78.49m184.94-11.76a3.46 3.46 0 0 1-1.78-6.44l13.47-8a3.46 3.46 0 1 1 3.55 5.95l-13.47 8a3.48 3.48 0 0 1-1.77.49m1-26.79a3.25 3.25 0 0 1-.81-.09l-15.25-3.65a3.47 3.47 0 0 1 1.62-6.74l15.25 3.65a3.46 3.46 0 0 1-.81 6.83" transform="translate(-32.31 -67)"/><path class="cls-3" d="M262.27 165.1a3.47 3.47 0 0 1-3.07-5.1l-.58-.15a3.46 3.46 0 1 1 1.61-6.74c5.15 1.23 6.44 3.92 6.74 5.41.21 1 .38 3.64-2.63 5.88a3.47 3.47 0 0 1-2.07.68m-101.76 3.34c-3.69 2.2-9.07 3.41-14.3 3.41a29.64 29.64 0 0 1-6.82-.75L37.88 146.8c-.73-.18-1.39-.38-2-.6v24s.15 1.85 2.73 2.56 103 24.72 103 24.72a21 21 0 0 0 15.39-2.31c7.76-4.63 103.45-61.64 104.7-62.41a3.11 3.11 0 0 0 1.93-2.77v-23.05z" transform="translate(-32.31 -67)"/><path class="cls-3" d="M259.48 91.79L158 67.51c-4.54-1.09-10.91-.37-14.23 1.61L37.8 132.26c-3.32 2-2.31 4.46 2.23 5.55l101.51 24.28c4.55 1.08 10.92.37 14.24-1.61l105.93-63.15c3.32-2 2.32-4.46-2.23-5.54" transform="translate(-32.31 -67)"/></g></g></svg>