<svg xmlns="http://www.w3.org/2000/svg" viewBox="0 0 578.7 578.7">
  <path d="M289.35 573.7a14.59 14.59 0 0 1-10.38-4.3L9.35 299.73a14.7 14.7 0 0 1 0-20.76L278.97 9.35a14.68 14.68 0 0 1 20.76 0L569.4 278.97a14.7 14.7 0 0 1 0 20.76L299.73 569.4a14.59 14.59 0 0 1-10.38 4.3" fill="#a91f23"/>
  <path d="M289.35 10a9.62 9.62 0 0 1 6.85 2.84L565.86 282.5a9.69 9.69 0 0 1 0 13.7L296.2 565.86a9.68 9.68 0 0 1-13.7 0L12.84 296.2a9.68 9.68 0 0 1 0-13.7L282.5 12.84a9.62 9.62 0 0 1 6.85-2.84m0-10a19.61 19.61 0 0 0-13.92 5.77L5.77 275.43a19.68 19.68 0 0 0 0 27.84l269.66 269.66a19.68 19.68 0 0 0 27.84 0l269.66-269.66a19.68 19.68 0 0 0 0-27.84L303.27 5.77A19.61 19.61 0 0 0 289.35 0" fill="#fff"/>
  <path d="M289.35 132.16a157.19 157.19 0 1 0 157.19 157.19 157.19 157.19 0 0 0-157.19-157.19m0 275.49a118.3 118.3 0 1 1 118.3-118.3 118.3 118.3 0 0 1-118.3 118.3" fill="#fff"/>
  <path d="M289.35 204.68a84.67 84.67 0 1 0 84.67 84.67 84.67 84.67 0 0 0-84.67-84.67m0 131.92a47.25 47.25 0 1 1 47.25-47.25 47.26 47.26 0 0 1-47.25 47.25" fill="#fff"/>
</svg>
