<svg xmlns="http://www.w3.org/2000/svg" viewBox="0 0 578.7 578.7"><defs><style>.cls-5{fill:none}.cls-2{clip-path:url(#clip-path)}.cls-4{fill:#fff}.cls-5{stroke:#fff;stroke-miterlimit:10;stroke-width:16px}</style><clipPath id="clip-path" transform="translate(-10.65 -10.65)"><path fill="none" d="M0 0h600v600H0z"/></clipPath></defs><g id="Layer_2" data-name="Layer 2"><g class="cls-2" id="Layer_1-2" data-name="Layer 1"><g class="cls-2"><path d="M300 584.35a14.59 14.59 0 0 1-10.38-4.3L20 310.38a14.7 14.7 0 0 1 0-20.76L289.62 20a14.68 14.68 0 0 1 20.76 0l269.67 269.62a14.68 14.68 0 0 1 0 20.76L310.38 580.05a14.59 14.59 0 0 1-10.38 4.3" transform="translate(-10.65 -10.65)" fill="#d6a529"/><path class="cls-4" d="M300 20.65a9.62 9.62 0 0 1 6.85 2.84l269.66 269.66a9.69 9.69 0 0 1 0 13.7L306.85 576.51a9.68 9.68 0 0 1-13.7 0L23.49 306.85a9.69 9.69 0 0 1 0-13.7L293.15 23.49a9.62 9.62 0 0 1 6.85-2.84m0-10a19.61 19.61 0 0 0-13.92 5.77L16.42 286.08a19.68 19.68 0 0 0 0 27.84l269.66 269.66a19.68 19.68 0 0 0 27.84 0l269.66-269.66a19.68 19.68 0 0 0 0-27.84L313.92 16.42A19.61 19.61 0 0 0 300 10.65" transform="translate(-10.65 -10.65)"/><path class="cls-4" d="M288.36 206.71l35.82 62.03 35.81 62.03H216.74l35.81-62.03 35.81-62.03z"/><path class="cls-4" d="M326 158.39a27 27 0 1 1-27-27 27 27 0 0 1 27 27m76.93 237.44a27 27 0 1 1 37.24-8.42 27 27 0 0 1-37.24 8.42m-235.27-42.26a27 27 0 1 1-7.45 37.43 27 27 0 0 1 7.45-37.45" transform="translate(-10.65 -10.65)"/><circle class="cls-5" cx="288.36" cy="287.66" r="140.29"/><circle class="cls-5" cx="288.36" cy="287.66" r="76.58"/></g></g></g></svg>