<svg xmlns="http://www.w3.org/2000/svg" viewBox="0 0 578.7 578.7">
  <path d="M289.35 573.7a14.59 14.59 0 0 1-10.38-4.3L9.35 299.73a14.7 14.7 0 0 1 0-20.76L278.97 9.35a14.68 14.68 0 0 1 20.76 0L569.4 278.97a14.68 14.68 0 0 1 0 20.76L299.73 569.4a14.59 14.59 0 0 1-10.38 4.3" fill="#d6a529"/>
  <path d="M289.35 10a9.62 9.62 0 0 1 6.85 2.84L565.86 282.5a9.69 9.69 0 0 1 0 13.7L296.2 565.86a9.68 9.68 0 0 1-13.7 0L12.84 296.2a9.69 9.69 0 0 1 0-13.7L282.5 12.84a9.62 9.62 0 0 1 6.85-2.84m0-10a19.61 19.61 0 0 0-13.92 5.77L5.77 275.43a19.68 19.68 0 0 0 0 27.84l269.66 269.66a19.68 19.68 0 0 0 27.84 0l269.66-269.66a19.68 19.68 0 0 0 0-27.84L303.27 5.77A19.61 19.61 0 0 0 289.35 0" fill="#fff"/>
  <path d="M288.36 206.71l35.82 62.03 35.81 62.03H216.74l35.81-62.03 35.81-62.03zm26.99-58.97a27 27 0 1 1-27-27 27 27 0 0 1 27 27m76.93 237.44a27 27 0 1 1 37.24-8.42 27 27 0 0 1-37.24 8.42m-235.27-42.26a27 27 0 1 1-7.45 37.43 27 27 0 0 1 7.45-37.45" fill="#fff"/>
  <circle cx="288.36" cy="287.66" r="140.29" stroke="#fff" stroke-miterlimit="10" stroke-width="16" fill="none"/>
  <circle cx="288.36" cy="287.66" r="76.58" stroke="#fff" stroke-miterlimit="10" stroke-width="16" fill="none"/>
</svg>
