<svg xmlns="http://www.w3.org/2000/svg" viewBox="0 0 578.7 578.7"><defs><style>.cls-1{fill:none}.cls-2{clip-path:url(#clip-path)}.cls-4{fill:#fff}</style><clipPath id="clip-path" transform="translate(-10.65 -10.65)"><path class="cls-1" d="M0 0h600v600H0z"/></clipPath><clipPath id="clip-path-3" transform="translate(-10.65 -10.65)"><path class="cls-1" d="M286.08 16.42L16.42 286.08a19.68 19.68 0 0 0 0 27.84l269.66 269.66a19.68 19.68 0 0 0 27.84 0l269.66-269.66a19.68 19.68 0 0 0 0-27.84L313.92 16.42a19.68 19.68 0 0 0-27.84 0"/></clipPath></defs><g id="Layer_2" data-name="Layer 2"><g class="cls-2" id="Layer_1-2" data-name="Layer 1"><g class="cls-2"><path d="M300 584.35a14.59 14.59 0 0 1-10.38-4.3L20 310.38a14.7 14.7 0 0 1 0-20.76L289.62 20a14.68 14.68 0 0 1 20.76 0l269.67 269.62a14.68 14.68 0 0 1 0 20.76L310.38 580.05a14.59 14.59 0 0 1-10.38 4.3" transform="translate(-10.65 -10.65)" fill="#7d58a4"/><path class="cls-4" d="M300 20.65a9.62 9.62 0 0 1 6.85 2.84l269.66 269.66a9.69 9.69 0 0 1 0 13.7L306.85 576.51a9.68 9.68 0 0 1-13.7 0L23.49 306.85a9.69 9.69 0 0 1 0-13.7L293.15 23.49a9.62 9.62 0 0 1 6.85-2.84m0-10a19.61 19.61 0 0 0-13.92 5.77L16.42 286.08a19.68 19.68 0 0 0 0 27.84l269.66 269.66a19.68 19.68 0 0 0 27.84 0l269.66-269.66a19.68 19.68 0 0 0 0-27.84L313.92 16.42A19.61 19.61 0 0 0 300 10.65" transform="translate(-10.65 -10.65)"/></g><g clip-path="url(#clip-path-3)"><path class="cls-4" d="M172.47 94l46.43 213.41a5.72 5.72 0 0 0 7.5 4.41l53.34-18.36a5.73 5.73 0 0 1 7.58 5.1l11 200.27a5.72 5.72 0 0 0 11.17 1.42l94.39-297a5.72 5.72 0 0 0-6.76-7.3l-71 16.64a5.72 5.72 0 0 1-6.7-7.47l46.75-132.49c.64-1.83-42.55-59.74-42.55-59.74a5.72 5.72 0 0 0-4.54-2.24h-95.5a5.7 5.7 0 0 0-5.1 3.14s-46.23 79-46 80.21" transform="translate(-10.65 -10.65)"/></g></g></g></svg>