<svg xmlns="http://www.w3.org/2000/svg" viewBox="0 0 578.7 578.7">
  <defs>
    <clipPath id="curse-mask" transform="translate(-10.65 -10.65)">
      <path d="M286.08 16.42L16.42 286.08a19.68 19.68 0 0 0 0 27.84l269.66 269.66a19.68 19.68 0 0 0 27.84 0l269.66-269.66a19.68 19.68 0 0 0 0-27.84L313.92 16.42a19.68 19.68 0 0 0-27.84 0" fill="none"/>
    </clipPath>
  </defs>
  <path d="M289.35 573.7a14.59 14.59 0 0 1-10.38-4.3L9.35 299.73a14.7 14.7 0 0 1 0-20.76L278.97 9.35a14.68 14.68 0 0 1 20.76 0L569.4 278.97a14.68 14.68 0 0 1 0 20.76L299.73 569.4a14.59 14.59 0 0 1-10.38 4.3" fill="#7d58a4"/>
  <path d="M289.35 10a9.62 9.62 0 0 1 6.85 2.84L565.86 282.5a9.69 9.69 0 0 1 0 13.7L296.2 565.86a9.68 9.68 0 0 1-13.7 0L12.84 296.2a9.69 9.69 0 0 1 0-13.7L282.5 12.84a9.62 9.62 0 0 1 6.85-2.84m0-10a19.61 19.61 0 0 0-13.92 5.77L5.77 275.43a19.68 19.68 0 0 0 0 27.84l269.66 269.66a19.68 19.68 0 0 0 27.84 0l269.66-269.66a19.68 19.68 0 0 0 0-27.84L303.27 5.77A19.61 19.61 0 0 0 289.35 0" fill="#fff"/>
  <g clip-path="url(#curse-mask)">
    <path d="M161.82 83.35l46.43 213.41a5.72 5.72 0 0 0 7.5 4.41l53.34-18.36a5.73 5.73 0 0 1 7.58 5.1l11 200.27a5.72 5.72 0 0 0 11.17 1.42l94.39-297a5.72 5.72 0 0 0-6.76-7.3l-71 16.64a5.72 5.72 0 0 1-6.7-7.47l46.75-132.49c.64-1.83-42.55-59.74-42.55-59.74A5.72 5.72 0 0 0 308.43 0h-95.5a5.7 5.7 0 0 0-5.1 3.14s-46.23 79-46 80.21" fill="#fff"/>
  </g>
</svg>
