<svg xmlns="http://www.w3.org/2000/svg" viewBox="0 0 578.7 578.7">
  <defs>
    <clipPath id="disarm-mask" transform="translate(-10.65 -10.65)">
      <path d="M286.08 16.42L16.42 286.08a19.68 19.68 0 0 0 0 27.84l269.66 269.66a19.68 19.68 0 0 0 27.84 0l269.66-269.66a19.68 19.68 0 0 0 0-27.84L313.92 16.42a19.68 19.68 0 0 0-27.84 0" fill="none"/>
    </clipPath>
  </defs>
  <path d="M289.35 573.7a14.59 14.59 0 0 1-10.38-4.3L9.35 299.73a14.68 14.68 0 0 1 0-20.76L278.97 9.35a14.68 14.68 0 0 1 20.76 0L569.4 278.97a14.68 14.68 0 0 1 0 20.76L299.73 569.4a14.59 14.59 0 0 1-10.38 4.3" fill="#69797d"/>
  <path d="M289.35 10a9.62 9.62 0 0 1 6.85 2.84L565.86 282.5a9.69 9.69 0 0 1 0 13.7L296.2 565.86a9.68 9.68 0 0 1-13.7 0L12.84 296.2a9.69 9.69 0 0 1 0-13.7L282.5 12.84a9.62 9.62 0 0 1 6.85-2.84m0-10a19.61 19.61 0 0 0-13.92 5.77L5.77 275.43a19.68 19.68 0 0 0 0 27.84l269.66 269.66a19.68 19.68 0 0 0 27.84 0l269.66-269.66a19.68 19.68 0 0 0 0-27.84L303.27 5.77A19.61 19.61 0 0 0 289.35 0" fill="#fff"/>
  <g clip-path="url(#disarm-mask)">
    <path d="M460.13 434.78s-27.65-34.08-28.1-36.06 3.32-23.52 3.05-39.53-11.27-44.43-9.74-50.62 13.73-60.19 13.33-63.33-12.62-11.56-25.46-4.17-17.07 32.13-19.48 38.1-4.51 12.49-11.62 16.54c-11.13 6.35-15.94-2.35-24.2-11.66-4-4.52-29.13-66.55-34.18-75.53s-11.09-32.64-28.89-25.41c-18.84 7.65 5.28 53.87 7.62 59.6s14.25 35.4 15.31 39.65-1.48 6.15-4.4 7.54-4 4.69-13.93-7.37-33.68-38.83-37.17-42.74-23.36-26.05-29.72-27.85-22.89 6.31-18.38 19.41 29.06 32.89 40.09 46.16 35.66 34 32.21 41.47c-3.2 6.89-18.8-4.81-33.31-13.34s-44.18-29.29-48.27-29.8-16.54 2.51-16.24 15.51 27.55 26.53 34.85 31.15 45.09 27.38 42.28 35.71c-1.75 5.2-22-2.14-33.92-7s-40.93-15.53-45-6.63c-5.65 12.44-2.74 23.24 29.54 34.95s38.74 16.43 45.5 21.37 27.17 32.69 52.37 42.64c15.81 6.25 34.42 13 45.4 11.21 9.38 3.77 29.11 35.2 29.11 35.2s22.84-5.94 40.27-19.84 31-35.32 31-35.32" fill="#fff"/>
  </g>
  <path d="M399.43 159.59l-27.08 68.76c-1.59 4-3.82 3.43-3.2-.85l10.48-73.15c.42-2.93 2-5.6 3.11-5.3l16.6 4.39c1.13.3 1.17 3.4.09 6.15m-160.08-18.24l14.68 36.23c.86 2.12-.51 2.94-2 1.17l-24.91-30.12c-1-1.21-1.3-2.85-.61-3.26l10.23-6.11c.69-.41 2 .64 2.58 2.09m-87.85 66.43l36.48 34.29c2.13 2 1.18 3.3-1.37 1.85l-43.54-24.7c-1.74-1-3-2.66-2.55-3.31l7.07-9.58c.48-.65 2.45.08 3.91 1.45m-25.63 101.94l33 13.76c1.94.81 1.64 1.83-.42 1.47l-35.24-6.12c-1.41-.24-2.69-1-2.54-1.53l2.22-7.64c.15-.52 1.65-.49 3 .06m47.19 92.19l37.14-6.4c2.17-.38 2.64 1 .67 2l-33.69 16.94c-1.34.68-2.95.64-3.18-.07l-3.47-10.51c-.23-.72 1-1.7 2.53-2m150.67-275.59l-9.43 31.86c-.55 1.87-1.95 1.69-2-.26l-1-33.21c0-1.33.63-2.58 1.34-2.49l10.46 1.35c.71.09 1.05 1.48.67 2.75" fill="#fff"/>
</svg>
