<svg xmlns="http://www.w3.org/2000/svg" viewBox="0 0 578.7 578.7"><defs><style>.cls-2{clip-path:url(#clip-path)}.cls-4{fill:#fff}</style><clipPath id="clip-path" transform="translate(-10.65 -10.65)"><path fill="none" d="M0 0h600v600H0z"/></clipPath></defs><g id="Layer_2" data-name="Layer 2"><g class="cls-2" id="Layer_1-2" data-name="Layer 1"><g class="cls-2"><path d="M300 584.35a14.59 14.59 0 0 1-10.38-4.3L20 310.38a14.68 14.68 0 0 1 0-20.76L289.62 20a14.68 14.68 0 0 1 20.76 0l269.67 269.62a14.68 14.68 0 0 1 0 20.76L310.38 580.05a14.59 14.59 0 0 1-10.38 4.3" transform="translate(-10.65 -10.65)" fill="#9b342f"/><path class="cls-4" d="M300 20.65a9.62 9.62 0 0 1 6.85 2.84l269.66 269.66a9.69 9.69 0 0 1 0 13.7L306.85 576.51a9.68 9.68 0 0 1-13.7 0L23.49 306.85a9.69 9.69 0 0 1 0-13.7L293.15 23.49a9.62 9.62 0 0 1 6.85-2.84m0-10a19.61 19.61 0 0 0-13.92 5.77L16.42 286.08a19.68 19.68 0 0 0 0 27.84l269.66 269.66a19.68 19.68 0 0 0 27.84 0l269.66-269.66a19.68 19.68 0 0 0 0-27.84L313.92 16.42A19.61 19.61 0 0 0 300 10.65" transform="translate(-10.65 -10.65)"/><path class="cls-4" d="M203.31 394.34c45 43.75 99.49 37.76 99.49 37.76a29.69 29.69 0 0 1 1.8-8.39c11.39-2.4 39-.6 41.95-.6s9 9.59 10.79 12.58c7.79 0 53.34-13.18 60.53-22.17 3.6-11.39-7.79-78.51-14.38-109.08 32.36-86.9 16.78-112.07 16.78-112.07-33-10.79-52.14-6.6-71.32.6s-41.35 3-43.15 4.79c-.75.74 1.61 16.92 4.62 36.37.1.66.2 1.32.31 2 .49 3.14 1 6.35 1.48 9.59.1.65.21 1.31.32 2 .49 3.14 1 6.3 1.48 9.42.09.59.18 1.19.28 1.78.5 3.26 1 6.48 1.48 9.59.11.73.22 1.46.34 2.19.49 3.28 1 6.44 1.41 9.41.14.95.28 1.88.41 2.78.52 3.56 1 6.8 1.32 9.59 0 .41.1.8.14 1.19a84.14 84.14 0 0 1 .79 8.4 9 9 0 0 1-.06 1 15.31 15.31 0 0 1-.38 2 50.21 50.21 0 0 1-4 9.59q-.5 1-1.05 2c-8.05 14.83-22.33 34.08-24.46 38.78-38.36-.6-57.54 9-57.54 9l-17.38-3.6s-11.39 7.79-12 33.56" transform="translate(-10.65 -10.65)"/><path stroke="#fff" stroke-linecap="round" stroke-miterlimit="10" stroke-width="10" fill="none" d="M276.35 359.82L163.24 201.64"/><path class="cls-4" d="M232.77 228.74l-7.9 31.24-40.63-56.61 7.9-31.24 40.63 56.61zm-75.41-7.21l-32.54-1.5 41.91 55.67 32.54 1.5-41.91-55.67z"/></g></g></g></svg>