<svg xmlns="http://www.w3.org/2000/svg" viewBox="0 0 578.7 578.7">
  <path d="M289.35 573.7a14.59 14.59 0 0 1-10.38-4.3L9.35 299.73a14.68 14.68 0 0 1 0-20.76L278.97 9.35a14.68 14.68 0 0 1 20.76 0L569.4 278.97a14.68 14.68 0 0 1 0 20.76L299.73 569.4a14.59 14.59 0 0 1-10.38 4.3" fill="#9b342f"/>
  <path d="M289.35 10a9.62 9.62 0 0 1 6.85 2.84L565.86 282.5a9.69 9.69 0 0 1 0 13.7L296.2 565.86a9.68 9.68 0 0 1-13.7 0L12.84 296.2a9.69 9.69 0 0 1 0-13.7L282.5 12.84a9.62 9.62 0 0 1 6.85-2.84m0-10a19.61 19.61 0 0 0-13.92 5.77L5.77 275.43a19.68 19.68 0 0 0 0 27.84l269.66 269.66a19.68 19.68 0 0 0 27.84 0l269.66-269.66a19.68 19.68 0 0 0 0-27.84L303.27 5.77A19.61 19.61 0 0 0 289.35 0" fill="#fff"/>
  <path d="M192.66 383.69c45 43.75 99.49 37.76 99.49 37.76a29.69 29.69 0 0 1 1.8-8.39c11.39-2.4 39-.6 41.95-.6s9 9.59 10.79 12.58c7.79 0 53.34-13.18 60.53-22.17 3.6-11.39-7.79-78.51-14.38-109.08 32.36-86.9 16.78-112.07 16.78-112.07-33-10.79-52.14-6.6-71.32.6s-41.35 3-43.15 4.79c-.75.74 1.61 16.92 4.62 36.37.1.66.2 1.32.31 2 .49 3.14 1 6.35 1.48 9.59.1.65.21 1.31.32 2 .49 3.14 1 6.3 1.48 9.42.09.59.18 1.19.28 1.78.5 3.26 1 6.48 1.48 9.59.11.73.22 1.46.34 2.19.49 3.28 1 6.44 1.41 9.41.14.95.28 1.88.41 2.78.52 3.56 1 6.8 1.32 9.59 0 .41.1.8.14 1.19a84.14 84.14 0 0 1 .79 8.4 9 9 0 0 1-.06 1 15.31 15.31 0 0 1-.38 2 50.21 50.21 0 0 1-4 9.59q-.5 1-1.05 2c-8.05 14.83-22.33 34.08-24.46 38.78-38.36-.6-57.54 9-57.54 9l-17.38-3.6s-11.39 7.79-12 33.56" fill="#fff"/>
  <path stroke="#fff" stroke-linecap="round" stroke-miterlimit="10" stroke-width="10" fill="none" d="M276.35 359.82L163.24 201.64"/>
  <path d="M232.77 228.74l-7.9 31.24-40.63-56.61 7.9-31.24 40.63 56.61zm-75.41-7.21l-32.54-1.5 41.91 55.67 32.54 1.5-41.91-55.67z" fill="#fff"/>
</svg>
