<svg xmlns="http://www.w3.org/2000/svg" viewBox="0 0 578.7 578.7">
  <path d="M289.35 573.7a14.59 14.59 0 0 1-10.38-4.3L9.35 299.73a14.7 14.7 0 0 1 0-20.76L278.97 9.35a14.68 14.68 0 0 1 20.76 0L569.4 278.97a14.7 14.7 0 0 1 0 20.76L299.73 569.4a14.59 14.59 0 0 1-10.38 4.3" fill="#151514"/>
  <path d="M289.35 10a9.62 9.62 0 0 1 6.85 2.84L565.86 282.5a9.68 9.68 0 0 1 0 13.7L296.2 565.86a9.68 9.68 0 0 1-13.7 0L12.84 296.2a9.68 9.68 0 0 1 0-13.7L282.5 12.84a9.62 9.62 0 0 1 6.85-2.84m0-10a19.61 19.61 0 0 0-13.92 5.77L5.77 275.43a19.68 19.68 0 0 0 0 27.84l269.66 269.66a19.68 19.68 0 0 0 27.84 0l269.66-269.66a19.68 19.68 0 0 0 0-27.84L303.27 5.77A19.61 19.61 0 0 0 289.35 0" fill="#fff"/>
  <path d="M331.79 155.67a42.44 42.44 0 1 1-42.44-42.44 42.44 42.44 0 0 1 42.44 42.44" fill="#151514"/>
  <path d="M331.79 155.67a42.44 42.44 0 1 1-42.44-42.44 42.44 42.44 0 0 1 42.44 42.44z" stroke-miterlimit="10" stroke-dasharray="14.81 29.62" stroke="#fff" stroke-linecap="round" stroke-width="15" fill="none"/>
  <path d="M229.75 423.87l50.1-192h19l50.1 192s-16.09 12.1-53.46 12.1-65.74-12.1-65.74-12.1" fill="#151514"/>
  <path d="M236.79 426.45c-4.52-1.51-7-2.58-7-2.58l1.9-7.26" stroke="#fff" stroke-linecap="round" stroke-width="15" stroke-linejoin="round" fill="none"/>
  <path d="M240.07 384.34l33.68-129.05" stroke-dasharray="16.67 33.34" stroke="#fff" stroke-linecap="round" stroke-width="15" stroke-linejoin="round" fill="none"/>
  <path d="M277.95 239.16l1.9-7.26h7.5m4 0h7.5l1.89 7.26" stroke="#fff" stroke-linecap="round" stroke-width="15" stroke-linejoin="round" fill="none"/>
  <path d="M309.16 271.42l33.68 129.06" stroke-dasharray="16.67 33.34" stroke="#fff" stroke-linecap="round" stroke-width="15" stroke-linejoin="round" fill="none"/>
  <path d="M347.05 416.61l1.9 7.26a38.42 38.42 0 0 1-6.57 3.6" stroke="#fff" stroke-linecap="round" stroke-width="15" stroke-linejoin="round" fill="none"/>
  <path d="M316.5 434.56a149.77 149.77 0 0 1-21 1.41 190.1 190.1 0 0 1-45.77-5.77" stroke-dasharray="13.46 26.92" stroke-linejoin="round" stroke="#fff" stroke-linecap="round" stroke-width="15" fill="none"/>
</svg>
