<svg xmlns="http://www.w3.org/2000/svg" viewBox="0 0 578.7 578.7"><defs><style>.cls-6,.cls-7{fill:none}.cls-2{clip-path:url(#clip-path)}.cls-3{fill:#151514}.cls-6,.cls-7{stroke:#fff;stroke-linecap:round;stroke-width:15px;stroke-linejoin:round}.cls-7{stroke-dasharray:16.67 33.34}</style><clipPath id="clip-path" transform="translate(-10.65 -10.65)"><path fill="none" d="M0 0h600v600H0z"/></clipPath></defs><g id="Layer_2" data-name="Layer 2"><g class="cls-2" id="Layer_1-2" data-name="Layer 1"><g class="cls-2"><path class="cls-3" d="M300 584.35a14.59 14.59 0 0 1-10.38-4.3L20 310.38a14.7 14.7 0 0 1 0-20.76L289.62 20a14.68 14.68 0 0 1 20.76 0l269.67 269.62a14.7 14.7 0 0 1 0 20.76L310.38 580.05a14.59 14.59 0 0 1-10.38 4.3" transform="translate(-10.65 -10.65)"/><path d="M300 20.65a9.62 9.62 0 0 1 6.85 2.84l269.66 269.66a9.68 9.68 0 0 1 0 13.7L306.85 576.51a9.68 9.68 0 0 1-13.7 0L23.49 306.85a9.68 9.68 0 0 1 0-13.7L293.15 23.49a9.62 9.62 0 0 1 6.85-2.84m0-10a19.61 19.61 0 0 0-13.92 5.77L16.42 286.08a19.68 19.68 0 0 0 0 27.84l269.66 269.66a19.68 19.68 0 0 0 27.84 0l269.66-269.66a19.68 19.68 0 0 0 0-27.84L313.92 16.42A19.61 19.61 0 0 0 300 10.65" transform="translate(-10.65 -10.65)" fill="#fff"/><path class="cls-3" d="M342.44 166.32A42.44 42.44 0 1 1 300 123.88a42.44 42.44 0 0 1 42.44 42.44" transform="translate(-10.65 -10.65)"/><path d="M331.79 155.67a42.44 42.44 0 1 1-42.44-42.44 42.44 42.44 0 0 1 42.44 42.44z" stroke-miterlimit="10" stroke-dasharray="14.81 29.62" stroke="#fff" stroke-linecap="round" stroke-width="15" fill="none"/><path class="cls-3" d="M240.4 434.52l50.1-192h19l50.1 192s-16.09 12.1-53.46 12.1-65.74-12.1-65.74-12.1" transform="translate(-10.65 -10.65)"/><path class="cls-6" d="M247.44 437.1c-4.52-1.51-7-2.58-7-2.58l1.9-7.26" transform="translate(-10.65 -10.65)"/><path class="cls-7" d="M240.07 384.34l33.68-129.05"/><path class="cls-6" d="M277.95 239.16l1.9-7.26h7.5m4 0h7.5l1.89 7.26"/><path class="cls-7" d="M309.16 271.42l33.68 129.06"/><path class="cls-6" d="M357.7 427.26l1.9 7.26a38.42 38.42 0 0 1-6.57 3.6" transform="translate(-10.65 -10.65)"/><path d="M316.5 434.56a149.77 149.77 0 0 1-21 1.41 190.1 190.1 0 0 1-45.77-5.77" stroke-dasharray="13.46 26.92" stroke-linejoin="round" stroke="#fff" stroke-linecap="round" stroke-width="15" fill="none"/></g></g></g></svg>