<svg xmlns="http://www.w3.org/2000/svg" viewBox="0 0 578.7 578.7"><defs><style>.cls-2{clip-path:url(#clip-path)}.cls-4{fill:#fff}</style><clipPath id="clip-path" transform="translate(-10.65 -10.65)"><path fill="none" d="M0 0h600v600H0z"/></clipPath></defs><g id="Layer_2" data-name="Layer 2"><g class="cls-2" id="Layer_1-2" data-name="Layer 1"><g class="cls-2"><path d="M300 584.35a14.59 14.59 0 0 1-10.38-4.3L20 310.38a14.7 14.7 0 0 1 0-20.76L289.62 20a14.68 14.68 0 0 1 20.76 0l269.67 269.62a14.7 14.7 0 0 1 0 20.76L310.38 580.05a14.59 14.59 0 0 1-10.38 4.3" transform="translate(-10.65 -10.65)" fill="#705844"/><path class="cls-4" d="M300 20.65a9.62 9.62 0 0 1 6.85 2.84l269.66 269.66a9.68 9.68 0 0 1 0 13.7L306.85 576.51a9.68 9.68 0 0 1-13.7 0L23.49 306.85a9.68 9.68 0 0 1 0-13.7L293.15 23.49a9.62 9.62 0 0 1 6.85-2.84m0-10a19.61 19.61 0 0 0-13.92 5.77L16.42 286.08a19.68 19.68 0 0 0 0 27.84l269.66 269.66a19.68 19.68 0 0 0 27.84 0l269.66-269.66a19.68 19.68 0 0 0 0-27.84L313.92 16.42A19.61 19.61 0 0 0 300 10.65" transform="translate(-10.65 -10.65)"/><path class="cls-4" d="M284.13 175.36l3.34 32q.93 9-1.83 12.83a24.53 24.53 0 0 1-7.59 6.72l-38.62 23.78-6-4.9q9.33-12.83 7.94-26.12l-4.64-44.56q-.24-2.34 39.25-23.45t46.72-21.86q7.23-.75 21.55 15.34t15.3 25.48l7 67.62q1.06 10.17-16.11 29.34a293.7 293.7 0 0 1-34.67 33.25L298.27 315l1.14 10.94q1.27 12.12 6.08 18.53t9.2 6.75l4 .38.9 8.6q-35.59 26.17-38.35 26.46T268 379.34q-10.47-7.59-11.32-15.81l-5.5-52.77q-.45-4.29 23.55-22.41t34.68-29.29q10.69-11.19 10-18.23l-4.72-45.34q-1.8-17.2-5.83-23.7a11.4 11.4 0 0 0-11.66-5.7q-7.62.79-13.06 9.27M265 446.44l-2.49-23.84q-.12-1.17 15.47-8.92t18.13-8q2.55-.27 8.12 5.87a23 23 0 0 1 6.32 13.17l3 28.54q.12 1.17-14.89 8.86t-18.52 8.05c-2.34.24-5.26-1.76-8.72-6S265.73 454 265 446.44" transform="translate(-10.65 -10.65)"/></g></g></g></svg>