<svg xmlns="http://www.w3.org/2000/svg" viewBox="0 0 578.7 578.7">
  <path d="M289.35 573.7a14.59 14.59 0 0 1-10.38-4.3L9.35 299.73a14.7 14.7 0 0 1 0-20.76L278.97 9.35a14.68 14.68 0 0 1 20.76 0L569.4 278.97a14.7 14.7 0 0 1 0 20.76L299.73 569.4a14.59 14.59 0 0 1-10.38 4.3" fill="#705844"/>
  <path d="M289.35 10a9.62 9.62 0 0 1 6.85 2.84L565.86 282.5a9.68 9.68 0 0 1 0 13.7L296.2 565.86a9.68 9.68 0 0 1-13.7 0L12.84 296.2a9.68 9.68 0 0 1 0-13.7L282.5 12.84a9.62 9.62 0 0 1 6.85-2.84m0-10a19.61 19.61 0 0 0-13.92 5.77L5.77 275.43a19.68 19.68 0 0 0 0 27.84l269.66 269.66a19.68 19.68 0 0 0 27.84 0l269.66-269.66a19.68 19.68 0 0 0 0-27.84L303.27 5.77A19.61 19.61 0 0 0 289.35 0" fill="#fff"/>
  <path d="M273.48 164.71l3.34 32q.93 9-1.83 12.83a24.53 24.53 0 0 1-7.59 6.72l-38.62 23.78-6-4.9q9.33-12.83 7.94-26.12l-4.64-44.56q-.24-2.34 39.25-23.45t46.72-21.86q7.23-.75 21.55 15.34t15.3 25.48l7 67.62q1.06 10.17-16.11 29.34a293.7 293.7 0 0 1-34.67 33.25l-17.5 14.17 1.14 10.94q1.27 12.12 6.08 18.53t9.2 6.75l4 .38.9 8.6q-35.59 26.17-38.35 26.46t-13.24-7.32q-10.47-7.59-11.32-15.81l-5.5-52.77q-.45-4.29 23.55-22.41t34.68-29.29q10.69-11.19 10-18.23l-4.72-45.34q-1.8-17.2-5.83-23.7a11.4 11.4 0 0 0-11.66-5.7q-7.62.79-13.06 9.27m-19.14 271.08l-2.49-23.84q-.12-1.17 15.47-8.92t18.13-8q2.55-.27 8.12 5.87a23 23 0 0 1 6.32 13.17l3 28.54q.12 1.17-14.89 8.86t-18.52 8.05c-2.34.24-5.26-1.76-8.72-6s-5.69-10.17-6.42-17.73" fill="#fff"/>
</svg>
