<svg xmlns="http://www.w3.org/2000/svg" viewBox="0 0 578.7 578.7">
  <path d="M289.35 573.7a14.59 14.59 0 0 1-10.38-4.3L9.35 299.73a14.7 14.7 0 0 1 0-20.76L278.97 9.35a14.68 14.68 0 0 1 20.76 0L569.4 278.97a14.7 14.7 0 0 1 0 20.76L299.73 569.4a14.59 14.59 0 0 1-10.38 4.3" fill="#c88c4e"/>
  <path d="M289.35 10a9.62 9.62 0 0 1 6.85 2.84L565.86 282.5a9.68 9.68 0 0 1 0 13.7L296.2 565.86a9.68 9.68 0 0 1-13.7 0L12.84 296.2a9.69 9.69 0 0 1 0-13.7L282.5 12.84a9.62 9.62 0 0 1 6.85-2.84m0-10a19.61 19.61 0 0 0-13.92 5.77L5.77 275.43a19.68 19.68 0 0 0 0 27.84l269.66 269.66a19.68 19.68 0 0 0 27.84 0l269.66-269.66a19.68 19.68 0 0 0 0-27.84L303.27 5.77A19.61 19.61 0 0 0 289.35 0" fill="#fff"/>
  <path d="M435.92 259.35l-18.05 18.18H70.57l-7.22 11.82 7.22 11.82h347.3l18.05 18.18 79.43-30-79.43-30zm-89.57-1.52l30.09-23.4h-26.67l26.63-46.16-42.61 32.85V103.05l-36.39 95-23.05-45.29v48.38l-25.64-9.32 23.94 40.73a3 3 0 0 0 4.26 1 40.45 40.45 0 0 1 38.44-3.35c13.68 5.87 22.89 20.3 26.45 26.71a3 3 0 0 0 4.52.92m.03 65.24l30.09 23.4h-26.67l26.63 46.16-42.61-32.85v118.07l-36.39-95-23.05 45.29v-48.38l-25.64 9.32 23.91-40.73a3 3 0 0 1 4.26-1 40.43 40.43 0 0 0 38.47 3.34c13.68-5.86 22.89-20.29 26.45-26.7a3 3 0 0 1 4.52-.92" fill="#fff"/>
</svg>
