<svg xmlns="http://www.w3.org/2000/svg" viewBox="0 0 578.7 578.7"><defs><style>.cls-2{clip-path:url(#clip-path)}.cls-4{fill:#fff}</style><clipPath id="clip-path" transform="translate(-10.65 -10.65)"><path fill="none" d="M0 0h600v600H0z"/></clipPath></defs><g id="Layer_2" data-name="Layer 2"><g class="cls-2" id="Layer_1-2" data-name="Layer 1"><g class="cls-2"><path d="M300 584.35a14.59 14.59 0 0 1-10.38-4.3L20 310.38a14.7 14.7 0 0 1 0-20.76L289.62 20a14.68 14.68 0 0 1 20.76 0l269.67 269.62a14.7 14.7 0 0 1 0 20.76L310.38 580.05a14.59 14.59 0 0 1-10.38 4.3" transform="translate(-10.65 -10.65)" fill="#c88c4e"/><path class="cls-4" d="M300 20.65a9.62 9.62 0 0 1 6.85 2.84l269.66 269.66a9.68 9.68 0 0 1 0 13.7L306.85 576.51a9.68 9.68 0 0 1-13.7 0L23.49 306.85a9.69 9.69 0 0 1 0-13.7L293.15 23.49a9.62 9.62 0 0 1 6.85-2.84m0-10a19.61 19.61 0 0 0-13.92 5.77L16.42 286.08a19.68 19.68 0 0 0 0 27.84l269.66 269.66a19.68 19.68 0 0 0 27.84 0l269.66-269.66a19.68 19.68 0 0 0 0-27.84L313.92 16.42A19.61 19.61 0 0 0 300 10.65" transform="translate(-10.65 -10.65)"/><path class="cls-4" d="M435.92 259.35l-18.05 18.18H70.57l-7.22 11.82 7.22 11.82h347.3l18.05 18.18 79.43-30-79.43-30z"/><path class="cls-4" d="M357 268.48l30.09-23.4h-26.67l26.63-46.16-42.61 32.85V113.7l-36.39 95L285 163.41v48.38l-25.64-9.32 23.94 40.73a3 3 0 0 0 4.26 1 40.45 40.45 0 0 1 38.44-3.35c13.68 5.87 22.89 20.3 26.45 26.71a3 3 0 0 0 4.52.92m.03 65.24l30.09 23.4h-26.67l26.63 46.16-42.61-32.85V488.5l-36.39-95L285 438.79v-48.38l-25.64 9.32L283.27 359a3 3 0 0 1 4.26-1 40.43 40.43 0 0 0 38.47 3.34c13.68-5.86 22.89-20.29 26.45-26.7a3 3 0 0 1 4.52-.92" transform="translate(-10.65 -10.65)"/></g></g></g></svg>