<svg xmlns="http://www.w3.org/2000/svg" viewBox="0 0 578.7 578.7">
  <path d="M289.35 573.7a14.59 14.59 0 0 1-10.38-4.3L9.35 299.73a14.7 14.7 0 0 1 0-20.76L278.97 9.35a14.68 14.68 0 0 1 20.76 0L569.4 278.97a14.7 14.7 0 0 1 0 20.76L299.73 569.4a14.59 14.59 0 0 1-10.38 4.3" fill="#7c7f67"/>
  <path d="M289.35 10a9.62 9.62 0 0 1 6.85 2.84L565.86 282.5a9.69 9.69 0 0 1 0 13.7L296.2 565.86a9.68 9.68 0 0 1-13.7 0L12.84 296.2a9.69 9.69 0 0 1 0-13.7L282.5 12.84a9.62 9.62 0 0 1 6.85-2.84m0-10a19.61 19.61 0 0 0-13.92 5.77L5.77 275.43a19.68 19.68 0 0 0 0 27.84l269.66 269.66a19.68 19.68 0 0 0 27.84 0l269.66-269.66a19.68 19.68 0 0 0 0-27.84L303.27 5.77A19.61 19.61 0 0 0 289.35 0" fill="#fff"/>
  <path d="M464.71 265.98c-7.5-32.86-25-95.1-169.22-95.1s-161.71 62.24-169.21 95.1c-13.35 58.51 12.71 86.4 27.65 96.87 18.4 12.89 62.19 15.09 62.19 15.09s-5.9 29.2 0 36c13 14.95 141.48 15.95 158.74 0 6.61-6.1 0-36 0-36s43.8-2.2 62.2-15.09c14.94-10.47 41-38.36 27.65-96.87" fill="#fff"/>
  <path d="M288.35 316.4c-8.88 1.69-22.47 37.38-19.61 44.23s9.08-2.84 22.25 0c11.61 2.5 11.58 5.68 17.61 5.75 4.27.05.1-18.3-3.41-36-2.67-13.43-7.95-15.66-16.84-14m-66.84-32.03l29.9-26.16a7.45 7.45 0 0 0 0-10.71 7.89 7.89 0 0 0-11 0l-26 29.8-26.57-29.79a6.8 6.8 0 0 0-10 0 7.9 7.9 0 0 0 0 10.68l29.51 26.18-30 26.16a7.33 7.33 0 0 0 0 10.71 8.21 8.21 0 0 0 11.23 0l25.85-29.8 26.48 29.67a7.1 7.1 0 0 0 10.18 0 7.44 7.44 0 0 0 0-10.38z" fill="#7c7f67"/>
  <path d="M221.51 284.35l29.9-26.16a7.45 7.45 0 0 0 0-10.71 7.89 7.89 0 0 0-11 0l-26 29.8-26.57-29.79a6.8 6.8 0 0 0-10 0 7.9 7.9 0 0 0 0 10.68l29.51 26.18-30 26.16a7.33 7.33 0 0 0 0 10.71 8.21 8.21 0 0 0 11.23 0l25.85-29.8 26.48 29.67a7.1 7.1 0 0 0 10.18 0 7.44 7.44 0 0 0 0-10.38z" stroke="#7c7f69" stroke-miterlimit="10" stroke-width="5" fill="none"/>
  <path d="M371.49 284.35l29.91-26.16a7.45 7.45 0 0 0 0-10.71 7.89 7.89 0 0 0-11 0l-26 29.8-26.55-29.79a6.79 6.79 0 0 0-10 0 7.9 7.9 0 0 0 0 10.68l29.5 26.18-30 26.16a7.31 7.31 0 0 0 0 10.71 8.2 8.2 0 0 0 11.22 0l25.85-29.8 26.48 29.67a7.11 7.11 0 0 0 10.19 0 7.44 7.44 0 0 0 0-10.38z" fill="#7c7f67"/>
  <path d="M371.49 284.35l29.91-26.16a7.45 7.45 0 0 0 0-10.71 7.89 7.89 0 0 0-11 0l-26 29.8-26.55-29.79a6.79 6.79 0 0 0-10 0 7.9 7.9 0 0 0 0 10.68l29.5 26.18-30 26.16a7.31 7.31 0 0 0 0 10.71 8.2 8.2 0 0 0 11.22 0l25.85-29.8 26.48 29.67a7.11 7.11 0 0 0 10.19 0 7.44 7.44 0 0 0 0-10.38z" stroke="#7c7f69" stroke-miterlimit="10" stroke-width="5" fill="none"/>
</svg>
