<svg xmlns="http://www.w3.org/2000/svg" viewBox="0 0 578.7 578.7">
  <path d="M289.4 573.7c3.9 0 7.6-1.5 10.4-4.3l269.6-269.7c5.7-5.7 5.7-15 0-20.8L299.7 9.4c-5.7-5.7-15-5.7-20.8 0L9.3 279c-5.7 5.7-5.7 15 0 20.8L279 569.4c2.7 2.8 6.5 4.3 10.4 4.3" fill="#4f504f"/>
  <path d="M289.4 10c-2.6 0-5 1-6.9 2.8L12.8 282.5c-3.8 3.8-3.8 9.9 0 13.7l269.7 269.7c3.8 3.8 9.9 3.8 13.7 0l269.7-269.7c3.8-3.8 3.8-9.9 0-13.7L296.2 12.8c-1.8-1.8-4.3-2.8-6.8-2.8m0-10c5.2 0 10.2 2.1 13.9 5.8L573 275.5c7.7 7.7 7.7 20.1 0 27.8L303.3 572.9c-7.7 7.7-20.1 7.7-27.8 0L5.8 303.3c-7.7-7.7-7.7-20.1 0-27.8L275.4 5.8c3.7-3.7 8.7-5.8 14-5.8" fill="#fff"/>
  <path d="M193.9 332.3h137.9c2.4 0 4.3-1.9 4.3-4.3 0-.9-.3-1.8-.8-2.5-5.2-7.3-12.2-20-12.2-36.1s7-28.8 12.2-36.1c1.4-1.9 1-4.6-1-6-.7-.5-1.6-.8-2.5-.8H193.9v85.8zm185.6 0h49.7c2.4 0 4.3-1.9 4.3-4.3 0-.9-.3-1.8-.8-2.5-5.2-7.3-12.2-20-12.2-36.1s7-28.8 12.2-36.1c1.4-1.9 1-4.6-1-6-.7-.5-1.6-.8-2.5-.8h-49.7c-3.8 0-7.5 1.6-10.2 4.3-5.7 5.9-14.2 18-14.2 38.6s8.5 32.8 14.2 38.6c2.6 2.7 6.3 4.3 10.2 4.3m104 0H494c2.4 0 4.3-1.9 4.3-4.3 0-.9-.3-1.8-.8-2.5-5.2-7.3-12.2-20-12.2-36.1s7-28.8 12.2-36.1c1.4-1.9.9-4.6-1-6-.7-.5-1.6-.8-2.5-.8h-10.5c-3.8 0-7.5 1.6-10.2 4.3-5.7 5.9-14.2 18-14.2 38.6s8.5 32.8 14.2 38.6c2.7 2.7 6.4 4.3 10.2 4.3" fill="#fff"/>
  <path d="M211.4 385.7l-129-92.4c-2.2-1.5-2.7-4.6-1.1-6.7.3-.4.7-.8 1.1-1.1l129-92.4c1.8-1.3 4.3-.8 5.6 1 .5.7.7 1.4.7 2.3v186.2c0 2.2-1.8 4-4 4-.8-.2-1.6-.5-2.3-.9" fill="#fff"/>
</svg>
