<svg xmlns="http://www.w3.org/2000/svg" viewBox="0 0 578.7 578.7">
  <path d="M289.35 573.7a14.59 14.59 0 0 1-10.38-4.3L9.35 299.73a14.7 14.7 0 0 1 0-20.76L278.97 9.35a14.68 14.68 0 0 1 20.76 0L569.4 278.97a14.7 14.7 0 0 1 0 20.76L299.73 569.4a14.59 14.59 0 0 1-10.38 4.3" fill="#4f504f"/>
  <path d="M289.35 10a9.62 9.62 0 0 1 6.85 2.84L565.86 282.5a9.68 9.68 0 0 1 0 13.7L296.2 565.86a9.68 9.68 0 0 1-13.7 0L12.84 296.2a9.68 9.68 0 0 1 0-13.7L282.5 12.84a9.62 9.62 0 0 1 6.85-2.84m0-10a19.61 19.61 0 0 0-13.92 5.77L5.77 275.43a19.68 19.68 0 0 0 0 27.84l269.66 269.66a19.68 19.68 0 0 0 27.84 0l269.66-269.66a19.68 19.68 0 0 0 0-27.84L303.27 5.77A19.61 19.61 0 0 0 289.35 0" fill="#fff"/>
  <path d="M384.76 332.26H246.87a4.28 4.28 0 0 1-3.48-6.79c5.24-7.29 12.22-20 12.22-36.12s-7-28.83-12.22-36.12a4.28 4.28 0 0 1 3.48-6.79h137.89zm-185.52 0h-49.73a4.28 4.28 0 0 1-3.48-6.79c5.24-7.29 12.22-20 12.22-36.12s-7-28.83-12.22-36.12a4.28 4.28 0 0 1 3.48-6.79h49.73a14.24 14.24 0 0 1 10.2 4.31c5.71 5.85 14.22 18 14.22 38.6s-8.51 32.75-14.22 38.6a14.24 14.24 0 0 1-10.2 4.31m-104.05 0h-10.5a4.29 4.29 0 0 1-3.49-6.79c5.25-7.29 12.23-20 12.23-36.12s-7-28.83-12.23-36.12a4.29 4.29 0 0 1 3.49-6.79h10.5a14.24 14.24 0 0 1 10.16 4.31c5.72 5.85 14.22 18 14.22 38.6s-8.5 32.75-14.22 38.6a14.24 14.24 0 0 1-10.2 4.31" fill="#fff"/>
  <path d="M367.28 385.66l129-92.4a4.81 4.81 0 0 0 0-7.82l-129-92.4a4 4 0 0 0-6.3 3.23v186.16a4 4 0 0 0 6.3 3.23" fill="#fff"/>
</svg>
