<svg xmlns="http://www.w3.org/2000/svg" viewBox="0 0 578.7 578.7"><defs><style>.cls-2{clip-path:url(#clip-path)}.cls-4{fill:#fff}</style><clipPath id="clip-path" transform="translate(-10.65 -10.65)"><path fill="none" d="M0 0h600v600H0z"/></clipPath></defs><g id="Layer_2" data-name="Layer 2"><g class="cls-2" id="Layer_1-2" data-name="Layer 1"><g class="cls-2"><path d="M300 584.35a14.59 14.59 0 0 1-10.38-4.3L20 310.38a14.7 14.7 0 0 1 0-20.76L289.62 20a14.68 14.68 0 0 1 20.76 0l269.67 269.62a14.7 14.7 0 0 1 0 20.76L310.38 580.05a14.59 14.59 0 0 1-10.38 4.3" transform="translate(-10.65 -10.65)" fill="#4f504f"/><path class="cls-4" d="M300 20.65a9.62 9.62 0 0 1 6.85 2.84l269.66 269.66a9.68 9.68 0 0 1 0 13.7L306.85 576.51a9.68 9.68 0 0 1-13.7 0L23.49 306.85a9.68 9.68 0 0 1 0-13.7L293.15 23.49a9.62 9.62 0 0 1 6.85-2.84m0-10a19.61 19.61 0 0 0-13.92 5.77L16.42 286.08a19.68 19.68 0 0 0 0 27.84l269.66 269.66a19.68 19.68 0 0 0 27.84 0l269.66-269.66a19.68 19.68 0 0 0 0-27.84L313.92 16.42A19.61 19.61 0 0 0 300 10.65" transform="translate(-10.65 -10.65)"/><path class="cls-4" d="M395.41 342.91H257.52a4.28 4.28 0 0 1-3.48-6.79c5.24-7.29 12.22-20 12.22-36.12s-7-28.83-12.22-36.12a4.28 4.28 0 0 1 3.48-6.79h137.89zm-185.52 0h-49.73a4.28 4.28 0 0 1-3.48-6.79c5.24-7.29 12.22-20 12.22-36.12s-7-28.83-12.22-36.12a4.28 4.28 0 0 1 3.48-6.79h49.73a14.24 14.24 0 0 1 10.2 4.31c5.71 5.85 14.22 18 14.22 38.6s-8.51 32.75-14.22 38.6a14.24 14.24 0 0 1-10.2 4.31m-104.05 0h-10.5a4.29 4.29 0 0 1-3.49-6.79c5.25-7.29 12.23-20 12.23-36.12s-7-28.83-12.23-36.12a4.29 4.29 0 0 1 3.49-6.79h10.5A14.24 14.24 0 0 1 116 261.4c5.72 5.85 14.22 18 14.22 38.6s-8.5 32.75-14.22 38.6a14.24 14.24 0 0 1-10.2 4.31" transform="translate(-10.65 -10.65)"/><path class="cls-4" d="M377.93 396.31l129-92.4a4.81 4.81 0 0 0 0-7.82l-129-92.4a4 4 0 0 0-6.3 3.23v186.16a4 4 0 0 0 6.3 3.23" transform="translate(-10.65 -10.65)"/></g></g></g></svg>