<svg xmlns="http://www.w3.org/2000/svg" viewBox="0 0 578.7 578.7">
  <path d="M289.35 573.7a14.59 14.59 0 0 1-10.38-4.3L9.35 299.73a14.7 14.7 0 0 1 0-20.76L278.97 9.35a14.68 14.68 0 0 1 20.76 0L569.4 278.97a14.7 14.7 0 0 1 0 20.76L299.73 569.4a14.59 14.59 0 0 1-10.38 4.3" fill="#3e833e"/>
  <path d="M289.35 10a9.62 9.62 0 0 1 6.85 2.84L565.86 282.5a9.68 9.68 0 0 1 0 13.7L296.2 565.86a9.68 9.68 0 0 1-13.7 0L12.84 296.2a9.68 9.68 0 0 1 0-13.7L282.5 12.84a9.62 9.62 0 0 1 6.85-2.84m0-10a19.61 19.61 0 0 0-13.92 5.77L5.77 275.43a19.68 19.68 0 0 0 0 27.84l269.66 269.66a19.68 19.68 0 0 0 27.84 0l269.66-269.66a19.68 19.68 0 0 0 0-27.84L303.27 5.77A19.61 19.61 0 0 0 289.35 0" fill="#fff"/>
  <path d="M188.13 177.4c-30.89 21.87-33.23 58.07-33.23 91.79v144.16h80.69a24.93 24.93 0 0 0 24.93-25V272.49c0-21 8.19-49.88 50.2-56.9-15.87-33.52-47.29-39-75.74-39-6.12 0-11.92.26-17 .49-4.29.2-8 .36-11.3.36z" fill="#fff"/>
  <path d="M338.93 374.35l47.91 41.49 47.91-41.49 4.43-3.83 43.48-37.68h-43.48V264.2c0-53-5.71-112.09-118.82-112.09-7.42 0-17.19-.23-28.1-.23-26.72 0-60.3 1.35-83.12 10.64 7 0 17-.86 28.34-.86 39.83 0 96.06 10.56 96.06 105.82v65.34h-42.52l42.52 36.84z" fill="#fff"/>
</svg>
