<svg xmlns="http://www.w3.org/2000/svg" viewBox="0 0 578.7 578.7"><defs><style>.cls-2{clip-path:url(#clip-path)}.cls-4{fill:#fff}</style><clipPath id="clip-path" transform="translate(-10.65 -10.65)"><path fill="none" d="M0 0h600v600H0z"/></clipPath></defs><g id="Layer_2" data-name="Layer 2"><g class="cls-2" id="Layer_1-2" data-name="Layer 1"><g class="cls-2"><path d="M300 584.35a14.59 14.59 0 0 1-10.38-4.3L20 310.38a14.7 14.7 0 0 1 0-20.76L289.62 20a14.68 14.68 0 0 1 20.76 0l269.67 269.62a14.7 14.7 0 0 1 0 20.76L310.38 580.05a14.59 14.59 0 0 1-10.38 4.3" transform="translate(-10.65 -10.65)" fill="#3e833e"/><path class="cls-4" d="M300 20.65a9.62 9.62 0 0 1 6.85 2.84l269.66 269.66a9.68 9.68 0 0 1 0 13.7L306.85 576.51a9.68 9.68 0 0 1-13.7 0L23.49 306.85a9.68 9.68 0 0 1 0-13.7L293.15 23.49a9.62 9.62 0 0 1 6.85-2.84m0-10a19.61 19.61 0 0 0-13.92 5.77L16.42 286.08a19.68 19.68 0 0 0 0 27.84l269.66 269.66a19.68 19.68 0 0 0 27.84 0l269.66-269.66a19.68 19.68 0 0 0 0-27.84L313.92 16.42A19.61 19.61 0 0 0 300 10.65" transform="translate(-10.65 -10.65)"/><path class="cls-4" d="M198.78 188.05c-30.89 21.87-33.23 58.07-33.23 91.79V424h80.69a24.93 24.93 0 0 0 24.93-25V283.14c0-21 8.19-49.88 50.2-56.9-15.87-33.52-47.29-39-75.74-39-6.12 0-11.92.26-17 .49-4.29.2-8 .36-11.3.36z" transform="translate(-10.65 -10.65)"/><path class="cls-4" d="M349.58 385l47.91 41.49L445.4 385l4.43-3.83 43.48-37.68h-43.48v-68.64c0-53-5.71-112.09-118.82-112.09-7.42 0-17.19-.23-28.1-.23-26.72 0-60.3 1.35-83.12 10.64 7 0 17-.86 28.34-.86 39.83 0 96.06 10.56 96.06 105.82v65.34h-42.52l42.52 36.84z" transform="translate(-10.65 -10.65)"/></g></g></g></svg>