<svg xmlns="http://www.w3.org/2000/svg" viewBox="0 0 578.7 578.7"><defs><style>.cls-2{clip-path:url(#clip-path)}.cls-4{fill:#fff}</style><clipPath id="clip-path" transform="translate(-10.65 -10.65)"><path fill="none" d="M0 0h600v600H0z"/></clipPath></defs><g id="Layer_2" data-name="Layer 2"><g class="cls-2" id="Layer_1-2" data-name="Layer 1"><g class="cls-2"><path d="M300 584.35a14.59 14.59 0 0 1-10.38-4.3L20 310.38a14.7 14.7 0 0 1 0-20.76L289.62 20a14.68 14.68 0 0 1 20.76 0l269.67 269.62a14.7 14.7 0 0 1 0 20.76L310.38 580.05a14.59 14.59 0 0 1-10.38 4.3" transform="translate(-10.65 -10.65)" fill="#4b97d2"/><path class="cls-4" d="M300 20.65a9.62 9.62 0 0 1 6.85 2.84l269.66 269.66a9.68 9.68 0 0 1 0 13.7L306.85 576.51a9.68 9.68 0 0 1-13.7 0L23.49 306.85a9.69 9.69 0 0 1 0-13.7L293.15 23.49a9.62 9.62 0 0 1 6.85-2.84m0-10a19.61 19.61 0 0 0-13.92 5.77L16.42 286.08a19.68 19.68 0 0 0 0 27.84l269.66 269.66a19.68 19.68 0 0 0 27.84 0l269.66-269.66a19.68 19.68 0 0 0 0-27.84L313.92 16.42A19.61 19.61 0 0 0 300 10.65" transform="translate(-10.65 -10.65)"/><path class="cls-4" d="M425.46 406s-24.85 6.48-64.5-12.49c-26.24 11.93-50.15 16.52-77 11.93-18.58-3.18-36.43-8.9-54.63-13.91-27.54-7.58-52.71-13.07-55.79-17.79-5.11-7.84-17.33-49.25 3.75-99.85 12.28-29.46 23.54-52.36 25.22-64.41.6-4.27 1.36-36.47 48.74-53.16s78.38-10.91 86.22 4.08 6.8 51.62-2.05 50.78c-13.88-1.31-27.56 5.38-41 4s-28.88-10.78-33-8.25-7.44 18-9.54 28.92c-3.1 16.16 10.9 40.82 11.92 60 6.48-5.61 25.7-15.35 49.08-16.18 21.18-.75 29.31 4.43 44.64 19.77 5.11-4.17 29.69-22.12 71.26-20.42.25 27.11 6 47.63 6 77.46 0 46.2-9.37 49.51-9.37 49.51" transform="translate(-10.65 -10.65)"/></g></g></g></svg>