<svg xmlns="http://www.w3.org/2000/svg" viewBox="0 0 578.7 578.7">
  <path d="M289.35 573.7a14.59 14.59 0 0 1-10.38-4.3L9.35 299.73a14.7 14.7 0 0 1 0-20.76L278.97 9.35a14.68 14.68 0 0 1 20.76 0L569.4 278.97a14.7 14.7 0 0 1 0 20.76L299.73 569.4a14.59 14.59 0 0 1-10.38 4.3" fill="#4b97d2"/>
  <path d="M289.35 10a9.62 9.62 0 0 1 6.85 2.84L565.86 282.5a9.68 9.68 0 0 1 0 13.7L296.2 565.86a9.68 9.68 0 0 1-13.7 0L12.84 296.2a9.69 9.69 0 0 1 0-13.7L282.5 12.84a9.62 9.62 0 0 1 6.85-2.84m0-10a19.61 19.61 0 0 0-13.92 5.77L5.77 275.43a19.68 19.68 0 0 0 0 27.84l269.66 269.66a19.68 19.68 0 0 0 27.84 0l269.66-269.66a19.68 19.68 0 0 0 0-27.84L303.27 5.77A19.61 19.61 0 0 0 289.35 0" fill="#fff"/>
  <path d="M414.81 395.35s-24.85 6.48-64.5-12.49c-26.24 11.93-50.15 16.52-77 11.93-18.58-3.18-36.43-8.9-54.63-13.91-27.54-7.58-52.71-13.07-55.79-17.79-5.11-7.84-17.33-49.25 3.75-99.85 12.28-29.46 23.54-52.36 25.22-64.41.6-4.27 1.36-36.47 48.74-53.16s78.38-10.91 86.22 4.08 6.8 51.62-2.05 50.78c-13.88-1.31-27.56 5.38-41 4s-28.88-10.78-33-8.25-7.44 18-9.54 28.92c-3.1 16.16 10.9 40.82 11.92 60 6.48-5.61 25.7-15.35 49.08-16.18 21.18-.75 29.31 4.43 44.64 19.77 5.11-4.17 29.69-22.12 71.26-20.42.25 27.11 6 47.63 6 77.46 0 46.2-9.37 49.51-9.37 49.51" fill="#fff"/>
</svg>
