<svg xmlns="http://www.w3.org/2000/svg" viewBox="0 0 578.7 578.7"><defs><style>.cls-2{clip-path:url(#clip-path)}.cls-4{fill:#fff}</style><clipPath id="clip-path" transform="translate(-10.65 -10.65)"><path fill="none" d="M0 0h600v600H0z"/></clipPath></defs><g id="Layer_2" data-name="Layer 2"><g class="cls-2" id="Layer_1-2" data-name="Layer 1"><g class="cls-2"><path d="M300 584.35a14.59 14.59 0 0 1-10.38-4.3L20 310.38a14.7 14.7 0 0 1 0-20.76L289.62 20a14.68 14.68 0 0 1 20.76 0l269.67 269.62a14.7 14.7 0 0 1 0 20.76L310.38 580.05a14.59 14.59 0 0 1-10.38 4.3" transform="translate(-10.65 -10.65)" fill="#2e4668"/><path class="cls-4" d="M300 20.65a9.62 9.62 0 0 1 6.85 2.84l269.66 269.66a9.68 9.68 0 0 1 0 13.7L306.85 576.51a9.68 9.68 0 0 1-13.7 0L23.49 306.85a9.69 9.69 0 0 1 0-13.7L293.15 23.49a9.62 9.62 0 0 1 6.85-2.84m0-10a19.61 19.61 0 0 0-13.92 5.77L16.42 286.08a19.68 19.68 0 0 0 0 27.84l269.66 269.66a19.68 19.68 0 0 0 27.84 0l269.66-269.66a19.68 19.68 0 0 0 0-27.84L313.92 16.42A19.61 19.61 0 0 0 300 10.65" transform="translate(-10.65 -10.65)"/><path class="cls-4" d="M424.2 177.56l-81.72 22.5L287 127.72l-39.27 93-90.73-1.11 52.8 66.21-81.2 66.76 104.32 16.58 2.57 87.39 62.2-51.55L348 450.26l.69-76.61 82 11.76-33.06-73.08 74.18-37L392.27 241zm-22.29 101l-39.94 27L383.19 349l-47 .42-10.15 48.35-33.3-29-31.35 25.73-5.39-52.16-52-9.85L242.89 293l-23.42-45.86 45-3.28 32.86-57 34.62 49.42 39.94-15.94-16 36.86zm-44.59 8.9l-21.82 14.73 11.59 23.75-25.67.22-5.54 26.43-18.2-15.84-17.13 14.06-3-28.52-28.41-5.38 21.26-21.57-12.8-25 24.57-1.8 18-31.15 18.91 27 21.83-8.71-8.74 20.14z" transform="translate(-10.65 -10.65)"/></g></g></g></svg>