<svg xmlns="http://www.w3.org/2000/svg" viewBox="0 0 578.7 578.7">
  <path d="M289.35 573.7a14.59 14.59 0 0 1-10.38-4.3L9.35 299.73a14.7 14.7 0 0 1 0-20.76L278.97 9.35a14.68 14.68 0 0 1 20.76 0L569.4 278.97a14.7 14.7 0 0 1 0 20.76L299.73 569.4a14.59 14.59 0 0 1-10.38 4.3" fill="#2e4668"/>
  <path d="M289.35 10a9.62 9.62 0 0 1 6.85 2.84L565.86 282.5a9.68 9.68 0 0 1 0 13.7L296.2 565.86a9.68 9.68 0 0 1-13.7 0L12.84 296.2a9.69 9.69 0 0 1 0-13.7L282.5 12.84a9.62 9.62 0 0 1 6.85-2.84m0-10a19.61 19.61 0 0 0-13.92 5.77L5.77 275.43a19.68 19.68 0 0 0 0 27.84l269.66 269.66a19.68 19.68 0 0 0 27.84 0l269.66-269.66a19.68 19.68 0 0 0 0-27.84L303.27 5.77A19.61 19.61 0 0 0 289.35 0" fill="#fff"/>
  <path d="M413.55 166.91l-81.72 22.5-55.48-72.34-39.27 93-90.73-1.11 52.8 66.21-81.2 66.76 104.32 16.58 2.57 87.39 62.2-51.55 50.31 45.26.69-76.61 82 11.76-33.06-73.08 74.18-37-79.54-34.33zm-22.29 101l-39.94 27 21.22 43.44-47 .42-10.15 48.35-33.3-29-31.35 25.73-5.39-52.16-52-9.85 38.89-39.49-23.42-45.86 45-3.28 32.86-57 34.62 49.42 39.94-15.94-16 36.86zm-44.59 8.9l-21.82 14.73 11.59 23.75-25.67.22-5.54 26.43-18.2-15.84-17.13 14.06-3-28.52-28.41-5.38 21.26-21.57-12.8-25 24.57-1.8 18-31.15 18.91 27 21.83-8.71-8.74 20.14z" fill="#fff"/>
</svg>
