<svg xmlns="http://www.w3.org/2000/svg" viewBox="0 0 578.7 578.7">
  <path d="M289.35 573.7a14.59 14.59 0 0 1-10.38-4.3L9.35 299.73a14.68 14.68 0 0 1 0-20.76L278.97 9.35a14.68 14.68 0 0 1 20.76 0L569.4 278.97a14.68 14.68 0 0 1 0 20.76L299.73 569.4a14.59 14.59 0 0 1-10.38 4.3" fill="#e46225"/>
  <path d="M289.35 10a9.62 9.62 0 0 1 6.85 2.84L565.86 282.5a9.69 9.69 0 0 1 0 13.7L296.2 565.86a9.68 9.68 0 0 1-13.7 0L12.84 296.2a9.69 9.69 0 0 1 0-13.7L282.5 12.84a9.62 9.62 0 0 1 6.85-2.84m0-10a19.61 19.61 0 0 0-13.92 5.77L5.77 275.43a19.68 19.68 0 0 0 0 27.84l269.66 269.66a19.68 19.68 0 0 0 27.84 0l269.66-269.66a19.68 19.68 0 0 0 0-27.84L303.27 5.77A19.61 19.61 0 0 0 289.35 0" fill="#fff"/>
  <path d="M331.19 304.51c-20.45-28.3-32.13-57.67-36.49-69.93a2.12 2.12 0 0 0-4 0c-4.36 12.26-16 41.63-36.48 69.93-26.75 37-40.31 55-40.31 86.12a78.79 78.79 0 1 0 157.58 0c0-31.15-13.56-49.11-40.31-86.12" fill="#fff"/>
  <path d="M387.12 265.49c-4.74 13.86-7.69 27-5.88 35.09 7.24 32.6-9.58 38.94-9.75 39.28-6.76-12.15-15.94-24.84-27.32-40.59l-2-2.72c-19.6-27.13-30.8-55.56-34.7-66.52a15.7 15.7 0 0 0-29.58 0c-3.9 11-15.1 39.39-34.7 66.52l-2 2.72c-16 22.15-27.67 38.28-34.34 55.3-8.26-4.83-17.94-15-19.26-31.58-1.17-14.78 2.86-34.73 17-58.41 15.39-25.81 12.22-54.34-11.55-72.9 16.3-8.61 31.29 3 36.22 11.32 8.83 14.94 20.5 13.95 26.49 6.34 10.87-13.82-7.33-27.55-9.45-49a52.42 52.42 0 0 1 27.66-51c-8.24 26.25 4.23 44.58 21.42 52.28 13.13 5.89 34.68-8.11 29-18.11 26.17 15.23 20.59 38.71 17.94 48.11-3.09 10.95-6.77 27.33 2.28 34s27 2.7 29.36-18.25c0 0 27.4 16.53 13.13 58.19" fill="#fff"/>
</svg>
