<svg fill="currentColor" xmlns="http://www.w3.org/2000/svg" viewBox="0 0 256.53 232.56">
  <path d="M159.27 152.63s4.75 43.26 5.75 63.93c6.92 1.33 16.25 4.67 16.92 9.33 5.33 2.08 9.75.93 11.33 0 2.25-15.41-6-54.66 6.67-70.66s44.66-23.34 52.66-42.34c7.43-17.64-1.23-56.26 3.89-72.9a.9.9 0 0 0-1.49-.9c-17.78 17-18.39 49.48-24.4 56.14-9.25 10.25-46.25 17.58-64 37-6 6.61-7.33 20.37-7.33 20.37M127.39.75c-5 31.4-29.13 186.92-24.79 215.81 9.09 1.58 14 16 25.67 16s16.58-14.42 25.67-16c4.33-28.89-19.82-184.41-24.79-215.81a.89.89 0 0 0-1.76 0M97.27 152.63s-4.75 43.26-5.75 63.93c-6.92 1.33-16.25 4.67-16.92 9.33-5.33 2.08-9.75.93-11.33 0-2.25-15.41 6-54.61-6.67-70.61s-44.66-23.34-52.66-42.34C-3.49 95.28 5.17 56.63.05 39.99a.9.9 0 0 1 1.49-.9c17.78 17 18.39 49.48 24.4 56.14 9.25 10.25 46.25 17.58 64 37 6 6.61 7.33 20.37 7.33 20.37"/>
</svg>
