<svg xmlns="http://www.w3.org/2000/svg" viewBox="0 0 218.49 218.49"><defs><style>.cls-2{clip-path:url(#clip-path)}</style><clipPath id="clip-path" transform="translate(-40.76 -40.76)"><path fill="none" d="M0 0h300v300H0z"/></clipPath></defs><g id="Layer_2" data-name="Layer 2"><g class="cls-2" id="Layer_1-2" data-name="Layer 1"><g class="cls-2"><path d="M150 62.48A87.52 87.52 0 1 0 237.53 150 87.63 87.63 0 0 0 150 62.48m4.19 148.73a32.69 32.69 0 1 0-44.78-44 40.76 40.76 0 1 1 44.78 44m-37.41-28.48a21.39 21.39 0 1 1 21.39 21.38 21.41 21.41 0 0 1-21.39-21.38M150 118.56a52 52 0 0 0-22.12 99.18 59.92 59.92 0 1 1 69.34-68.93A52.1 52.1 0 0 0 150 118.56m15.11 106.13a71.25 71.25 0 1 0-82-111.13 76.19 76.19 0 1 1 82 111.13" transform="translate(-40.76 -40.76)"/><path d="M150 40.76A109.24 109.24 0 1 0 259.24 150 109.36 109.36 0 0 0 150 40.76m0 207.16A97.92 97.92 0 1 1 247.92 150 98 98 0 0 1 150 247.92" transform="translate(-40.76 -40.76)"/></g></g></g></svg>