<svg xmlns="http://www.w3.org/2000/svg" viewBox="0 0 218.49 218.49">
  <path d="M109.24 21.72a87.52 87.52 0 1 0 87.53 87.52 87.63 87.63 0 0 0-87.53-87.52m4.19 148.73a32.69 32.69 0 1 0-44.78-44 40.76 40.76 0 1 1 44.78 44m-37.41-28.48a21.39 21.39 0 1 1 21.39 21.38 21.41 21.41 0 0 1-21.39-21.38m33.22-64.17a52 52 0 0 0-22.12 99.18 59.92 59.92 0 1 1 69.34-68.93 52.1 52.1 0 0 0-47.22-30.25m15.11 106.13a71.25 71.25 0 1 0-82-111.13 76.19 76.19 0 1 1 82 111.13"/>
  <path d="M109.24 0a109.24 109.24 0 1 0 109.24 109.24A109.36 109.36 0 0 0 109.24 0m0 207.16a97.92 97.92 0 1 1 97.92-97.92 98 98 0 0 1-97.92 97.92"/>
</svg>
