<svg fill="currentColor" xmlns="http://www.w3.org/2000/svg" viewBox="-63.905 0 267.36 267.36">
  <path d="M139.52 80.04c.5-2.5-7-6-8.5-8.5s5-15.5 2-21.5-4-15.44-11-26c-17.2-26-48-24-52.25-24s-35-2-52.25 24c-7 10.56-8 20-11 26s3.5 19 2 21.5-9 6-8.5 8.5 10.5 14.5 11 18.5-2.5 14.75.5 23c11.5-11 18.66-15.51 21-18.5-2.25-3-4-5-2.5-9.5s4.89-11.37 6.49-12.5c3.11-2.22 22.51 4.06 22.51 6 0 6-10 12.5-24 24.5s-31.5 27-31 30 29.5 60.25 28.5 69.25-6.5 26-6.5 26 11 15.5 13.5 14 2-3 .5-7.5-5-11.5-5-14 9-14.5 9-14.5-2.25-14.11-2.74-16.63-3.26-5.37-4.76-8.87-17.5-47.75-17.5-47.75l16.5-11s4.5 6.5 8.5 8.5-4.5 22.25-4.5 24.25 19.5 41.5 19 44.5-9.5 33.5-9 37 8.52 9.5 9 12 2.49 11.5 5 10.5 3.79-5.85.37-13.5c-2.35-5.27-5.87-7.5-5.37-12.5s11-25 9-34-14.18-34.39-14.18-37.79 3.77-22.37 5-25.39c1.35-3.45 5.13-8.6 6.48-10.16 2.08-2.41 5 2.34 5 2.34s2.92-4.75 5-2.34c1.35 1.56 5.12 6.71 6.47 10.16 1.19 3 4.95 22 4.95 25.39s-12.17 28.79-14.17 37.79 8.5 29 9 34-3 7.23-5.37 12.5c-3.42 7.65-2.13 12.5.37 13.5s4.5-8 5-10.5 8.51-8.5 9-12-8.5-34-9-37 19-42.5 19-44.5-8.5-22.25-4.5-24.25 8.5-8.5 8.5-8.5l16.5 11s-16 44.25-17.5 47.75-4.27 6.37-4.77 8.87-2.73 16.63-2.73 16.63 9 12 9 14.5-3.5 9.5-5 14-2 6 .5 7.5 13.5-14 13.5-14-5.5-17-6.5-26 28-66.25 28.5-69.25-17-18-31-30-24-17.5-24-24.5c0-1.94 19.4-8.22 22.51-6 1.6 1.13 5 8 6.49 12.5s-.25 6.5-2.5 9.5c2.34 3 9.5 7.5 21 18.5 3-8.25 0-19 .5-23s10.5-16 11-18.5m-58.92 36.75c-1.5 3-5.33 4.25-10.83 4.25s-9.33-1.25-10.83-4.25 5.75-16.75 10.83-16.75 12.33 13.75 10.83 16.75"/>
</svg>
