<svg xmlns="http://www.w3.org/2000/svg" viewBox="0 0 181.48 228.45">
  <path d="M24.32 92.05L.04 173.87a.85.85 0 0 0 1 1.08l23.7-4.08a.85.85 0 0 1 1 .66l10.17 48.17a.85.85 0 0 0 1.67-.12l4.47-67.81a.85.85 0 0 0-1-.89l-21.5 3.34a.84.84 0 0 1-1-.94l7.38-60.9a.84.84 0 0 0-1.64-.34"/>
  <path d="M147.63.22L37.74 113.14a.85.85 0 0 0 .61 1.45h62.05a.85.85 0 0 1 .76 1.23L46.3 227.22a.852.852 0 0 0 1.38 1L176.24 91.46a.85.85 0 0 0-.57-1.43l-67.48-4.53a.85.85 0 0 1-.7-1.23l41.51-83a.85.85 0 0 0-1.37-1m32.62 141.95l-65.83 31.26a.85.85 0 0 0-.15 1.45l14.29 10.92a.85.85 0 0 1-.06 1.39L68 226.52a.85.85 0 0 0 .8 1.5l92.88-40.39a.86.86 0 0 0 .13-1.5l-16.37-10.8a.85.85 0 0 1-.08-1.37l35.81-30.32a.85.85 0 0 0-.92-1.42"/>
</svg>
