<svg fill="currentColor" xmlns="http://www.w3.org/2000/svg" viewBox="0 0 259.44 228.45">
  <path d="M73.72 228.44s21-12.61 29.44-29.43 5.78-24.71 5.78-24.71 15.24 0 17.61-15.77c7.62 6.31 18.92 8.15 26.81 3.42 6.57 4.73 26.87 4.34 33.64-7.1 7.62-12.88 3.25-19.71 1.84-22.87 4.47 1.32 7.89.53 12.88-1.57 5 2.89 24.91 10.53 41-.79 7.1-5 13.41-13.14 13.41-23.13 7.88-11 1.31-43.9-14.72-49.94 0-6.83-21.29-23.92-33.12-23.66-4.2-7.36-13.67-16.29-25.76-16.29-9.72-10.52-27.59-15.51-43.63-13.14-12.09-6.05-23.39-2.9-30.49-.15A42.15 42.15 0 0 0 81.6 5.03C65.83 7.4 56.9 12.66 53.22 19.75c-18.95 7.62-32.61 21.82-33.14 38.38C9.57 67.59 6.41 77.84 8.51 85.46c-8.67 8.15-12.09 21.82-3.67 28.81-3.16 15.87 7.35 25.86 21 26.39-27.58 18.92 23.68 54.67 54.96 52.56.52 6.58-.79 24.71-7.1 35.22"/>
</svg>
