<svg xmlns="http://www.w3.org/2000/svg" viewBox="0 0 199.61 197.74"><defs><clipPath id="a" transform="translate(-50.19 -51.13)"><path fill="none" d="M0 0h300v300H0z"/></clipPath></defs><g data-name="Layer 2"><g data-name="Layer 1" clip-path="url(#a)"><path d="M199.62 151.43L182.9 16.34a3.55 3.55 0 0 0-1.28-2.34C177.1 10.32 158.09-2.18 110.73.33 70.81 2.44 52.81 17.74 48.12 22.42a3.55 3.55 0 0 0-1 3.1l18 107.85c-10.29-3.45-23.71-2.6-36.59 3.32-21.75 10-33.65 30.56-26.58 45.92s30.42 19.73 52.16 9.73c18.67-8.58 30-24.95 28.43-39.14l.19.22-15.42-86.33s12.7-13.36 51.15-16.62 52.78 3.26 52.78 3.26l9.87 77.34c-10.19-3.15-23.26-2.19-35.81 3.58-21.75 10-33.65 30.56-26.58 45.92s30.42 19.73 52.16 9.73c18.67-8.58 30-24.94 28.43-39.13z" fill="#231f20"/></g></g></svg>