<svg xmlns="http://www.w3.org/2000/svg" viewBox="0 0 224.5 229.38">
  <path d="M131.75 181.5h-39a25.86 25.86 0 0 0-16.86 6.57l-9.52 8.16v24.86a136.14 136.14 0 0 0 45.8 8.29h.16a136 136 0 0 0 45.79-8.29v-24.86l-9.51-8.16a25.86 25.86 0 0 0-16.86-6.57"/>
  <path d="M214.48 122s8.59-57.09.72-68.14c1.47-8 1.63-21.36-1.53-28.19-4.51-2.5-20.67 5.5-29 9.64-3.8-7.81-10.3-18.81-16.46-24.31-8.17.17-24.17 9-32.66 13.56-6-5.86-15.55-21.29-23.18-24.49V0h-.16v.07c-7.63 3.2-17.26 18.68-23.18 24.49C80.54 20 64.54 11.17 56.37 11c-6.16 5.5-12.66 16.5-16.46 24.31-8.37-4.14-24.53-12.14-29-9.64-3.16 6.83-3 20.16-1.53 28.19-7.87 11 .72 68.14.72 68.14l-10 11.05 12.64 22.76c2.55 4.6 33.52 19.8 47.33 26.41a3.72 3.72 0 0 0 5.26-4l-1.48-8.07a27.15 27.15 0 0 1 2-16.05l11-24.36c1.41-4.92-1.06-10.27-5.1-11l-31.52-5.9V95.48a6.15 6.15 0 0 1 7.66-6l44.64 11.31c3.67 0 6.26 4.61 5.11 9.09l-6.89 35.9c-1.63 6.33 2 12.86 7.23 12.86h28.86c5.19 0 8.85-6.53 7.23-12.86l-6.89-35.9c-1.15-4.48 1.44-9.09 5.11-9.09l44.64-11.31a6.15 6.15 0 0 1 7.66 6v17.31l-31.68 5.9c-4 .75-6.51 6.1-5.1 11l11 24.33a27.11 27.11 0 0 1 1.95 16.11l-1.48 8a3.72 3.72 0 0 0 5.26 4c13.82-6.62 44.77-21.81 47.32-26.41l12.64-22.76z"/>
</svg>
