<svg xmlns="http://www.w3.org/2000/svg" viewBox="0 0 262.72 137.97"><defs><clipPath id="a" transform="translate(-18.64 -81.02)"><path fill="none" d="M0 0h300v300H0z"/></clipPath></defs><g data-name="Layer 2"><g data-name="Layer 1" clip-path="url(#a)"><path d="M6.49 61.55l174.87-49.82 23.54 82.62-38.46-19.74 7.85 28.46-38.6-20 8 28.73-38.92-20.82 8.27 29.57-38.68-20.01 8.07 28.7-38.94-19.6 8.32 28.34L13.1 118.3.36 72.55a8.94 8.94 0 0 1 6.16-11m255.09-11.5l-8.54-29.62a28.3 28.3 0 0 0-35-19.32l-26.52 7.65 7.19 25.49 26.67-7.69a1.76 1.76 0 0 1 .49-.07 1.82 1.82 0 0 1 .85.23 1.74 1.74 0 0 1 .85 1l8.54 29.63a1.81 1.81 0 0 1-1.21 2.18l-26.87 7.75 7.19 25.49 27-7.79a28.3 28.3 0 0 0 19.32-35" fill="#231f20"/></g></g></svg>