<svg xmlns="http://www.w3.org/2000/svg" viewBox="0 0 221.64 237.19">
  <path d="M58.68 123.22l4.14 30.51a3.93 3.93 0 0 1-.76 2.92l-14.67 19.31a24.87 24.87 0 0 0-22.26 43.19 28.05 28.05 0 0 1 .69-16.08 15.41 15.41 0 0 1 2.83-12.42c.13-.18.28-.35.42-.52.35.1.69.21 1 .33a15.71 15.71 0 0 1 3 1.48c.47-.43.94-.85 1.43-1.25a28.11 28.11 0 0 1 5-3.22c.68-.34 1.36-.66 2.05-.95l.69-1.9a14.78 14.78 0 0 1 3.27.64 27.85 27.85 0 0 1 11.36-.38l1 .19c.48.11 1 .21 1.44.34.65.18 1.29.39 1.93.61s1.08.4 1.61.62l14.13-18.59a3.94 3.94 0 0 1 2.61-1.52l2.27-.31 2-19.44-25.37 35.58a24.57 24.57 0 0 0-2.47-2.17 22.75 22.75 0 0 0-2.74-1.81l69-85.59a.18.18 0 1 1 .28.21l-29.74 41.5 40.94-20.36 39.52-86.32a1.14 1.14 0 0 0-.77-1.6 1.13 1.13 0 0 0-1 .24L59.65 120.7a2.79 2.79 0 0 0-1 2.52"/>
  <path d="M46.17 172.6l1-1.26 2.76-7.57a3.91 3.91 0 0 1 2-2.23l4.11-1.94 3.64-4.79a.92.92 0 0 0 .18-.7l-4.04-29.74-15.85 47.75a27.69 27.69 0 0 1 6.2.48"/>
  <path d="M32.02 154.31a3.93 3.93 0 0 1 .13 3l-7.22 19.87a27.56 27.56 0 0 1 8.23-4l37.49-94.74a.18.18 0 0 1 .34.12l-13.17 39.77L88.33 92.6l11.75-91.29a1.16 1.16 0 0 0-2.12-.77L19.17 123.72a2.8 2.8 0 0 0-.17 2.69zm188.8-79.81a1.17 1.17 0 0 0-.81.09L89.04 139.71a2.82 2.82 0 0 0-1.54 2.22l-3.17 30.67a4 4 0 0 1-1.44 2.66L64.06 190.5a24.87 24.87 0 1 0 11.89 14.64l18.87-15.29a4 4 0 0 1 2.9-.86l30.62 3.18a2.79 2.79 0 0 0 2.48-1l90.61-114.78a1.16 1.16 0 0 0-.62-1.84M56.19 197.44a15.38 15.38 0 0 1-8 16.18l.06-.16a24.74 24.74 0 0 0 .28-16.13 15.64 15.64 0 0 1 7.66.11m-16.08 5.22a15.3 15.3 0 0 1-3.21 12 15.43 15.43 0 0 1 3.21-12m21.76 21.65a15.42 15.42 0 0 1-18.84.46 24.84 24.84 0 0 0 22.4-20.26 15.42 15.42 0 0 1-3.56 19.8m94.81-96.64l-83.33 71.67a24.6 24.6 0 0 0-4.14-5.1l87.24-66.85a.181.181 0 0 1 .23.28"/>
  <path d="M24.11 222.17a28 28 0 0 1-2.48-2.12 16.6 16.6 0 0 1-2-.57 15.43 15.43 0 0 1-9.23-19.78 15.12 15.12 0 0 1 3.3-5.34 27.79 27.79 0 0 1 5.12-11.24 27.48 27.48 0 0 1 2.4-2.75 24.87 24.87 0 0 0-4.81 48 24.58 24.58 0 0 0 13.66.95 27.84 27.84 0 0 1-3.21-5.3 28 28 0 0 1-2.72-1.82"/>
</svg>
