<svg fill="currentColor" xmlns="http://www.w3.org/2000/svg" viewBox="0 0 249.88 249.88">
  <path d="M249.88 157.53c-31.69 7.25-67-.9-92.35-21.72 36.22-11.78 64.28-41.65 78.77-76.06-17.2 27.17-48 46.18-80.58 49.8 16.3-34.4 17.2-75.15 1.81-109.55 7.25 31.69-.9 67-21.73 92.35-11.77-36.22-41.64-64.28-76.05-78.77 27.16 17.2 46.18 48 49.8 80.58C75.15 77.86 34.4 76.96 0 92.35c31.69-7.24 67 .9 92.35 21.73-36.22 11.77-64.28 41.64-78.77 76.05 17.2-27.16 48-46.18 80.58-49.8-16.3 34.41-17.2 75.15-1.81 109.55-7.25-31.69.9-67 21.73-92.35 11.76 36.22 41.64 64.28 76.05 78.77-27.17-17.2-46.18-48-49.8-80.58 34.4 16.3 75.15 17.2 109.55 1.81m-124.94-20.82c-2.72 10.86-.91 22.63 5.43 31.69-9.05-9.06-15.39-21.73-13.58-35.31-1.81 1.81-3.62 2.72-6.34 4.53-7.24 5.43-10.86 12.67-11.77 21.72 0-12.67 4.53-26.25 14.49-34.4-10.86-2.72-22.63-.91-31.69 5.43 9.06-9.05 21.73-15.39 35.31-13.58-1.81-1.81-2.71-3.62-4.53-6.34-5.43-7.24-12.67-10.86-21.72-11.76 12.67 0 26.25 4.52 34.4 14.48a39.09 39.09 0 0 0-5.43-31.69c9.05 9.06 15.39 21.73 13.58 35.31 1.81-1.81 3.62-2.71 6.33-4.52 7.25-5.44 10.87-12.68 11.78-21.73 0 12.67-4.53 26.25-14.49 34.4 10.86 2.72 22.63.91 31.69-5.43-9.06 9.05-21.73 15.39-35.31 13.58 1.81 1.81 2.71 3.62 4.52 6.34 5.44 7.24 12.68 10.86 21.73 11.77-12.67 0-26.25-4.53-34.4-14.49"/>
</svg>
