<svg xmlns="http://www.w3.org/2000/svg" viewBox="0 0 256.53 256.53">
  <path d="M205.48 148.96l51.06-20.69-51.06-20.69 33.87-43.44-54.56 7.61 7.61-54.56-43.44 33.87L128.27 0l-20.69 51.06-43.44-33.87 7.61 54.56-54.56-7.61 33.87 43.44L0 128.27l51.06 20.69-33.87 43.44 54.56-7.61-7.61 54.56 43.44-33.87 20.69 51.06 20.69-51.06 43.44 33.87-7.61-54.56 54.56 7.61zm-77.21 42.72a63.41 63.41 0 1 1 63.41-63.41 63.41 63.41 0 0 1-63.41 63.41"/>
  <path d="M168.13 128.27a39.86 39.86 0 1 1-39.86-39.86 39.87 39.87 0 0 1 39.86 39.86"/>
</svg>
