<svg xmlns="http://www.w3.org/2000/svg" viewBox="0 0 256.53 256.53"><defs><style>.cls-2{clip-path:url(#clip-path)}</style><clipPath id="clip-path" transform="translate(-21.73 -21.73)"><path fill="none" d="M0 0h300v300H0z"/></clipPath></defs><g id="Layer_2" data-name="Layer 2"><g class="cls-2" id="Layer_1-2" data-name="Layer 1"><g class="cls-2"><path d="M227.21 170.69L278.27 150l-51.06-20.69 33.87-43.44-54.56 7.61 7.61-54.56-43.44 33.87L150 21.73l-20.69 51.06-43.44-33.87 7.61 54.56-54.56-7.61 33.87 43.44L21.73 150l51.06 20.69-33.87 43.44 54.56-7.61-7.61 54.56 43.44-33.87L150 278.27l20.69-51.06 43.44 33.87-7.61-54.56 54.56 7.61zM150 213.41A63.41 63.41 0 1 1 213.41 150 63.41 63.41 0 0 1 150 213.41" transform="translate(-21.73 -21.73)"/><path d="M189.86 150A39.86 39.86 0 1 1 150 110.14 39.87 39.87 0 0 1 189.86 150" transform="translate(-21.73 -21.73)"/></g></g></g></svg>