<svg fill="currentColor" xmlns="http://www.w3.org/2000/svg" viewBox="-69.085 0 279.06 279.06">
  <path d="M76.77 279.06H64.11v-144a4.33 4.33 0 0 1 4.33-4.34h4a4.33 4.33 0 0 1 4.33 4.34zM70.99 80.47l7 45.28a.56.56 0 0 0 .55.48H89.7a.56.56 0 0 0 .55-.65L70.99.47a.56.56 0 0 0-1.1 0L50.67 125.58a.56.56 0 0 0 .55.65h11.16a.56.56 0 0 0 .55-.48l7-45.28a.56.56 0 0 1 1.1 0M26.11 273.06H13.44V153.53a4.33 4.33 0 0 1 4.33-4.34h4a4.34 4.34 0 0 1 4.34 4.34zM20.32 98.97l7 45.28a.56.56 0 0 0 .55.48h11.16a.55.55 0 0 0 .55-.65L20.32 18.97a.56.56 0 0 0-1.1 0L0 144.08a.56.56 0 0 0 .55.65h11.17a.58.58 0 0 0 .55-.48l7-45.28a.56.56 0 0 1 1.1 0m107.07 174.09h-12.67V153.53a4.34 4.34 0 0 1 4.34-4.34h4a4.33 4.33 0 0 1 4.33 4.34zm-5.78-174.09l6.95 45.28a.57.57 0 0 0 .55.48h11.17a.56.56 0 0 0 .55-.65L121.66 18.97a.56.56 0 0 0-1.1 0l-19.22 125.11a.55.55 0 0 0 .55.65h11.16a.57.57 0 0 0 .55-.48l7-45.28a.56.56 0 0 1 1.1 0"/>
</svg>
