<svg xmlns="http://www.w3.org/2000/svg" viewBox="0 0 249.88 249.88">
  <path d="M247.31 138l-27.92-13a94 94 0 0 0-2-19.23l24.7-18.44c1.9-1.42 2.25-4.49.82-7.14l-15.8-29.28c-1.43-2.65-4.19-4-6.42-3.23l-29 10.53a93.27 93.27 0 0 0-15-12.21l4.43-30.5c.34-2.34-1.58-4.77-4.47-5.63L144.77.34c-2.89-.86-5.82.11-6.83 2.26l-13 27.89a94.17 94.17 0 0 0-19.24 2L87.27 7.79c-1.42-1.9-4.49-2.25-7.14-.82L50.88 22.75c-2.65 1.43-4 4.19-3.23 6.42l10.53 29a93.79 93.79 0 0 0-12.24 14.96l-30.5-4.43c-2.34-.34-4.76 1.58-5.63 4.47L.28 105.05c-.86 2.89.11 5.82 2.26 6.83l27.92 13a94 94 0 0 0 2 19.23l-24.7 18.44c-1.9 1.42-2.25 4.49-.82 7.14l15.8 29.28c1.43 2.65 4.19 4 6.42 3.23l29-10.53a94.33 94.33 0 0 0 15 12.21l-4.43 30.5c-.34 2.34 1.58 4.76 4.47 5.63l31.88 9.53c2.89.86 5.82-.11 6.83-2.26l13-27.92a94 94 0 0 0 19.23-2l18.44 24.7c1.42 1.9 4.49 2.25 7.14.82l29.28-15.8c2.65-1.43 4-4.19 3.23-6.42l-10.53-29a93.27 93.27 0 0 0 12.21-15l30.5 4.43c2.34.34 4.76-1.58 5.63-4.47l9.53-31.88c.86-2.89-.11-5.82-2.26-6.83m-46.44 9.64a79.25 79.25 0 1 1-53.23-98.54 79.33 79.33 0 0 1 53.23 98.63"/>
  <path d="M144.09 60.87a66.87 66.87 0 1 0 44.92 83.22 66.94 66.94 0 0 0-44.92-83.22m23.74 76.89a44.76 44.76 0 1 1-30.07-55.71 44.76 44.76 0 0 1 30.07 55.71"/>
</svg>
