<svg fill="currentColor" xmlns="http://www.w3.org/2000/svg" viewBox="0 0 243.38 211.53">
  <path d="M123.69 210.27l56.12-97.2a2.64 2.64 0 0 0-2.29-4H65.32a2.64 2.64 0 0 0-2.29 4l56.12 97.2a2.64 2.64 0 0 0 4.57 0l56.12-97.2a2.64 2.64 0 0 0-2.29-4H65.32a2.64 2.64 0 0 0-2.29 4l56.12 97.2a2.64 2.64 0 0 0 4.57 0M119.91 27.5L82.45 92.38a1.76 1.76 0 0 0 1.52 2.64h74.92a1.76 1.76 0 0 0 1.53-2.64L122.96 27.5a1.76 1.76 0 0 0-3.05 0L82.45 92.38a1.76 1.76 0 0 0 1.52 2.64h74.92a1.76 1.76 0 0 0 1.53-2.64L122.96 27.5a1.76 1.76 0 0 0-3.05 0m66.99 73.66l56.12-97.2a2.64 2.64 0 0 0-2.28-4H128.5a2.64 2.64 0 0 0-2.29 4l56.12 97.2a2.64 2.64 0 0 0 4.57 0l56.12-97.2a2.64 2.64 0 0 0-2.28-4H128.5a2.64 2.64 0 0 0-2.29 4l56.12 97.2a2.64 2.64 0 0 0 4.57 0m-125.85 0l56.12-97.2a2.64 2.64 0 0 0-2.29-4H2.69a2.64 2.64 0 0 0-2.28 4l56.12 97.2a2.64 2.64 0 0 0 4.57 0l56.12-97.2a2.64 2.64 0 0 0-2.29-4H2.69a2.64 2.64 0 0 0-2.28 4l56.12 97.2a2.64 2.64 0 0 0 4.57 0"/>
</svg>
