<svg fill="currentColor" xmlns="http://www.w3.org/2000/svg" viewBox="0 0 249.88 229">
  <path d="M62.4.2c-3.18-2.7-19.14 21.64-16.64 35.78-.26 5 14.14 22.46 20.8 21.63s15.82-7.59 18.32-14.24S75.79 11.5 62.4.2m125.37 0c3.17-2.7 19.17 21.64 16.64 35.78.26 5-14.15 22.46-20.8 21.63s-15.83-7.59-18.32-14.24S174.37 11.5 187.77.2"/>
  <path d="M248.77 86.5c-8.6 12.48-27.18 16.64-27.18 16.64s6.38-11.09 15.53-28c5-19.69-8-36-14.14-39.38-25.79 40.77-79.59 61.57-82.37 58.52s17.76-39 18.58-40.49-11.92-14.7-11.92-14.7-17.75-17-22.19-17-22.47 16.92-22.47 16.92-12.75 13.24-11.92 14.7 21.35 37.44 18.58 40.49-56.58-17.7-82.33-58.5c-6.1 3.33-19.13 19.69-14.14 39.38 9.15 16.92 15.53 28 15.53 28S9.71 98.93 1.11 86.5c-2.5 13.87 0 35.22 0 35.22s12.76 24.41 38 26.07c-15 9.71-26.07 18-25.79 20s31.34 15 53.53 11.09c-2.78 6.38-10 13-9.71 13.87s18.3 8.6 24.4 9.15c3.69 6.38 13.87 23.58 16.92 24.13-1.66-8.6-3.05-15.53-.55-23.3-3.89-11.09-16-32.48-19.42-40.49-8.88-1.74-22.91-4.74-26.63-12-2.92-5.74 12.72-15.53 13.5-15.53 2.59 0 11.33 12.07 18.45 18.35 9.47-11.94 29.26-29.61 41-29.88 11.69 0 31.73 17.88 41.27 29.91 7.12-6.28 15.87-18.35 18.45-18.35.78 0 16.44 9.79 13.5 15.53-3.72 7.26-17.75 10.26-26.62 11.92-3.41 8-15.53 29.4-19.42 40.49 2.5 7.77 1.11 14.7-.55 23.3 3-.56 13.23-17.75 16.92-24.13 6.1-.55 24.12-8.32 24.4-9.15s-6.93-7.49-9.71-13.87c22.19 3.88 53.25-9.15 53.53-11.09s-10.82-10.26-25.79-20c25.23-1.66 38-26.07 38-26.07s2.5-21.35 0-35.22"/>
  <path d="M152.27 175.5s7.21-12.76 6.65-14.7-17.75-21.63-33.84-21.63-33.28 19.69-33.84 21.63 6.7 14.7 6.7 14.7 13.59-3.61 17.75-3.06c-3.33 5.55-13 8.88-15 9.43.83 4.16 5.27 13 5.27 13a46.13 46.13 0 0 1 38.29 0s4.43-8.88 5.27-13c-1.95-.55-11.65-3.88-15-9.43 4.16-.55 17.75 3.06 17.75 3.06m-10.25 28.82s-5.84-4.44-16.94-4.44-16.93 4.44-16.93 4.44-2.23 7.21 0 12.2c4.17-3.33 7.78-5 10.55-2.22s4.16 8.6 0 11.65c2.77 2.5 3.34 3.05 6.38 3.05s3.62-.55 6.38-3.05c-4.16-3.05-2.76-8.87 0-11.65s6.39-1.11 10.56 2.22c2.23-5 0-12.2 0-12.2"/>
</svg>
