<svg xmlns="http://www.w3.org/2000/svg" viewBox="0 0 560 560"><defs><style>.cls-2{clip-path:url(#clip-path)}.cls-4{fill:#fff}</style><clipPath id="clip-path" transform="translate(-20 -20)"><path fill="none" d="M0 0h600v600H0z"/></clipPath></defs><g id="Layer_2" data-name="Layer 2"><g class="cls-2" id="Layer_1-2" data-name="Layer 1"><g class="cls-2"><path d="M300 572a272 272 0 0 1-192.33-464.33 272 272 0 1 1 384.66 384.66A270.19 270.19 0 0 1 300 572" transform="translate(-20 -20)" fill="#9ab0b7"/><path class="cls-4" d="M300 36c145.8 0 264 118.2 264 264S445.8 564 300 564 36 445.8 36 300 154.2 36 300 36m0-16a280.07 280.07 0 0 0-109 538A280.07 280.07 0 0 0 409 42a278.34 278.34 0 0 0-109-22" transform="translate(-20 -20)"/><path class="cls-4" d="M78.64 327.22a1.26 1.26 0 0 1 .08-2.48c12.51-1.67 42.56-2.76 81.66 15.67 52 24.5 136 79.23 185.7 76.26 42.05-2.51 62.53-18.32 60.3-37.76-1.75-15.25-18.75-25.25-31.75-20.25s-18.75 16.75-17.75 27.75c-11-8.5-7-25-3.5-29.5s22.69-30.67 55.5-8c27.5 19 15.88 56 0 70-10.5 9.25-42 32.5-101.5 17.5s-123.65-69.34-157.5-85.5c-31.15-14.91-44.58-18.09-71.24-23.69" transform="translate(-20 -20)"/><path class="cls-4" d="M168.05 320.63a.92.92 0 0 1 .7-1.69c22.24 6.79 78.78 19.58 119.63 9 59.67-15.5 70.5-51 130-79.84 37.95-18.39 87.5-5.16 101 31.84s-21.67 62.5-49.5 61c-23-1.24-38.49-14.36-41.5-25-3.33-11.82 1.33-27.15 15-31.48-4 18 5.79 37.68 26 36.5 20-1.17 37.67-26.22 19-45s-42-15.17-56-6.5c-14.93 9.24-50 44-80 58.5-28.79 13.91-71 29.09-114.57 17.5-37.15-9.88-48.55-13.18-69.76-24.78" transform="translate(-20 -20)"/><path class="cls-4" d="M111.68 286.83a1.2 1.2 0 0 1 .48-2.32c17.13.7 65.05-.09 90.22-28.1 31-34.5 23.94-58 51.5-83 19.25-17.44 63.27-23 94.25 3.5 34.5 29.5 16.17 87.08-18.08 104.83-29 15-65.42 10.17-73.67-13.33-9.19-26.17 9.75-49.25 29-49 20.3.26 17.5 20.5 17.5 20.5s-6-10.5-14.25-9.25c-10.45 1.57-19.68 14.67-14.25 27.75 6.75 16.25 35.78 23.44 56.67-1.34 21.5-25.5 16.83-60.16-18.67-72.66-32.81-11.56-52.05 12.64-69.5 45-13.75 25.5-29.25 58-76.5 60.72-34.63 2-48-.75-54.7-3.3" transform="translate(-20 -20)"/></g></g></g></svg>