<svg xmlns="http://www.w3.org/2000/svg" viewBox="0 0 560 560">
  <path d="M280 552A272 272 0 0 1 87.67 87.67a272 272 0 1 1 384.66 384.66A270.19 270.19 0 0 1 280 552" fill="#fff"/>
  <path d="M280 16c145.8 0 264 118.2 264 264S425.8 544 280 544 16 425.8 16 280 134.2 16 280 16m0-16a280.07 280.07 0 0 0-109 538A280.08 280.08 0 0 0 389 22 278.34 278.34 0 0 0 280 0" fill="#fff"/>
  <path d="M280 280S119.86 373.37 51.33 412a263.91 263.91 0 0 1 0-264L280 280" fill="#1f2c35"/>
  <path d="M280 280s.79 185.37 0 264A263.87 263.87 0 0 1 51.37 412L280 280" fill="#eeac1f"/>
  <path d="M280 280s160.93 92 228.67 132A263.89 263.89 0 0 1 280 544z" fill="#89a53d"/>
  <path d="M280 280s160.14-93.37 228.67-132a263.91 263.91 0 0 1 0 264L280 280" fill="#e15426"/>
  <path d="M280 280s-.79-185.37 0-264a263.87 263.87 0 0 1 228.63 132L280 280" fill="#1ac2ec"/>
  <path d="M280 280S119.07 188 51.33 148A263.89 263.89 0 0 1 280 16z" fill="#9ab0b7"/>
</svg>
