<svg xmlns="http://www.w3.org/2000/svg" viewBox="0 0 560 560"><defs><style>.cls-2{clip-path:url(#clip-path)}.cls-3{fill:#fff}</style><clipPath id="clip-path" transform="translate(-20 -20)"><path fill="none" d="M0 0h600v600H0z"/></clipPath></defs><g id="Layer_2" data-name="Layer 2"><g class="cls-2" id="Layer_1-2" data-name="Layer 1"><g class="cls-2"><path class="cls-3" d="M300 572a272 272 0 0 1-192.33-464.33 272 272 0 1 1 384.66 384.66A270.19 270.19 0 0 1 300 572" transform="translate(-20 -20)"/><path class="cls-3" d="M300 36c145.8 0 264 118.2 264 264S445.8 564 300 564 36 445.8 36 300 154.2 36 300 36m0-16a280.07 280.07 0 0 0-109 538A280.07 280.07 0 0 0 409 42a278.34 278.34 0 0 0-109-22" transform="translate(-20 -20)"/><path d="M300 300S139.86 393.37 71.33 432a263.91 263.91 0 0 1 0-264L300 300" transform="translate(-20 -20)" fill="#1f2c35"/><path d="M300 300s.79 185.37 0 264A263.87 263.87 0 0 1 71.37 432L300 300" transform="translate(-20 -20)" fill="#eeac1f"/><path d="M300 300s160.93 92 228.67 132A263.89 263.89 0 0 1 300 564z" transform="translate(-20 -20)" fill="#89a53d"/><path d="M300 300s160.14-93.37 228.67-132a263.91 263.91 0 0 1 0 264L300 300" transform="translate(-20 -20)" fill="#e15426"/><path d="M300 300s-.79-185.37 0-264a263.87 263.87 0 0 1 228.63 132L300 300" transform="translate(-20 -20)" fill="#1ac2ec"/><path d="M300 300S139.07 208 71.33 168A263.89 263.89 0 0 1 300 36z" transform="translate(-20 -20)" fill="#9ab0b7"/></g></g></g></svg>