<svg id="Layer_1" data-name="Layer 1" xmlns="http://www.w3.org/2000/svg" viewBox="0 0 560.08 560.15"><defs><style>.cls-2{clip-path:url(#clip-path)}.cls-4{fill:#fff}.cls-5{fill:#e26969}</style><clipPath id="clip-path" transform="translate(-.07)"><path fill="none" d="M-20-20h600v600H-20z"/></clipPath></defs><g class="cls-2"><g class="cls-2" id="Layer_1-2" data-name="Layer 1-2"><path d="M280 552C129.78 552 8 430.22 8 280A272 272 0 0 1 87.67 87.67C193.29-19.15 365.51-20.12 472.33 85.51s107.79 277.84 2.16 384.66l-2.16 2.16A270.19 270.19 0 0 1 280 552" transform="translate(-.07)" fill="#eeac1f"/><path class="cls-4" d="M280 16c145.8 0 264 118.2 264 264S425.8 544 280 544 16 425.8 16 280 134.2 16 280 16m0-16C125.32.08 0 125.53.07 280.21A280.07 280.07 0 0 0 171 538c142.49 60.2 306.8-6.51 367-149S531.49 82.2 389 22A278.39 278.39 0 0 0 280 0" transform="translate(-.07)"/><path class="cls-4" d="M499 274.64l-93.18-46.76 32.83-98.94a6 6 0 0 0-7.59-7.59l-98.94 32.83L285.36 61a6 6 0 0 0-10.72 0l-46.76 93.18-98.94-32.83a6 6 0 0 0-7.59 7.59l32.83 98.95L61 274.64a6 6 0 0 0 0 10.72l93.18 46.75-32.83 98.95a6 6 0 0 0 7.59 7.59l98.94-32.83L274.64 499a6 6 0 0 0 10.72 0l46.75-93.18 98.95 32.83a6.07 6.07 0 0 0 1.89.3 6 6 0 0 0 6-6 6.1 6.1 0 0 0-.31-1.9L405.8 332.1l93.2-46.74a6 6 0 0 0 0-10.72m-89.8-123.78l-17.92 69.73-25.67-12.88 10-23.28-23.28 10-12.87-25.64zm-101.67 62.69l-13.31-33.22 30.3-7.76 15.91 26.9zm-55.06 0l-32.89-14.08 15.94-26.9 30.26 7.76zm-38.92 38.92l-33.22 13.31-7.75-30.28 26.89-15.92zm0 55.06l-14.08 32.89-26.89-15.92 7.75-30.28zm38.92 38.92l13.31 33.22-30.26 7.77-15.94-26.91zm55.06 0l32.9 14.08-15.91 26.91-30.3-7.77zm38.92-38.92l33.22-13.31 7.78 30.28-26.92 15.93zm0-55.06l14.08-32.9 26.92 15.93-7.78 30.28zm-66.4-155.1l36.63 61.94-27.26 9-9.42-23.46-9.42 23.5-27.22-9zm-129.14 53.49l69.68 17.88-12.88 25.65-23.28-10 10 23.28-25.63 12.86zM97.42 280l61.9-36.65 9 27.23-23.47 9.42 23.5 9.42-9 27.23zm53.49 129.15l17.85-69.72 25.63 12.86-10 23.28 23.28-10 12.88 25.66zm129.14 53.49l-36.69-62 27.22-9 9.42 23.5 9.42-23.5 27.26 9zm129.15-53.49l-69.78-17.89 12.87-25.65 23.28 10-10-23.28 25.67-12.88zm-8.51-92.48l-9-27.25 23.5-9.42-23.5-9.42 9-27.25 62 36.67z" transform="translate(-.07)"/></g></g><g class="cls-2"><g class="cls-2" id="Layer_1-2-2" data-name="Layer 1-2"><path class="cls-4" d="M280 555.57C127.77 555.46 4.45 432 4.55 279.74A275.64 275.64 0 0 1 172.73 26.1C313-33.14 474.66 32.5 533.9 172.73s-6.4 301.93-146.63 361.17A273.74 273.74 0 0 1 280 555.57M280 26C139.94 26 26 139.94 26 280s113.94 254 254 254 254-113.94 254-254S420.06 26 280 26" transform="translate(-.07)"/><path class="cls-5" d="M450.47 489.74a7 7 0 0 1-5.14-2L280 322.43 114.67 487.75a7 7 0 0 1-5.14 2c-9.43 0-33.53-18.09-39-31.29-2.91-7-.17-11.23 1.72-13.12L237.57 280 72.25 114.67c-2.09-2.08-5-6.87-1.47-15.51C76.22 86 94.6 69.09 106.67 69.09a11 11 0 0 1 8 3.16L280 237.57 445.33 72.25a11 11 0 0 1 8-3.16c12.07 0 30.45 16.94 35.89 30.07 3.58 8.64.62 13.43-1.47 15.51L322.43 280l165.32 165.33c1.89 1.89 4.63 6.1 1.72 13.12-5.47 13.21-29.57 31.29-39 31.29z" transform="translate(-.07)"/><path class="cls-4" d="M453.33 74.09c13.09 0 39.49 28.45 30.89 37L315.35 280l168.87 168.86c9 9.05-24.85 35.88-33.75 35.88a2.21 2.21 0 0 1-1.61-.52L280 315.36 111.14 484.22a2.21 2.21 0 0 1-1.61.52c-8.91 0-42.8-26.83-33.75-35.88L244.64 280 75.78 111.14c-8.6-8.6 17.8-37 30.89-37a6.08 6.08 0 0 1 4.47 1.69L280 244.65 448.86 75.78a6.08 6.08 0 0 1 4.47-1.69M68.71 118.21L230.5 280 68.71 441.79c-2.23 2.23 47.27 51.73 49.5 49.5L280 329.5l161.79 161.79c2.23 2.23 51.73-47.27 49.5-49.5L329.5 280l161.79-161.79c2.39-2.39-46.48-52.52-49.5-49.5L280 230.5 118.21 68.71c-3-3-51.89 47.11-49.5 49.5" transform="translate(-.07)"/><path class="cls-5" d="M280 16c145.8 0 264 118.2 264 264S425.8 544 280 544 16 425.8 16 280 134.2 16 280 16m0-16C125.32.08 0 125.53.07 280.21A280.07 280.07 0 0 0 171 538c142.49 60.2 306.8-6.51 367-149S531.49 82.2 389 22A278.39 278.39 0 0 0 280 0" transform="translate(-.07)"/></g></g></svg>