<svg id="Layer_1" data-name="Layer 1" xmlns="http://www.w3.org/2000/svg" viewBox="0 0 560.08 560.15"><defs><style>.cls-2{clip-path:url(#clip-path)}.cls-4{fill:#fff}.cls-5{fill:#e26969}</style><clipPath id="clip-path" transform="translate(-.07)"><path fill="none" d="M-20-20h600v600H-20z"/></clipPath></defs><g class="cls-2"><g class="cls-2" id="Layer_1-2" data-name="Layer 1-2"><path d="M280 552C129.78 552 8 430.22 8 280A272 272 0 0 1 87.67 87.67C193.29-19.15 365.51-20.12 472.33 85.51s107.79 277.84 2.16 384.66l-2.16 2.16A270.19 270.19 0 0 1 280 552" transform="translate(-.07)" fill="#1ac2ec"/><path class="cls-4" d="M280 16c145.8 0 264 118.2 264 264S425.8 544 280 544 16 425.8 16 280 134.2 16 280 16m0-16C125.32.08 0 125.53.07 280.21A280.07 280.07 0 0 0 171 538c142.49 60.2 306.8-6.51 367-149S531.49 82.2 389 22A278.39 278.39 0 0 0 280 0" transform="translate(-.07)"/><path class="cls-4" d="M462.66 326.24l-38.13 28L394 335.71 443.45 301a7 7 0 1 0-7.33-11.93 6.2 6.2 0 0 0-.67.47l-54.56 38.21L331.73 298v-35.86l49.13-29.77 54.56 38.22A7 7 0 1 0 444 259.5a5.22 5.22 0 0 0-.54-.38L394 224.45l30.58-18.53 38.13 28a7 7 0 1 0 8.29-11.3l-33.46-24.55 29.33-17.77a7 7 0 0 0-7-12.13l-30.06 16.47-4.53-41.2a7 7 0 1 0-14 1.56l5.17 46.94-31.31 17.16-5.27-60.1a7 7 0 0 0-14 .83v.4l5.8 66.19-50.57 27.69-30.62-17.71-1.27-57.72 60.28-28.1a7 7 0 1 0-5.74-12.77l-.17.08-54.7 25.5-.79-35.73 43.26-19a7 7 0 1 0-5.63-12.82l-38 16.69-.72-34.29a7 7 0 0 0-14 0l-.75 34.28-38-16.69a7 7 0 1 0-5.63 12.82l43.28 19-.78 35.73-54.73-25.51a7 7 0 1 0-6.08 12.61l.17.08 60.3 28.11-1.25 57.68-30.68 17.75-50.58-27.69 5.8-66.18a7 7 0 1 0-13.9-1.63v.4l-5.27 60.07-31.33-17.16 5.12-46.91a7 7 0 1 0-13.92-1.53l-4.53 41.19-30.06-16.46a7 7 0 0 0-7 12.13l29.33 17.77-33.46 24.55a7 7 0 0 0 8.29 11.29l38.14-28 30.57 18.53-49.5 34.67a7 7 0 0 0 8 11.47l54.56-38.22 49.13 29.77v35.5l-49.31 30-54.38-38.08a7 7 0 1 0-8.67 11 6.2 6.2 0 0 0 .67.47l49.35 34.55-30.51 18.57-38-27.93a7 7 0 1 0-8.29 11.29L122.45 362l-29.27 17.82a7 7 0 0 0 6.72 12.28l.28-.16 30-16.54 4.54 41.27a7 7 0 0 0 6.95 6.24h.77a7 7 0 0 0 6.2-7.72l-5.17-47.05 31.32-17.24 5.29 60.25a7 7 0 0 0 7 6.39h.62a7 7 0 0 0 6.36-7.58l-5.82-66.4 50.28-27.66 30.91 17.84 1.3 57.64-60.23 28.07a7 7 0 0 0 5.91 12.69l54.66-25.48.81 35.72-43.24 19a7 7 0 1 0 5.63 12.82l38-16.68.77 34.27a7 7 0 0 0 14 0l.73-34.29 38 16.7a7 7 0 0 0 5.63-12.82l-43.3-19 .76-35.74 54.77 25.53a7 7 0 0 0 5.91-12.69l-60.36-28.13 1.22-57.46 30.8-17.78 50.58 27.69L366 410a7 7 0 0 0 6.36 7.58h.64a7 7 0 0 0 7-6.39l5.27-60.06 31.33 17.15-5.16 47a7 7 0 0 0 6.2 7.72h.77a7 7 0 0 0 7-6.24l4.53-41.19L459.82 392a7 7 0 1 0 7.28-12l-.28-.16-29.33-17.74L471 337.53a7 7 0 0 0-8.29-11.29M280 323.64l-37.73-21.78v-43.57L280 236.51l37.73 21.78v43.57z" transform="translate(-.07)"/></g></g><g class="cls-2"><g class="cls-2" id="Layer_1-2-2" data-name="Layer 1-2"><path class="cls-4" d="M280 555.57C127.77 555.46 4.45 432 4.55 279.74A275.64 275.64 0 0 1 172.73 26.1C313-33.14 474.66 32.5 533.9 172.73s-6.4 301.93-146.63 361.17A273.74 273.74 0 0 1 280 555.57M280 26C139.94 26 26 139.94 26 280s113.94 254 254 254 254-113.94 254-254S420.06 26 280 26" transform="translate(-.07)"/><path class="cls-5" d="M450.47 489.74a7 7 0 0 1-5.14-2L280 322.43 114.67 487.75a7 7 0 0 1-5.14 2c-9.43 0-33.53-18.09-39-31.29-2.91-7-.17-11.23 1.72-13.12L237.57 280 72.25 114.67c-2.09-2.08-5-6.87-1.47-15.51C76.22 86 94.6 69.09 106.67 69.09a11 11 0 0 1 8 3.16L280 237.57 445.33 72.25a11 11 0 0 1 8-3.16c12.07 0 30.45 16.94 35.89 30.07 3.58 8.64.62 13.43-1.47 15.51L322.43 280l165.32 165.33c1.89 1.89 4.63 6.1 1.72 13.12-5.47 13.21-29.57 31.29-39 31.29z" transform="translate(-.07)"/><path class="cls-4" d="M453.33 74.09c13.09 0 39.49 28.45 30.89 37L315.35 280l168.87 168.86c9 9.05-24.85 35.88-33.75 35.88a2.21 2.21 0 0 1-1.61-.52L280 315.36 111.14 484.22a2.21 2.21 0 0 1-1.61.52c-8.91 0-42.8-26.83-33.75-35.88L244.64 280 75.78 111.14c-8.6-8.6 17.8-37 30.89-37a6.08 6.08 0 0 1 4.47 1.69L280 244.65 448.86 75.78a6.08 6.08 0 0 1 4.47-1.69M68.71 118.21L230.5 280 68.71 441.79c-2.23 2.23 47.27 51.73 49.5 49.5L280 329.5l161.79 161.79c2.23 2.23 51.73-47.27 49.5-49.5L329.5 280l161.79-161.79c2.39-2.39-46.48-52.52-49.5-49.5L280 230.5 118.21 68.71c-3-3-51.89 47.11-49.5 49.5" transform="translate(-.07)"/><path class="cls-5" d="M280 16c145.8 0 264 118.2 264 264S425.8 544 280 544 16 425.8 16 280 134.2 16 280 16m0-16C125.32.08 0 125.53.07 280.21A280.07 280.07 0 0 0 171 538c142.49 60.2 306.8-6.51 367-149S531.49 82.2 389 22A278.39 278.39 0 0 0 280 0" transform="translate(-.07)"/></g></g></svg>