<svg xmlns="http://www.w3.org/2000/svg" viewBox="-0.035 0 560.15 560.15">
  <path d="M279.93 552c-150.22 0-272-121.78-272-272A272 272 0 0 1 87.6 87.67C193.22-19.15 365.44-20.12 472.26 85.51s107.79 277.84 2.16 384.66l-2.16 2.16A270.19 270.19 0 0 1 279.93 552" fill="#eeac1f"/>
  <path d="M279.93 16c145.8 0 264 118.2 264 264s-118.2 264-264 264-264-118.2-264-264 118.2-264 264-264m0-16C125.25.08-.07 125.53 0 280.21A280.07 280.07 0 0 0 170.93 538c142.49 60.2 306.8-6.51 367-149s-6.51-306.8-149-367a278.39 278.39 0 0 0-109-22" fill="#fff"/>
  <path d="M498.93 274.64l-93.18-46.76 32.83-98.94a6 6 0 0 0-7.59-7.59l-98.94 32.83L285.29 61a6 6 0 0 0-10.72 0l-46.76 93.18-98.94-32.83a6 6 0 0 0-7.59 7.59l32.83 98.95-93.18 46.75a6 6 0 0 0 0 10.72l93.18 46.75-32.83 98.95a6 6 0 0 0 7.59 7.59l98.94-32.83L274.57 499a6 6 0 0 0 10.72 0l46.75-93.18 98.95 32.83a6.07 6.07 0 0 0 1.89.3 6 6 0 0 0 6-6 6.1 6.1 0 0 0-.31-1.9l-32.84-98.95 93.2-46.74a6 6 0 0 0 0-10.72m-89.8-123.78l-17.92 69.73-25.67-12.88 10-23.28-23.28 10-12.87-25.64zm-101.67 62.69l-13.31-33.22 30.3-7.76 15.91 26.9zm-55.06 0l-32.89-14.08 15.94-26.9 30.26 7.76zm-38.92 38.92l-33.22 13.31-7.75-30.28 26.89-15.92zm0 55.06l-14.08 32.89-26.89-15.92 7.75-30.28zm38.92 38.92l13.31 33.22-30.26 7.77-15.94-26.91zm55.06 0l32.9 14.08-15.91 26.91-30.3-7.77zm38.92-38.92l33.22-13.31 7.78 30.28-26.92 15.93zm0-55.06l14.08-32.9 26.92 15.93-7.78 30.28zm-66.4-155.1l36.63 61.94-27.26 9-9.42-23.46-9.42 23.5-27.22-9zm-129.14 53.49l69.68 17.88-12.88 25.65-23.28-10 10 23.28-25.63 12.86zM97.35 280l61.9-36.65 9 27.23-23.47 9.42 23.5 9.42-9 27.23zm53.49 129.15l17.85-69.72 25.63 12.86-10 23.28 23.28-10 12.88 25.66zm129.14 53.49l-36.69-62 27.22-9 9.42 23.5 9.42-23.5 27.26 9zm129.15-53.49l-69.78-17.89 12.87-25.65 23.28 10-10-23.28 25.67-12.88zm-8.51-92.48l-9-27.25 23.5-9.42-23.5-9.42 9-27.25 62 36.67z" fill="#fff"/>
  <path d="M279.93 555.57C127.7 555.46 4.38 432 4.48 279.74A275.64 275.64 0 0 1 172.66 26.1c140.27-59.24 301.93 6.4 361.17 146.63s-6.4 301.93-146.63 361.17a273.74 273.74 0 0 1-107.27 21.67m0-529.57c-140.06 0-254 113.94-254 254s113.94 254 254 254 254-113.94 254-254-113.94-254-254-254" fill="#fff"/>
  <path d="M450.4 489.74a7 7 0 0 1-5.14-2L279.93 322.43 114.6 487.75a7 7 0 0 1-5.14 2c-9.43 0-33.53-18.09-39-31.29-2.91-7-.17-11.23 1.72-13.12L237.5 280 72.18 114.67c-2.09-2.08-5-6.87-1.47-15.51C76.15 86 94.53 69.09 106.6 69.09a11 11 0 0 1 8 3.16l165.33 165.32L445.26 72.25a11 11 0 0 1 8-3.16c12.07 0 30.45 16.94 35.89 30.07 3.58 8.64.62 13.43-1.47 15.51L322.36 280l165.32 165.33c1.89 1.89 4.63 6.1 1.72 13.12-5.47 13.21-29.57 31.29-39 31.29z" fill="#e26969"/>
  <path d="M453.26 74.09c13.09 0 39.49 28.45 30.89 37L315.28 280l168.87 168.86c9 9.05-24.85 35.88-33.75 35.88a2.21 2.21 0 0 1-1.61-.52L279.93 315.36 111.07 484.22a2.21 2.21 0 0 1-1.61.52c-8.91 0-42.8-26.83-33.75-35.88L244.57 280 75.71 111.14c-8.6-8.6 17.8-37 30.89-37a6.08 6.08 0 0 1 4.47 1.69l168.86 168.82L448.79 75.78a6.08 6.08 0 0 1 4.47-1.69M68.64 118.21L230.43 280 68.64 441.79c-2.23 2.23 47.27 51.73 49.5 49.5L279.93 329.5l161.79 161.79c2.23 2.23 51.73-47.27 49.5-49.5L329.43 280l161.79-161.79c2.39-2.39-46.48-52.52-49.5-49.5L279.93 230.5 118.14 68.71c-3-3-51.89 47.11-49.5 49.5" fill="#fff"/>
  <path d="M279.93 16c145.8 0 264 118.2 264 264s-118.2 264-264 264-264-118.2-264-264 118.2-264 264-264m0-16C125.25.08-.07 125.53 0 280.21A280.07 280.07 0 0 0 170.93 538c142.49 60.2 306.8-6.51 367-149s-6.51-306.8-149-367a278.39 278.39 0 0 0-109-22" fill="#e26969"/>
</svg>
