<svg id="Layer_1" data-name="Layer 1" xmlns="http://www.w3.org/2000/svg" viewBox="0 0 560.21 560.58"><defs><style>.cls-1{fill:none}.cls-2{clip-path:url(#clip-path)}.cls-3{fill:#fff}.cls-10{clip-path:url(#clip-path-3)}.cls-11{fill:#e26969}</style><clipPath id="clip-path" transform="translate(-.07)"><path class="cls-1" d="M-20-20h600v600H-20z"/></clipPath><clipPath id="clip-path-3" transform="translate(-.07)"><path id="SVGID" class="cls-1" d="M-19.87-19.57h600v600h-600z"/></clipPath></defs><g class="cls-2"><g class="cls-2" id="Layer_1-2" data-name="Layer 1-2"><path class="cls-3" d="M280 552C129.78 552 8 430.22 8 280A272 272 0 0 1 87.67 87.67C193.29-19.15 365.51-20.12 472.33 85.51s107.79 277.84 2.16 384.66l-2.16 2.16A270.19 270.19 0 0 1 280 552" transform="translate(-.07)"/><path class="cls-3" d="M280 16c145.8 0 264 118.2 264 264S425.8 544 280 544 16 425.8 16 280 134.2 16 280 16m0-16C125.32.08 0 125.53.07 280.21A280.07 280.07 0 0 0 171 538c142.49 60.2 306.8-6.51 367-149S531.49 82.2 389 22A278.39 278.39 0 0 0 280 0" transform="translate(-.07)"/><path d="M280 280S119.86 373.37 51.33 412a263.9 263.9 0 0 1 0-264L280 280" transform="translate(-.07)" fill="#1f2c35"/><path d="M280 280s.79 185.37 0 264A263.86 263.86 0 0 1 51.37 412L280 280" transform="translate(-.07)" fill="#eeac1f"/><path d="M280 280s160.93 92 228.67 132A263.88 263.88 0 0 1 280 544z" transform="translate(-.07)" fill="#89a53d"/><path d="M280 280s160.14-93.37 228.67-132a263.9 263.9 0 0 1 0 264L280 280" transform="translate(-.07)" fill="#e15426"/><path d="M280 280s-.79-185.37 0-264a263.86 263.86 0 0 1 228.63 132L280 280" transform="translate(-.07)" fill="#1ac2ec"/><path d="M280 280S119.07 188 51.33 148A263.88 263.88 0 0 1 280 16z" transform="translate(-.07)" fill="#9ab0b7"/></g></g><g class="cls-10"><g class="cls-10" id="Layer_1-2-2" data-name="Layer 1-2"><path class="cls-3" d="M280.13 556C127.9 555.89 4.57 432.4 4.68 280.17A275.64 275.64 0 0 1 172.86 26.53C313.08-32.72 474.79 32.93 534 173.16s-6.38 301.92-146.6 361.17A273.78 273.78 0 0 1 280.13 556m0-529.57c-140.06 0-254 113.94-254 254s113.94 254 254 254 254-113.94 254-254-113.94-254-254-254" transform="translate(-.07)"/><path class="cls-11" d="M450.6 490.17a7 7 0 0 1-5.14-2L280.13 322.86 114.8 488.18a7 7 0 0 1-5.14 2c-9.43 0-33.53-18.09-39-31.29-2.91-7-.17-11.23 1.72-13.12L237.7 280.43 72.38 115.1c-2.09-2.08-5-6.87-1.47-15.51 5.44-13.16 23.82-30.07 35.89-30.07a11 11 0 0 1 8 3.16L280.13 238 445.46 72.68a11 11 0 0 1 8-3.16c12.07 0 30.45 16.94 35.89 30.07 3.58 8.64.62 13.43-1.47 15.51L322.56 280.43l165.32 165.33c1.89 1.89 4.63 6.1 1.72 13.12-5.47 13.21-29.57 31.29-39 31.29z" transform="translate(-.07)"/><path class="cls-3" d="M453.46 74.52c13.09 0 39.49 28.45 30.89 37L315.48 280.43l168.87 168.86c9 9-24.85 35.88-33.75 35.88a2.18 2.18 0 0 1-1.61-.52L280.13 315.79 111.27 484.65a2.21 2.21 0 0 1-1.61.52c-8.91 0-42.8-26.83-33.75-35.88l168.86-168.86L75.91 111.57c-8.6-8.6 17.8-37 30.89-37a6.08 6.08 0 0 1 4.47 1.69l168.86 168.82L449 76.21a6.08 6.08 0 0 1 4.47-1.69M68.84 118.64l161.79 161.79L68.84 442.22c-2.23 2.23 47.27 51.73 49.5 49.5l161.79-161.79 161.79 161.79c2.23 2.23 51.73-47.27 49.5-49.5L329.63 280.43l161.79-161.79c2.39-2.39-46.48-52.52-49.5-49.5L280.13 230.93 118.34 69.14c-3-3-51.89 47.11-49.5 49.5" transform="translate(-.07)"/><path class="cls-11" d="M280.13 16.43c145.8 0 264 118.2 264 264s-118.2 264-264 264-264-118.2-264-264 118.2-264 264-264m0-16C125.45.5.12 126 .2 280.64a280.05 280.05 0 0 0 170.93 257.79c142.49 60.2 306.8-6.51 367-149s-6.51-306.8-149-367a278.43 278.43 0 0 0-109-22" transform="translate(-.07)"/></g></g></svg>