<svg data-name="Layer 1" xmlns="http://www.w3.org/2000/svg" viewBox="0 0 560.08 560.15">
  <defs>
    <clipPath id="consume-air-mask" transform="translate(-.07)">
      <path fill="none" d="M-20-20h600v600H-20z"/>
    </clipPath>
  </defs>
  <g data-name="Layer 1-2" clip-path="url(#consume-air-mask)">
    <path d="M279.93 552c-150.22 0-272-121.78-272-272A272 272 0 0 1 87.6 87.67C193.22-19.15 365.44-20.12 472.26 85.51s107.79 277.84 2.16 384.66l-2.16 2.16A270.19 270.19 0 0 1 279.93 552" fill="#9ab0b7"/>
    <path d="M279.93 16c145.8 0 264 118.2 264 264s-118.2 264-264 264-264-118.2-264-264 118.2-264 264-264m0-16C125.25.08-.07 125.53 0 280.21A280.07 280.07 0 0 0 170.93 538c142.49 60.2 306.8-6.51 367-149s-6.51-306.8-149-367a278.39 278.39 0 0 0-109-22" fill="#fff"/>
    <path d="M58.57 307.22a1.25 1.25 0 0 1-1-1.49 1.27 1.27 0 0 1 1-1c12.51-1.67 42.56-2.76 81.66 15.67 52 24.5 136 79.23 185.7 76.26 42.05-2.51 62.53-18.32 60.3-37.76-1.75-15.25-18.75-25.25-31.75-20.25s-18.75 16.75-17.75 27.75c-11-8.5-7-25-3.5-29.5s22.69-30.67 55.5-8c27.5 19 15.88 56 0 70-10.5 9.25-42 32.5-101.5 17.5s-123.65-69.34-157.5-85.5c-31.07-14.9-44.5-18.08-71.16-23.68" fill="#fff"/>
    <path d="M147.98 300.63a.92.92 0 0 1 .7-1.69c22.24 6.79 78.78 19.58 119.63 9 59.67-15.5 70.5-51 130-79.84 37.95-18.39 87.5-5.16 101 31.84s-21.67 62.5-49.5 61c-23-1.24-38.49-14.36-41.5-25-3.33-11.82 1.33-27.15 15-31.48-4 18 5.79 37.68 26 36.5 20-1.17 37.67-26.22 19-45s-42-15.17-56-6.5c-14.93 9.24-50 44-80 58.5-28.79 13.91-71 29.09-114.57 17.5-37.15-9.88-48.55-13.18-69.76-24.78" fill="#fff"/>
    <path d="M91.61 266.83a1.2 1.2 0 0 1 .48-2.32c17.13.7 65.05-.09 90.22-28.1 31-34.5 23.94-58 51.5-83 19.25-17.44 63.27-23 94.25 3.5 34.5 29.5 16.17 87.08-18.08 104.83-29 15-65.42 10.17-73.67-13.33-9.19-26.17 9.75-49.25 29-49 20.3.26 17.5 20.5 17.5 20.5s-6-10.5-14.25-9.25c-10.45 1.57-19.68 14.67-14.25 27.75 6.75 16.25 35.78 23.44 56.67-1.34 21.5-25.5 16.83-60.16-18.67-72.66-32.81-11.56-52 12.64-69.5 45-13.75 25.5-29.25 58-76.5 60.72-34.63 2-48-.75-54.7-3.3" fill="#fff"/>
  </g>
  <g data-name="Layer 1-2" clip-path="url(#consume-air-mask)">
    <path d="M279.93 555.57C127.7 555.46 4.38 432 4.48 279.74A275.64 275.64 0 0 1 172.66 26.1c140.27-59.24 301.93 6.4 361.17 146.63s-6.4 301.93-146.63 361.17a273.74 273.74 0 0 1-107.27 21.67m0-529.57c-140.06 0-254 113.94-254 254s113.94 254 254 254 254-113.94 254-254-113.94-254-254-254" fill="#fff"/>
    <path d="M450.4 489.74a7 7 0 0 1-5.14-2L279.93 322.43 114.6 487.75a7 7 0 0 1-5.14 2c-9.43 0-33.53-18.09-39-31.29-2.91-7-.17-11.23 1.72-13.12L237.5 280 72.18 114.67c-2.09-2.08-5-6.87-1.47-15.51C76.15 86 94.53 69.09 106.6 69.09a11 11 0 0 1 8 3.16l165.33 165.32L445.26 72.25a11 11 0 0 1 8-3.16c12.07 0 30.45 16.94 35.89 30.07 3.58 8.64.62 13.43-1.47 15.51L322.36 280l165.32 165.33c1.89 1.89 4.63 6.1 1.72 13.12-5.47 13.21-29.57 31.29-39 31.29z" fill="#e26969"/>
    <path d="M453.26 74.09c13.09 0 39.49 28.45 30.89 37L315.28 280l168.87 168.86c9 9.05-24.85 35.88-33.75 35.88a2.21 2.21 0 0 1-1.61-.52L279.93 315.36 111.07 484.22a2.21 2.21 0 0 1-1.61.52c-8.91 0-42.8-26.83-33.75-35.88L244.57 280 75.71 111.14c-8.6-8.6 17.8-37 30.89-37a6.08 6.08 0 0 1 4.47 1.69l168.86 168.82L448.79 75.78a6.08 6.08 0 0 1 4.47-1.69M68.64 118.21L230.43 280 68.64 441.79c-2.23 2.23 47.27 51.73 49.5 49.5L279.93 329.5l161.79 161.79c2.23 2.23 51.73-47.27 49.5-49.5L329.43 280l161.79-161.79c2.39-2.39-46.48-52.52-49.5-49.5L279.93 230.5 118.14 68.71c-3-3-51.89 47.11-49.5 49.5" fill="#fff"/>
    <path d="M279.93 16c145.8 0 264 118.2 264 264s-118.2 264-264 264-264-118.2-264-264 118.2-264 264-264m0-16C125.25.08-.07 125.53 0 280.21A280.07 280.07 0 0 0 170.93 538c142.49 60.2 306.8-6.51 367-149s-6.51-306.8-149-367a278.39 278.39 0 0 0-109-22" fill="#e26969"/>
  </g>
</svg>
