<svg xmlns="http://www.w3.org/2000/svg" viewBox="0 0 560.21 560.58">
  <path d="M279.93 552c-150.22 0-272-121.78-272-272A272 272 0 0 1 87.6 87.67C193.22-19.15 365.44-20.12 472.26 85.51s107.79 277.84 2.16 384.66l-2.16 2.16A270.19 270.19 0 0 1 279.93 552" fill="#fff"/>
  <path d="M279.93 16c145.8 0 264 118.2 264 264s-118.2 264-264 264-264-118.2-264-264 118.2-264 264-264m0-16C125.25.08-.07 125.53 0 280.21A280.07 280.07 0 0 0 170.93 538c142.49 60.2 306.8-6.51 367-149s-6.51-306.8-149-367a278.39 278.39 0 0 0-109-22" fill="#fff"/>
  <path d="M279.93 280S119.79 373.37 51.26 412a263.9 263.9 0 0 1 0-264l228.67 132" fill="#1f2c35"/>
  <path d="M279.93 280s.79 185.37 0 264A263.86 263.86 0 0 1 51.3 412l228.63-132" fill="#eeac1f"/>
  <path d="M279.93 280s160.93 92 228.67 132a263.88 263.88 0 0 1-228.67 132z" fill="#89a53d"/>
  <path d="M279.93 280s160.14-93.37 228.67-132a263.9 263.9 0 0 1 0 264L279.93 280" fill="#e15426"/>
  <path d="M279.93 280s-.79-185.37 0-264a263.86 263.86 0 0 1 228.63 132L279.93 280" fill="#1ac2ec"/>
  <path d="M279.93 280S119 188 51.26 148A263.88 263.88 0 0 1 279.93 16z" fill="#9ab0b7"/>
  <path d="M280.06 556C127.83 555.89 4.5 432.4 4.61 280.17A275.64 275.64 0 0 1 172.79 26.53c140.22-59.25 301.93 6.4 361.14 146.63s-6.38 301.92-146.6 361.17A273.78 273.78 0 0 1 280.06 556m0-529.57c-140.06 0-254 113.94-254 254s113.94 254 254 254 254-113.94 254-254-113.94-254-254-254" fill="#fff"/>
  <path d="M450.53 490.17a7 7 0 0 1-5.14-2L280.06 322.86 114.73 488.18a7 7 0 0 1-5.14 2c-9.43 0-33.53-18.09-39-31.29-2.91-7-.17-11.23 1.72-13.12l165.32-165.34L72.31 115.1c-2.09-2.08-5-6.87-1.47-15.51 5.44-13.16 23.82-30.07 35.89-30.07a11 11 0 0 1 8 3.16L280.06 238 445.39 72.68a11 11 0 0 1 8-3.16c12.07 0 30.45 16.94 35.89 30.07 3.58 8.64.62 13.43-1.47 15.51L322.49 280.43l165.32 165.33c1.89 1.89 4.63 6.1 1.72 13.12-5.47 13.21-29.57 31.29-39 31.29z" fill="#e26969"/>
  <path d="M453.39 74.52c13.09 0 39.49 28.45 30.89 37L315.41 280.43l168.87 168.86c9 9-24.85 35.88-33.75 35.88a2.18 2.18 0 0 1-1.61-.52L280.06 315.79 111.2 484.65a2.21 2.21 0 0 1-1.61.52c-8.91 0-42.8-26.83-33.75-35.88L244.7 280.43 75.84 111.57c-8.6-8.6 17.8-37 30.89-37a6.08 6.08 0 0 1 4.47 1.69l168.86 168.82L448.93 76.21a6.08 6.08 0 0 1 4.47-1.69M68.77 118.64l161.79 161.79L68.77 442.22c-2.23 2.23 47.27 51.73 49.5 49.5l161.79-161.79 161.79 161.79c2.23 2.23 51.73-47.27 49.5-49.5L329.56 280.43l161.79-161.79c2.39-2.39-46.48-52.52-49.5-49.5L280.06 230.93 118.27 69.14c-3-3-51.89 47.11-49.5 49.5" fill="#fff"/>
  <path d="M280.06 16.43c145.8 0 264 118.2 264 264s-118.2 264-264 264-264-118.2-264-264 118.2-264 264-264m0-16C125.38.5.05 126 .13 280.64a280.05 280.05 0 0 0 170.93 257.79c142.49 60.2 306.8-6.51 367-149s-6.51-306.8-149-367a278.43 278.43 0 0 0-109-22" fill="#e26969"/>
</svg>
