<svg xmlns="http://www.w3.org/2000/svg" viewBox="0 0 560 560"><defs><style>.cls-2{clip-path:url(#clip-path)}.cls-3{fill:#fff}.cls-4{fill:#e26969}</style><clipPath id="clip-path" transform="translate(-20 -20)"><path fill="none" d="M0 0h600v600H0z"/></clipPath></defs><g id="Layer_2" data-name="Layer 2"><g class="cls-2" id="Layer_1-2" data-name="Layer 1"><g class="cls-2"><path class="cls-3" d="M300 575.57A275.64 275.64 0 0 1 192.73 46.1a275.63 275.63 0 0 1 214.54 507.8A273.8 273.8 0 0 1 300 575.57M300 46C159.94 46 46 159.94 46 300s113.94 254 254 254 254-113.94 254-254S440.06 46 300 46" transform="translate(-20 -20)"/><path class="cls-4" d="M470.47 509.74a7 7 0 0 1-5.14-2L300 342.43 134.67 507.75a7 7 0 0 1-5.14 2c-9.43 0-33.53-18.09-39-31.29-2.91-7-.17-11.23 1.72-13.12L257.57 300 92.25 134.67c-2.09-2.08-5-6.87-1.47-15.51 5.44-13.16 23.82-30.07 35.89-30.07a11 11 0 0 1 8 3.16L300 257.57 465.33 92.25a11 11 0 0 1 8-3.16c12.07 0 30.45 16.94 35.89 30.07 3.58 8.64.62 13.43-1.47 15.51L342.43 300l165.32 165.33c1.89 1.89 4.63 6.1 1.72 13.12-5.47 13.21-29.57 31.29-39 31.29z" transform="translate(-20 -20)"/><path class="cls-3" d="M473.33 94.09c13.09 0 39.49 28.45 30.89 37L335.35 300l168.87 168.86c9 9.05-24.85 35.88-33.75 35.88a2.2 2.2 0 0 1-1.61-.52L300 335.36 131.14 504.22a2.2 2.2 0 0 1-1.61.52c-8.91 0-42.8-26.83-33.75-35.88L264.64 300 95.78 131.14c-8.6-8.6 17.8-37 30.89-37a6.11 6.11 0 0 1 4.47 1.69L300 264.65 468.86 95.78a6.11 6.11 0 0 1 4.47-1.69M88.71 138.21L250.5 300 88.71 461.79c-2.23 2.23 47.27 51.73 49.5 49.5L300 349.5l161.79 161.79c2.23 2.23 51.73-47.27 49.5-49.5L349.5 300l161.79-161.79c2.39-2.39-46.48-52.52-49.5-49.5L300 250.5 138.21 88.71c-3-3-51.89 47.11-49.5 49.5" transform="translate(-20 -20)"/><path class="cls-4" d="M300 36c145.8 0 264 118.2 264 264S445.8 564 300 564 36 445.8 36 300 154.2 36 300 36m0-16a280.07 280.07 0 0 0-109 538A280.07 280.07 0 0 0 409 42a278.34 278.34 0 0 0-109-22" transform="translate(-20 -20)"/></g></g></g></svg>