<svg xmlns="http://www.w3.org/2000/svg" viewBox="0 0 560 560">
  <path d="M280 555.57A275.64 275.64 0 0 1 172.73 26.1a275.63 275.63 0 0 1 214.54 507.8A273.8 273.8 0 0 1 280 555.57M280 26C139.94 26 26 139.94 26 280s113.94 254 254 254 254-113.94 254-254S420.06 26 280 26" fill="#fff"/>
  <path d="M450.47 489.74a7 7 0 0 1-5.14-2L280 322.43 114.67 487.75a7 7 0 0 1-5.14 2c-9.43 0-33.53-18.09-39-31.29-2.91-7-.17-11.23 1.72-13.12L237.57 280 72.25 114.67c-2.09-2.08-5-6.87-1.47-15.51C76.22 86 94.6 69.09 106.67 69.09a11 11 0 0 1 8 3.16L280 237.57 445.33 72.25a11 11 0 0 1 8-3.16c12.07 0 30.45 16.94 35.89 30.07 3.58 8.64.62 13.43-1.47 15.51L322.43 280l165.32 165.33c1.89 1.89 4.63 6.1 1.72 13.12-5.47 13.21-29.57 31.29-39 31.29z" fill="#e26969"/>
  <path d="M453.33 74.09c13.09 0 39.49 28.45 30.89 37L315.35 280l168.87 168.86c9 9.05-24.85 35.88-33.75 35.88a2.2 2.2 0 0 1-1.61-.52L280 315.36 111.14 484.22a2.2 2.2 0 0 1-1.61.52c-8.91 0-42.8-26.83-33.75-35.88L244.64 280 75.78 111.14c-8.6-8.6 17.8-37 30.89-37a6.11 6.11 0 0 1 4.47 1.69L280 244.65 448.86 75.78a6.11 6.11 0 0 1 4.47-1.69M68.71 118.21L230.5 280 68.71 441.79c-2.23 2.23 47.27 51.73 49.5 49.5L280 329.5l161.79 161.79c2.23 2.23 51.73-47.27 49.5-49.5L329.5 280l161.79-161.79c2.39-2.39-46.48-52.52-49.5-49.5L280 230.5 118.21 68.71c-3-3-51.89 47.11-49.5 49.5" fill="#fff"/>
  <path d="M280 16c145.8 0 264 118.2 264 264S425.8 544 280 544 16 425.8 16 280 134.2 16 280 16m0-16a280.07 280.07 0 0 0-109 538A280.08 280.08 0 0 0 389 22 278.34 278.34 0 0 0 280 0" fill="#e26969"/>
</svg>
