<svg id="Layer_1" data-name="Layer 1" xmlns="http://www.w3.org/2000/svg" viewBox="0 0 560.08 560.15">
  <defs>
    <style>.cls-2{clip-path:url(#clip-path)}.cls-4{fill:#fff}.cls-5{fill:#e26969}</style>
    <clipPath id="clip-path" transform="translate(-.07)">
      <path fill="none" d="M-20-20h600v600H-20z" />
    </clipPath>
  </defs>
  <g class="cls-2">
    <g class="cls-2" id="Layer_1-2" data-name="Layer 1-2">
      <path
        d="M280 552C129.78 552 8 430.22 8 280A272 272 0 0 1 87.67 87.67C193.29-19.15 365.51-20.12 472.33 85.51s107.79 277.84 2.16 384.66l-2.16 2.16A270.19 270.19 0 0 1 280 552"
        transform="translate(-.07)" fill="#1f2c35" />
      <path class="cls-4"
            d="M280 16c145.8 0 264 118.2 264 264S425.8 544 280 544 16 425.8 16 280 134.2 16 280 16m0-16C125.32.08 0 125.53.07 280.21A280.07 280.07 0 0 0 171 538c142.49 60.2 306.8-6.51 367-149S531.49 82.2 389 22A278.39 278.39 0 0 0 280 0"
            transform="translate(-.07)" />
      <path class="cls-4"
            d="M325.83 122.22A157.1 157.1 0 0 0 280 129a156.77 156.77 0 0 0-45.83-6.79c-87 0-157.79 70.78-157.79 157.79s70.78 157.78 157.79 157.78A157.1 157.1 0 0 0 280 431a157 157 0 0 0 45.82 6.79c87 0 157.78-70.78 157.78-157.78s-70.77-157.79-157.77-157.79M280 418.41a144.09 144.09 0 0 1-19.83 5.06 146.23 146.23 0 0 1-26 2.32c-80.39 0-145.79-65.4-145.79-145.78s65.4-145.79 145.79-145.79A145.81 145.81 0 0 1 280 418.41m45.83 7.38a147.17 147.17 0 0 1-26-2.32 159.27 159.27 0 0 0 17.54-9.47c1.79-1.11 3.54-2.27 5.28-3.45 73.09-1.2 132-59.19 132-130.56s-58.88-129.38-132-130.58c-1.74-1.18-3.49-2.34-5.28-3.46a157.17 157.17 0 0 0-17.53-9.43 145.31 145.31 0 0 1 26-2.32c80.38 0 145.78 65.4 145.78 145.79s-65.4 145.78-145.78 145.78"
            transform="translate(-.07)" />
    </g>
  </g>
  <g class="cls-2">
    <g class="cls-2" id="Layer_1-2-2" data-name="Layer 1-2">
      <path class="cls-4"
            d="M280 555.57C127.77 555.46 4.45 432 4.55 279.74A275.64 275.64 0 0 1 172.73 26.1C313-33.14 474.66 32.5 533.9 172.73s-6.4 301.93-146.63 361.17A273.74 273.74 0 0 1 280 555.57M280 26C139.94 26 26 139.94 26 280s113.94 254 254 254 254-113.94 254-254S420.06 26 280 26"
            transform="translate(-.07)" />
      <path class="cls-5"
            d="M450.47 489.74a7 7 0 0 1-5.14-2L280 322.43 114.67 487.75a7 7 0 0 1-5.14 2c-9.43 0-33.53-18.09-39-31.29-2.91-7-.17-11.23 1.72-13.12L237.57 280 72.25 114.67c-2.09-2.08-5-6.87-1.47-15.51C76.22 86 94.6 69.09 106.67 69.09a11 11 0 0 1 8 3.16L280 237.57 445.33 72.25a11 11 0 0 1 8-3.16c12.07 0 30.45 16.94 35.89 30.07 3.58 8.64.62 13.43-1.47 15.51L322.43 280l165.32 165.33c1.89 1.89 4.63 6.1 1.72 13.12-5.47 13.21-29.57 31.29-39 31.29z"
            transform="translate(-.07)" />
      <path class="cls-4"
            d="M453.33 74.09c13.09 0 39.49 28.45 30.89 37L315.35 280l168.87 168.86c9 9.05-24.85 35.88-33.75 35.88a2.21 2.21 0 0 1-1.61-.52L280 315.36 111.14 484.22a2.21 2.21 0 0 1-1.61.52c-8.91 0-42.8-26.83-33.75-35.88L244.64 280 75.78 111.14c-8.6-8.6 17.8-37 30.89-37a6.08 6.08 0 0 1 4.47 1.69L280 244.65 448.86 75.78a6.08 6.08 0 0 1 4.47-1.69M68.71 118.21L230.5 280 68.71 441.79c-2.23 2.23 47.27 51.73 49.5 49.5L280 329.5l161.79 161.79c2.23 2.23 51.73-47.27 49.5-49.5L329.5 280l161.79-161.79c2.39-2.39-46.48-52.52-49.5-49.5L280 230.5 118.21 68.71c-3-3-51.89 47.11-49.5 49.5"
            transform="translate(-.07)" />
      <path class="cls-5"
            d="M280 16c145.8 0 264 118.2 264 264S425.8 544 280 544 16 425.8 16 280 134.2 16 280 16m0-16C125.32.08 0 125.53.07 280.21A280.07 280.07 0 0 0 171 538c142.49 60.2 306.8-6.51 367-149S531.49 82.2 389 22A278.39 278.39 0 0 0 280 0"
            transform="translate(-.07)" />
    </g>
  </g>
</svg>
