<svg id="Layer_1" data-name="Layer 1" xmlns="http://www.w3.org/2000/svg" viewBox="0 0 560.08 560.15">
  <defs>
    <style>.cls-2{clip-path:url(#clip-path)}.cls-4{fill:#fff}.cls-5{fill:#e26969}</style>
    <clipPath id="clip-path" transform="translate(-.07)">
      <path fill="none" d="M-20-20h600v600H-20z" />
    </clipPath>
  </defs>
  <g class="cls-2">
    <g class="cls-2" id="Layer_1-2" data-name="Layer 1-2">
      <path
        d="M280 552C129.78 552 8 430.22 8 280A272 272 0 0 1 87.67 87.67C193.29-19.15 365.51-20.12 472.33 85.51s107.79 277.84 2.16 384.66l-2.16 2.16A270.19 270.19 0 0 1 280 552"
        transform="translate(-.07)" fill="#e15426" />
      <path class="cls-4"
            d="M280 16c145.8 0 264 118.2 264 264S425.8 544 280 544 16 425.8 16 280 134.2 16 280 16m0-16C125.32.08 0 125.53.07 280.21A280.07 280.07 0 0 0 171 538c142.49 60.2 306.8-6.51 367-149S531.49 82.2 389 22A278.39 278.39 0 0 0 280 0"
            transform="translate(-.07)" />
      <path class="cls-4"
            d="M366.06 210.05c-42.5-34.5-58.5-99.5-47-143.5-25.5 2.5-66.27 25.29-83.5 89.5-22 82 44 140.5 0 170.5-51.44 35.08-86.5-26-82-82.5-30 23.5-48.45 119.58-9.5 178 28 42 63.81 66.14 109.52 71.4-14.75-10.45-15.74-29.92-10.52-44.9 7.5-21.5 32.24-31.1 55.5-49 26-20 37-40 38.5-49.5 13 19.5 28.58 48.32 15.5 91-6 19.62-17 38.34-34.34 49.45 55-14.2 119.67-61.89 119.84-145.95.16-75-37.86-106.79-72-134.5"
            transform="translate(-.07)" />
    </g>
  </g>
  <g class="cls-2">
    <g class="cls-2" id="Layer_1-2-2" data-name="Layer 1-2">
      <path class="cls-4"
            d="M280 555.57C127.77 555.46 4.45 432 4.55 279.74A275.64 275.64 0 0 1 172.73 26.1C313-33.14 474.66 32.5 533.9 172.73s-6.4 301.93-146.63 361.17A273.74 273.74 0 0 1 280 555.57M280 26C139.94 26 26 139.94 26 280s113.94 254 254 254 254-113.94 254-254S420.06 26 280 26"
            transform="translate(-.07)" />
      <path class="cls-5"
            d="M450.47 489.74a7 7 0 0 1-5.14-2L280 322.43 114.67 487.75a7 7 0 0 1-5.14 2c-9.43 0-33.53-18.09-39-31.29-2.91-7-.17-11.23 1.72-13.12L237.57 280 72.25 114.67c-2.09-2.08-5-6.87-1.47-15.51C76.22 86 94.6 69.09 106.67 69.09a11 11 0 0 1 8 3.16L280 237.57 445.33 72.25a11 11 0 0 1 8-3.16c12.07 0 30.45 16.94 35.89 30.07 3.58 8.64.62 13.43-1.47 15.51L322.43 280l165.32 165.33c1.89 1.89 4.63 6.1 1.72 13.12-5.47 13.21-29.57 31.29-39 31.29z"
            transform="translate(-.07)" />
      <path class="cls-4"
            d="M453.33 74.09c13.09 0 39.49 28.45 30.89 37L315.35 280l168.87 168.86c9 9.05-24.85 35.88-33.75 35.88a2.21 2.21 0 0 1-1.61-.52L280 315.36 111.14 484.22a2.21 2.21 0 0 1-1.61.52c-8.91 0-42.8-26.83-33.75-35.88L244.64 280 75.78 111.14c-8.6-8.6 17.8-37 30.89-37a6.08 6.08 0 0 1 4.47 1.69L280 244.65 448.86 75.78a6.08 6.08 0 0 1 4.47-1.69M68.71 118.21L230.5 280 68.71 441.79c-2.23 2.23 47.27 51.73 49.5 49.5L280 329.5l161.79 161.79c2.23 2.23 51.73-47.27 49.5-49.5L329.5 280l161.79-161.79c2.39-2.39-46.48-52.52-49.5-49.5L280 230.5 118.21 68.71c-3-3-51.89 47.11-49.5 49.5"
            transform="translate(-.07)" />
      <path class="cls-5"
            d="M280 16c145.8 0 264 118.2 264 264S425.8 544 280 544 16 425.8 16 280 134.2 16 280 16m0-16C125.32.08 0 125.53.07 280.21A280.07 280.07 0 0 0 171 538c142.49 60.2 306.8-6.51 367-149S531.49 82.2 389 22A278.39 278.39 0 0 0 280 0"
            transform="translate(-.07)" />
    </g>
  </g>
</svg>
