<svg xmlns="http://www.w3.org/2000/svg" viewBox="0 0 560.08 560.15">
  <path d="M279.93 552c-150.22 0-272-121.78-272-272A272 272 0 0 1 87.6 87.67C193.22-19.15 365.44-20.12 472.26 85.51s107.79 277.84 2.16 384.66l-2.16 2.16A270.19 270.19 0 0 1 279.93 552" fill="#1ac2ec"/>
  <path d="M279.93 16c145.8 0 264 118.2 264 264s-118.2 264-264 264-264-118.2-264-264 118.2-264 264-264m0-16C125.25.08-.07 125.53 0 280.21A280.07 280.07 0 0 0 170.93 538c142.49 60.2 306.8-6.51 367-149s-6.51-306.8-149-367a278.39 278.39 0 0 0-109-22" fill="#fff"/>
  <path d="M462.59 326.24l-38.13 28-30.53-18.53L443.38 301a7.001 7.001 0 1 0-7.33-11.93 6.2 6.2 0 0 0-.67.47l-54.56 38.21L331.66 298v-35.86l49.13-29.77 54.56 38.22a7.01 7.01 0 1 0 8.58-11.09 5.22 5.22 0 0 0-.54-.38l-49.46-34.67 30.58-18.53 38.13 28a7.007 7.007 0 1 0 8.29-11.3l-33.46-24.55 29.33-17.77a7.002 7.002 0 0 0-7-12.13l-30.06 16.47-4.53-41.2a7.043 7.043 0 1 0-14 1.56l5.17 46.94-31.31 17.16-5.27-60.1a7.012 7.012 0 0 0-14 .83v.4l5.8 66.19-50.57 27.69-30.62-17.71-1.27-57.72 60.28-28.1a7 7 0 1 0-5.74-12.77l-.17.08-54.7 25.5-.79-35.73 43.26-19a7 7 0 1 0-5.63-12.82l-38 16.69-.72-34.29a7 7 0 0 0-14 0l-.75 34.28-38-16.69a7 7 0 1 0-5.63 12.82l43.28 19-.78 35.73-54.73-25.51a7 7 0 1 0-6.08 12.61l.17.08 60.3 28.11-1.25 57.68-30.68 17.75-50.58-27.69 5.8-66.18a7 7 0 1 0-13.9-1.63v.4l-5.27 60.07-31.33-17.16 5.12-46.91a7.002 7.002 0 1 0-13.92-1.53l-4.53 41.19-30.06-16.46a7.002 7.002 0 0 0-7 12.13l29.33 17.77-33.46 24.55a7.003 7.003 0 0 0 8.29 11.29l38.14-28 30.57 18.53-49.5 34.67a7 7 0 0 0 8 11.47l54.56-38.22 49.13 29.77v35.5l-49.31 30-54.38-38.08a7.003 7.003 0 1 0-8.67 11 6.2 6.2 0 0 0 .67.47l49.35 34.55-30.51 18.57-38-27.93a7.003 7.003 0 1 0-8.29 11.29L122.38 362l-29.27 17.82a7 7 0 0 0 6.72 12.28l.28-.16 30-16.54 4.54 41.27a7 7 0 0 0 6.95 6.24h.77a7 7 0 0 0 6.2-7.72l-5.17-47.05 31.32-17.24 5.29 60.25a7 7 0 0 0 7 6.39h.62a7 7 0 0 0 6.36-7.58l-5.82-66.4 50.28-27.66 30.91 17.84 1.3 57.64-60.23 28.07a7 7 0 0 0 5.91 12.69L271 406.66l.81 35.72-43.24 19a7 7 0 1 0 5.63 12.82l38-16.68.77 34.27a7 7 0 0 0 14 0l.73-34.29 38 16.7a7 7 0 0 0 5.63-12.82l-43.3-19 .76-35.74 54.77 25.53a7 7 0 0 0 5.91-12.69l-60.36-28.13 1.22-57.46 30.8-17.78 50.58 27.69-5.78 66.2a7 7 0 0 0 6.36 7.58h.64a7 7 0 0 0 7-6.39l5.27-60.06 31.33 17.15-5.16 47a7 7 0 0 0 6.2 7.72h.77a7 7 0 0 0 7-6.24l4.53-41.19L459.75 392a7.018 7.018 0 1 0 7.28-12l-.28-.16-29.33-17.74 33.51-24.57a7.003 7.003 0 0 0-8.29-11.29m-182.71-2.6l-37.73-21.78v-43.57l37.73-21.78 37.73 21.78v43.57z" fill="#fff"/>
  <path d="M279.93 555.57C127.7 555.46 4.38 432 4.48 279.74A275.64 275.64 0 0 1 172.66 26.1c140.27-59.24 301.93 6.4 361.17 146.63s-6.4 301.93-146.63 361.17a273.74 273.74 0 0 1-107.27 21.67m0-529.57c-140.06 0-254 113.94-254 254s113.94 254 254 254 254-113.94 254-254-113.94-254-254-254" fill="#fff"/>
  <path d="M450.4 489.74a7 7 0 0 1-5.14-2L279.93 322.43 114.6 487.75a7 7 0 0 1-5.14 2c-9.43 0-33.53-18.09-39-31.29-2.91-7-.17-11.23 1.72-13.12L237.5 280 72.18 114.67c-2.09-2.08-5-6.87-1.47-15.51C76.15 86 94.53 69.09 106.6 69.09a11 11 0 0 1 8 3.16l165.33 165.32L445.26 72.25a11 11 0 0 1 8-3.16c12.07 0 30.45 16.94 35.89 30.07 3.58 8.64.62 13.43-1.47 15.51L322.36 280l165.32 165.33c1.89 1.89 4.63 6.1 1.72 13.12-5.47 13.21-29.57 31.29-39 31.29z" fill="#e26969"/>
  <path d="M453.26 74.09c13.09 0 39.49 28.45 30.89 37L315.28 280l168.87 168.86c9 9.05-24.85 35.88-33.75 35.88a2.21 2.21 0 0 1-1.61-.52L279.93 315.36 111.07 484.22a2.21 2.21 0 0 1-1.61.52c-8.91 0-42.8-26.83-33.75-35.88L244.57 280 75.71 111.14c-8.6-8.6 17.8-37 30.89-37a6.08 6.08 0 0 1 4.47 1.69l168.86 168.82L448.79 75.78a6.08 6.08 0 0 1 4.47-1.69M68.64 118.21L230.43 280 68.64 441.79c-2.23 2.23 47.27 51.73 49.5 49.5L279.93 329.5l161.79 161.79c2.23 2.23 51.73-47.27 49.5-49.5L329.43 280l161.79-161.79c2.39-2.39-46.48-52.52-49.5-49.5L279.93 230.5 118.14 68.71c-3-3-51.89 47.11-49.5 49.5" fill="#fff"/>
  <path d="M279.93 16c145.8 0 264 118.2 264 264s-118.2 264-264 264-264-118.2-264-264 118.2-264 264-264m0-16C125.25.08-.07 125.53 0 280.21A280.07 280.07 0 0 0 170.93 538c142.49 60.2 306.8-6.51 367-149s-6.51-306.8-149-367a278.39 278.39 0 0 0-109-22" fill="#e26969"/>
</svg>
