<svg xmlns="http://www.w3.org/2000/svg" viewBox="0 0 560.08 560.15">
  <path d="M279.93 552c-150.22 0-272-121.78-272-272A272 272 0 0 1 87.6 87.67C193.22-19.15 365.44-20.12 472.26 85.51s107.79 277.84 2.16 384.66l-2.16 2.16A270.19 270.19 0 0 1 279.93 552" fill="#e15426"/>
  <path d="M279.93 16c145.8 0 264 118.2 264 264s-118.2 264-264 264-264-118.2-264-264 118.2-264 264-264m0-16C125.25.08-.07 125.53 0 280.21A280.07 280.07 0 0 0 170.93 538c142.49 60.2 306.8-6.51 367-149s-6.51-306.8-149-367a278.39 278.39 0 0 0-109-22" fill="#fff"/>
  <path d="M365.99 210.05c-42.5-34.5-58.5-99.5-47-143.5-25.5 2.5-66.27 25.29-83.5 89.5-22 82 44 140.5 0 170.5-51.44 35.08-86.5-26-82-82.5-30 23.5-48.45 119.58-9.5 178 28 42 63.81 66.14 109.52 71.4-14.75-10.45-15.74-29.92-10.52-44.9 7.5-21.5 32.24-31.1 55.5-49 26-20 37-40 38.5-49.5 13 19.5 28.58 48.32 15.5 91-6 19.62-17 38.34-34.34 49.45 55-14.2 119.67-61.89 119.84-145.95.16-75-37.86-106.79-72-134.5" fill="#fff"/>
  <path d="M279.93 555.57C127.7 555.46 4.38 432 4.48 279.74A275.64 275.64 0 0 1 172.66 26.1c140.27-59.24 301.93 6.4 361.17 146.63s-6.4 301.93-146.63 361.17a273.74 273.74 0 0 1-107.27 21.67m0-529.57c-140.06 0-254 113.94-254 254s113.94 254 254 254 254-113.94 254-254-113.94-254-254-254" fill="#fff"/>
  <path d="M450.4 489.74a7 7 0 0 1-5.14-2L279.93 322.43 114.6 487.75a7 7 0 0 1-5.14 2c-9.43 0-33.53-18.09-39-31.29-2.91-7-.17-11.23 1.72-13.12L237.5 280 72.18 114.67c-2.09-2.08-5-6.87-1.47-15.51C76.15 86 94.53 69.09 106.6 69.09a11 11 0 0 1 8 3.16l165.33 165.32L445.26 72.25a11 11 0 0 1 8-3.16c12.07 0 30.45 16.94 35.89 30.07 3.58 8.64.62 13.43-1.47 15.51L322.36 280l165.32 165.33c1.89 1.89 4.63 6.1 1.72 13.12-5.47 13.21-29.57 31.29-39 31.29z" fill="#e26969"/>
  <path d="M453.26 74.09c13.09 0 39.49 28.45 30.89 37L315.28 280l168.87 168.86c9 9.05-24.85 35.88-33.75 35.88a2.21 2.21 0 0 1-1.61-.52L279.93 315.36 111.07 484.22a2.21 2.21 0 0 1-1.61.52c-8.91 0-42.8-26.83-33.75-35.88L244.57 280 75.71 111.14c-8.6-8.6 17.8-37 30.89-37a6.08 6.08 0 0 1 4.47 1.69l168.86 168.82L448.79 75.78a6.08 6.08 0 0 1 4.47-1.69M68.64 118.21L230.43 280 68.64 441.79c-2.23 2.23 47.27 51.73 49.5 49.5L279.93 329.5l161.79 161.79c2.23 2.23 51.73-47.27 49.5-49.5L329.43 280l161.79-161.79c2.39-2.39-46.48-52.52-49.5-49.5L279.93 230.5 118.14 68.71c-3-3-51.89 47.11-49.5 49.5" fill="#fff"/>
  <path d="M279.93 16c145.8 0 264 118.2 264 264s-118.2 264-264 264-264-118.2-264-264 118.2-264 264-264m0-16C125.25.08-.07 125.53 0 280.21A280.07 280.07 0 0 0 170.93 538c142.49 60.2 306.8-6.51 367-149s-6.51-306.8-149-367a278.39 278.39 0 0 0-109-22" fill="#e26969"/>
</svg>
