<svg xmlns="http://www.w3.org/2000/svg" viewBox="0 0 560 560"><defs><style>.cls-2{clip-path:url(#clip-path)}.cls-4{fill:#fff}</style><clipPath id="clip-path" transform="translate(-20 -20)"><path fill="none" d="M0 0h600v600H0z"/></clipPath></defs><g id="Layer_2" data-name="Layer 2"><g class="cls-2" id="Layer_1-2" data-name="Layer 1"><g class="cls-2"><path d="M300 572a272 272 0 0 1-192.33-464.33 272 272 0 1 1 384.66 384.66A270.19 270.19 0 0 1 300 572" transform="translate(-20 -20)" fill="#1f2c35"/><path class="cls-4" d="M300 36c145.8 0 264 118.2 264 264S445.8 564 300 564 36 445.8 36 300 154.2 36 300 36m0-16a280.07 280.07 0 0 0-109 538A280.07 280.07 0 0 0 409 42a278.34 278.34 0 0 0-109-22" transform="translate(-20 -20)"/><path class="cls-4" d="M345.83 142.22A157 157 0 0 0 300 149a157 157 0 0 0-45.83-6.79c-87 0-157.79 70.78-157.79 157.79s70.78 157.78 157.79 157.78A157 157 0 0 0 300 451a157 157 0 0 0 45.82 6.79c87 0 157.78-70.78 157.78-157.78s-70.77-157.79-157.77-157.79M300 438.41a144 144 0 0 1-19.83 5.06 146.49 146.49 0 0 1-26 2.32c-80.39 0-145.79-65.4-145.79-145.78s65.4-145.79 145.79-145.79a145.56 145.56 0 0 1 26 2.32 145 145 0 0 1 37.34 12.17A145.85 145.85 0 0 1 300 438.41m45.83 7.38a146.61 146.61 0 0 1-26-2.32 158.86 158.86 0 0 0 17.54-9.47c1.79-1.11 3.54-2.27 5.28-3.45 73.09-1.2 132-59.19 132-130.56s-58.88-129.38-132-130.58c-1.74-1.18-3.49-2.34-5.28-3.46a156.92 156.92 0 0 0-17.53-9.43 145.68 145.68 0 0 1 26-2.32c80.38 0 145.78 65.4 145.78 145.79s-65.4 145.78-145.78 145.78" transform="translate(-20 -20)"/></g></g></g></svg>