<svg xmlns="http://www.w3.org/2000/svg" viewBox="0 0 560 560"><defs><style>.cls-2{clip-path:url(#clip-path)}.cls-4{fill:#fff}</style><clipPath id="clip-path" transform="translate(-20 -20)"><path fill="none" d="M0 0h600v600H0z"/></clipPath></defs><g id="Layer_2" data-name="Layer 2"><g class="cls-2" id="Layer_1-2" data-name="Layer 1"><g class="cls-2"><path d="M300 572a272 272 0 0 1-192.33-464.33 272 272 0 1 1 384.66 384.66A270.19 270.19 0 0 1 300 572" transform="translate(-20 -20)" fill="#89a53d"/><path class="cls-4" d="M300 36c145.8 0 264 118.2 264 264S445.8 564 300 564 36 445.8 36 300 154.2 36 300 36m0-16a280.07 280.07 0 0 0-109 538A280.07 280.07 0 0 0 409 42a278.34 278.34 0 0 0-109-22" transform="translate(-20 -20)"/><path class="cls-4" d="M191.85 394.85a5.38 5.38 0 0 1-8.27 4C159.3 383.06 98 318.16 172 236c73.49-81.56 169.57-37.86 265.71-95.87a4.94 4.94 0 0 1 7.4 3.15c13.13 59.17 21 188-39.11 247.22-73.5 72.5-133.5 40.5-166 29-1.5 18 4.5 41.92 9.5 58.42s-27 21.08-31 18.08-18.6-83.72 18.5-133c47.5-63 163-118 166.5-162.5-22.5 20-51.81 46.52-129 89.5-68.44 38.11-80.63 85.6-82.66 104.82" transform="translate(-20 -20)"/></g></g></g></svg>