<svg xmlns="http://www.w3.org/2000/svg" viewBox="0 0 560 560">
  <path d="M280 552A272 272 0 0 1 87.67 87.67a272 272 0 1 1 384.66 384.66A270.19 270.19 0 0 1 280 552" fill="#89a53d"/>
  <path d="M280 16c145.8 0 264 118.2 264 264S425.8 544 280 544 16 425.8 16 280 134.2 16 280 16m0-16a280.07 280.07 0 0 0-109 538A280.08 280.08 0 0 0 389 22 278.34 278.34 0 0 0 280 0" fill="#fff"/>
  <path d="M171.85 374.85a5.38 5.38 0 0 1-8.27 4C139.3 363.06 78 298.16 152 216c73.49-81.56 169.57-37.86 265.71-95.87a4.94 4.94 0 0 1 7.4 3.15c13.13 59.17 21 188-39.11 247.22-73.5 72.5-133.5 40.5-166 29-1.5 18 4.5 41.92 9.5 58.42s-27 21.08-31 18.08-18.6-83.72 18.5-133c47.5-63 163-118 166.5-162.5-22.5 20-51.81 46.52-129 89.5-68.44 38.11-80.63 85.6-82.66 104.82" fill="#fff"/>
</svg>
