<svg xmlns="http://www.w3.org/2000/svg" viewBox="0 0 560 560"><defs><style>.cls-2{clip-path:url(#clip-path)}.cls-4{fill:#fff}</style><clipPath id="clip-path" transform="translate(-20 -20)"><path fill="none" d="M0 0h600v600H0z"/></clipPath></defs><g id="Layer_2" data-name="Layer 2"><g class="cls-2" id="Layer_1-2" data-name="Layer 1"><g class="cls-2"><path d="M300 572a272 272 0 0 1-192.33-464.33 272 272 0 1 1 384.66 384.66A270.19 270.19 0 0 1 300 572" transform="translate(-20 -20)" fill="#e15426"/><path class="cls-4" d="M300 36c145.8 0 264 118.2 264 264S445.8 564 300 564 36 445.8 36 300 154.2 36 300 36m0-16a280.07 280.07 0 0 0-109 538A280.07 280.07 0 0 0 409 42a278.34 278.34 0 0 0-109-22" transform="translate(-20 -20)"/><path class="cls-4" d="M386.06 230.05c-42.5-34.5-58.5-99.5-47-143.5-25.5 2.5-66.27 25.29-83.5 89.5-22 82 44 140.5 0 170.5-51.44 35.08-86.5-26-82-82.5-30 23.5-48.45 119.58-9.5 178 28 42 63.81 66.14 109.52 71.4-14.75-10.45-15.74-29.92-10.52-44.9 7.5-21.5 32.24-31.1 55.5-49 26-20 37-40 38.5-49.5 13 19.5 28.58 48.32 15.5 91-6 19.62-17 38.34-34.34 49.45 55-14.2 119.67-61.89 119.84-145.95.16-75-37.86-106.79-72-134.5" transform="translate(-20 -20)"/></g></g></g></svg>