<svg xmlns="http://www.w3.org/2000/svg" viewBox="0 0 560 560"><defs><style>.cls-2{clip-path:url(#clip-path)}.cls-4{fill:#fff}</style><clipPath id="clip-path" transform="translate(-20 -20)"><path fill="none" d="M0 0h600v600H0z"/></clipPath></defs><g id="Layer_2" data-name="Layer 2"><g class="cls-2" id="Layer_1-2" data-name="Layer 1"><g class="cls-2"><path d="M300 572a272 272 0 0 1-192.33-464.33 272 272 0 1 1 384.66 384.66A270.19 270.19 0 0 1 300 572" transform="translate(-20 -20)" fill="#1ac2ec"/><path class="cls-4" d="M300 36c145.8 0 264 118.2 264 264S445.8 564 300 564 36 445.8 36 300 154.2 36 300 36m0-16a280.07 280.07 0 0 0-109 538A280.07 280.07 0 0 0 409 42a278.34 278.34 0 0 0-109-22" transform="translate(-20 -20)"/><path class="cls-4" d="M482.66 346.24l-38.13 28L414 355.71 463.45 321a7 7 0 1 0-8-11.46l-54.56 38.21L351.73 318v-35.86l49.13-29.77 54.56 38.22a7 7 0 1 0 8-11.47L414 244.45l30.58-18.53 38.13 28a7 7 0 0 0 8.29-11.3l-33.46-24.55 29.33-17.77a7 7 0 1 0-7-12.13l-30.06 16.47-4.53-41.2a7 7 0 0 0-13.97 1.56l5.17 46.94-31.34 17.16-5.27-60.1a7 7 0 1 0-13.94 1.23l5.8 66.19-50.57 27.69-30.68-17.71-1.27-57.72 60.28-28.1a7 7 0 1 0-5.91-12.69l-54.7 25.5-.79-35.73 43.26-19a7 7 0 0 0-5.63-12.82l-38 16.69-.72-34.29a7 7 0 0 0-14 0l-.75 34.28-38-16.69a7 7 0 0 0-5.63 12.82l43.28 19-.78 35.73-54.73-25.51a7 7 0 1 0-5.91 12.69l60.3 28.11-1.25 57.68-30.68 17.75-50.58-27.69 5.8-66.18a7 7 0 1 0-13.94-1.23l-5.27 60.07-31.33-17.16 5.16-46.91a7 7 0 0 0-13.92-1.53l-4.53 41.19-30.06-16.46a7 7 0 1 0-7 12.13l29.33 17.77-33.46 24.55a7 7 0 1 0 8.29 11.29l38.14-28 30.57 18.53-49.5 34.67a7 7 0 0 0 8 11.47l54.56-38.22 49.13 29.77v35.5l-49.31 30-54.38-38.08a7 7 0 1 0-8 11.46l49.35 34.56-30.51 18.57-38-27.93a7 7 0 0 0-8.29 11.29L142.45 382l-29.27 17.82a7 7 0 1 0 7 12.12l30-16.54 4.54 41.27a7 7 0 0 0 6.95 6.24 6.74 6.74 0 0 0 .77 0 7 7 0 0 0 6.2-7.72l-5.17-47.05 31.32-17.24 5.29 60.25a7 7 0 0 0 7 6.39h.62a7 7 0 0 0 6.36-7.58l-5.82-66.4 50.28-27.66 30.91 17.84 1.3 57.64-60.23 28.07a7 7 0 0 0 5.91 12.69l54.66-25.48.81 35.72-43.24 19a7 7 0 0 0 5.63 12.82l38-16.68.77 34.27a7 7 0 0 0 14 0l.73-34.29 38 16.7a7 7 0 0 0 5.63-12.82l-43.3-19 .76-35.74 54.77 25.53a7 7 0 0 0 5.91-12.69l-60.36-28.13 1.22-57.46 30.8-17.78 50.58 27.69-5.8 66.19a7 7 0 0 0 6.36 7.58h.62a7 7 0 0 0 7-6.39l5.27-60.06 31.33 17.15-5.16 46.95a7 7 0 0 0 6.2 7.72 6.74 6.74 0 0 0 .77 0 7 7 0 0 0 7-6.24l4.53-41.19L479.82 412a7 7 0 1 0 7-12.12l-29.33-17.78L491 357.53a7 7 0 0 0-8.29-11.29M300 343.64l-37.73-21.78v-43.57L300 256.51l37.73 21.78v43.57z" transform="translate(-20 -20)"/></g></g></g></svg>