<svg xmlns="http://www.w3.org/2000/svg" viewBox="0 0 560 560"><defs><style>.cls-2{clip-path:url(#clip-path)}.cls-4{fill:#fff}</style><clipPath id="clip-path" transform="translate(-20 -20)"><path fill="none" d="M0 0h600v600H0z"/></clipPath></defs><g id="Layer_2" data-name="Layer 2"><g class="cls-2" id="Layer_1-2" data-name="Layer 1"><g class="cls-2"><path d="M300 572a272 272 0 0 1-192.33-464.33 272 272 0 1 1 384.66 384.66A270.19 270.19 0 0 1 300 572" transform="translate(-20 -20)" fill="#eeac1f"/><path class="cls-4" d="M300 36c145.8 0 264 118.2 264 264S445.8 564 300 564 36 445.8 36 300 154.2 36 300 36m0-16a280.07 280.07 0 0 0-109 538A280.07 280.07 0 0 0 409 42a278.34 278.34 0 0 0-109-22" transform="translate(-20 -20)"/><path class="cls-4" d="M519 294.64l-93.18-46.76 32.83-98.94a6 6 0 0 0-7.59-7.59l-98.94 32.83L305.36 81a6 6 0 0 0-10.72 0l-46.76 93.18-98.94-32.83a6 6 0 0 0-7.59 7.59l32.83 98.95L81 294.64a6 6 0 0 0 0 10.72l93.18 46.75-32.83 98.95a6 6 0 0 0 7.59 7.59l98.94-32.83L294.64 519a6 6 0 0 0 10.72 0l46.75-93.18 98.95 32.83a6.17 6.17 0 0 0 1.89.3 6 6 0 0 0 5.7-7.89l-32.84-98.95L519 305.36a6 6 0 0 0 0-10.72m-89.8-123.78l-17.92 69.73-25.67-12.88 10-23.28-23.28 10-12.87-25.64zm-101.67 62.69l-13.31-33.22 30.3-7.76 15.91 26.9zm-55.06 0l-32.89-14.08 15.94-26.9 30.26 7.76zm-38.92 38.92l-33.22 13.31-7.75-30.28 26.89-15.92zm0 55.06l-14.08 32.89-26.89-15.92 7.75-30.28zm38.92 38.92l13.31 33.22-30.26 7.77-15.94-26.91zm55.06 0l32.9 14.08-15.91 26.91-30.3-7.77zm38.92-38.92l33.22-13.31 7.78 30.28-26.92 15.93zm0-55.06l14.08-32.9 26.92 15.93-7.78 30.28zm-66.4-155.1l36.63 61.94-27.26 9-9.42-23.46-9.42 23.5-27.22-9zm-129.14 53.49l69.68 17.88-12.88 25.65-23.28-10 10 23.28-25.63 12.86zM117.42 300l61.9-36.65 9 27.23-23.47 9.42 23.5 9.42-9 27.23zm53.49 129.15l17.85-69.72 25.63 12.86-10 23.28 23.28-10 12.88 25.66zm129.14 53.49l-36.69-62 27.22-9 9.42 23.5 9.42-23.5 27.26 9zm129.15-53.49l-69.78-17.89 12.87-25.65 23.28 10-10-23.28 25.67-12.88zm-8.51-92.48l-9-27.25 23.5-9.42-23.5-9.42 9-27.25 62 36.67z" transform="translate(-20 -20)"/></g></g></g></svg>