<svg fill="currentColor" xmlns="http://www.w3.org/2000/svg" viewBox="0 -36.165 253.15 253.15">
  <defs>
    <mask id="minus-one-attack-modifier-mask" fill="#000">
      <rect width="100%" height="100%" fill="#fff"/>
      <path d="M126.57 20.66a69.75 69.75 0 1 1-69.75 69.75 69.75 69.75 0 0 1 69.75-69.75m0-10a79.75 79.75 0 1 0 79.75 79.75 79.85 79.85 0 0 0-79.75-79.75"/>
    </mask>
  </defs>
  <g mask="url(#minus-one-attack-modifier-mask)">
    <rect width="253.15" height="180.82" rx="12.35"/>
    <path d="M120.81 90.32v3.54l-8.85 8.11H73.45v-3.24l8.85-8.41h38.51zm30.98-45.68v78.94c0 2.65.44 4.55 1.33 5.68s2.41 1.69 4.57 1.69v4.13q-30 13.14-30.1 13.14l-2.36-4.73a5.82 5.82 0 0 0 2.88-1 12.54 12.54 0 0 0 2.88-2.36q3.09-3.54 3.1-10.77V56.41a6.77 6.77 0 0 0-2.07-5.09 9.87 9.87 0 0 0-3.84-2.51c-1.18-.34-2.7-.71-4.57-1.1v-3.25l19.33-9.89a17.24 17.24 0 0 1 6 4.36c1.87 2 2.8 3.91 2.8 5.68" fill="#e26969"/>
  </g>
</svg>
