<svg xmlns="http://www.w3.org/2000/svg" viewBox="0 0 253.15 180.82">
  <defs>
    <style>.cls-2{clip-path:url(#clip-path)}.cls-5{fill:#e26969}</style>
    <clipPath id="clip-path" transform="translate(-23.43 -59.59)">
      <path fill="none" d="M0 0h300v300H0z" />
    </clipPath>
  </defs>
  <g id="Layer_2" data-name="Layer 2">
    <g class="cls-2" id="Layer_1-2" data-name="Layer 1">
      <g class="cls-2">
        <rect width="253.15" height="180.82" rx="12.35" fill="#231f20" />
        <path
          d="M150 80.25A69.75 69.75 0 1 1 80.25 150 69.75 69.75 0 0 1 150 80.25m0-10A79.75 79.75 0 1 0 229.75 150 79.85 79.85 0 0 0 150 70.25"
          transform="translate(-23.43 -59.59)" fill="#fff" />
        <path class="cls-5" d="M120.81 90.32v3.54l-8.85 8.11H73.45v-3.24l8.85-8.41h38.51z" />
        <path class="cls-5"
              d="M175.22 104.23v78.94c0 2.65.44 4.55 1.33 5.68s2.41 1.69 4.57 1.69v4.13q-30 13.14-30.1 13.14l-2.36-4.73a5.82 5.82 0 0 0 2.88-1 12.54 12.54 0 0 0 2.88-2.36q3.09-3.54 3.1-10.77V116a6.77 6.77 0 0 0-2.07-5.09 9.87 9.87 0 0 0-3.84-2.51c-1.18-.34-2.7-.71-4.57-1.1v-3.25l19.33-9.89a17.24 17.24 0 0 1 6 4.36c1.87 2 2.8 3.91 2.8 5.68"
              transform="translate(-23.43 -59.59)" />
      </g>
    </g>
  </g>
</svg>
