<svg xmlns="http://www.w3.org/2000/svg" viewBox="0 0 233.4 231.25"><defs><style>.cls-2{clip-path:url(#clip-path)}.cls-3{fill:#231f20}</style><clipPath id="clip-path" transform="translate(-33.3 -34.37)"><path fill="none" d="M0 0h300v300H0z"/></clipPath></defs><g id="Layer_2" data-name="Layer 2"><g class="cls-2" id="Layer_1-2" data-name="Layer 1"><path class="cls-3" d="M68.59 211.56l-6.91 4.94-50.88-46.97 4.36-7.28 13.99 12.92 87.35-94.65 29.86-6.83-4.42 30.31-87.34 94.65 13.99 12.91z"/><g class="cls-2"><path class="cls-3" d="M72.16 237.82l-25.62 27.77s-4.42.64-9-3.56-4.26-8.65-4.26-8.65l25.62-27.77z" transform="translate(-33.3 -34.37)"/><path class="cls-3" d="M63.45 112.31l10.05-6.24-18.66-23.44 38.42-4.15 1.73-34.46 22.4 14.07 35.49-17.19 4.75 39.74 26.79 6.71-22.18 13.19 15.94 28.41-30.95-.94-2.71 38.64-24.36-18.69-5.47 10.49 42.11 63.11 6.44-76.62 62.59 21.95-38.57-61.08 46.14-21.03-56.65-19.03L173.33 0l-54.94 38.76L72.83 6.2l2.59 54.32L.87 63.73l62.58 48.58z"/></g></g></g></svg>