<svg xmlns="http://www.w3.org/2000/svg" viewBox="0 0 234.76 187.05">
  <path d="M227.11 117.34a3.19 3.19 0 0 1-.8-.1l-7.87-1.88a3.465 3.465 0 1 1 1.61-6.74l7.87 1.88a3.47 3.47 0 0 1-.81 6.84m-120.37 69.72a3.21 3.21 0 0 1-.81-.1l-15.25-3.64a3.47 3.47 0 1 1 1.61-6.75l15.25 3.65a3.47 3.47 0 0 1-.8 6.84m15.39-.39a3.47 3.47 0 0 1-1.36-6.66 7.83 7.83 0 0 0 .87-.43l12.23-7.29a3.486 3.486 0 0 1 3.55 6l-12.24 7.24a15 15 0 0 1-1.7.85 3.4 3.4 0 0 1-1.35.28m-45.89-6.91a3.72 3.72 0 0 1-.81-.09l-15.25-3.64a3.465 3.465 0 0 1 1.61-6.74l15.25 3.65a3.46 3.46 0 0 1-.8 6.83m-30.5-7.29a3.21 3.21 0 0 1-.81-.1l-15.25-3.64a3.47 3.47 0 0 1 1.61-6.75l15.25 3.65a3.47 3.47 0 0 1-.8 6.84m103.37-1.76a3.47 3.47 0 0 1-1.77-6.45l13.47-8a3.462 3.462 0 1 1 3.54 5.95l-13.47 8a3.43 3.43 0 0 1-1.77.49m-133.87-5.52a3.19 3.19 0 0 1-.8-.1l-7.59-1.81c-6.18-1.48-6.85-5-6.85-6.44a5.89 5.89 0 0 1 2.46-4.64 3.47 3.47 0 0 1 5.32 4.15l.68.18 7.59 1.82a3.47 3.47 0 0 1-.81 6.84m160.81-10.53a3.46 3.46 0 0 1-1.78-6.44l13.47-8a3.464 3.464 0 1 1 3.55 5.95l-13.47 8a3.45 3.45 0 0 1-1.77.49m-158-4.37a3.46 3.46 0 0 1-1.77-6.44l13.46-8a3.464 3.464 0 1 1 3.55 5.95l-13.47 8a3.43 3.43 0 0 1-1.77.49m184.93-11.69a3.46 3.46 0 0 1-1.77-6.44l13.47-8a3.483 3.483 0 1 1 3.54 6l-13.46 8a3.39 3.39 0 0 1-1.78.49m1-26.78a3.72 3.72 0 0 1-.81-.09l-15.25-3.65a3.465 3.465 0 0 1 1.61-6.74l15.25 3.64a3.47 3.47 0 0 1-.8 6.84"/>
  <path d="M229.96 122.53a3.47 3.47 0 0 1-3.08-5.08l-.57-.16a3.465 3.465 0 1 1 1.61-6.74c5.15 1.23 6.43 3.92 6.74 5.41.21 1 .37 3.64-2.64 5.88a3.45 3.45 0 0 1-2.06.69m-101.77 3.26c-3.69 2.2-9.06 3.42-14.3 3.42a29.55 29.55 0 0 1-6.81-.76L5.56 104.17c-.72-.17-1.38-.38-2-.59v24s.14 1.86 2.73 2.57 103 24.71 103 24.71a20.89 20.89 0 0 0 15.4-2.33c7.77-4.63 103.46-61.64 104.71-62.41a3.14 3.14 0 0 0 1.93-2.78v-23z"/>
  <path d="M227.17 49.16l-75.55-18.07-9.85 11c9 10.69 17.9 21.33 19 22.73l5.56 7-6.27 6.32c-4.68 4.73-18.17 13.17-28.38 13.17a14.81 14.81 0 0 1-11.39-4.68c-.17-.18-.34-.37-9-10.67-16.48 18.13-18.38 19.75-19.36 20.59a18 18 0 0 1-11.73 4.53c-8.13 0-14.78-5.89-18.29-11.41l-4.24-6.65 5.5-5.67c.89-.93 8-8.85 15.49-17.24 3.07-3.43 6.44-7.2 10-11.13l-5-5.91-78.2 46.62c-3.32 2-2.32 4.46 2.23 5.54l101.51 24.28c4.54 1.09 10.91.37 14.23-1.61l105.95-63.19c3.32-2 2.31-4.46-2.23-5.55"/>
  <path d="M160.03 6.78c-2-3.18-8.42-10.34-15.08-4.64-2.28 1.94-13.26 13.93-26.13 28.18-8.82-10.49-15.93-18.93-16.11-19.12-4.49-4.91-20.6 4-25.29 8.78.41.5 12.33 14.72 24.47 29.16C86.13 66.7 71.8 82.78 70.37 84.26c2 3.17 8.42 10.33 15.08 4.64 2.28-2 13.27-14 26.14-28.2 8.81 10.48 15.91 18.93 16.1 19.13 4.49 4.92 20.6-4 25.29-8.77-1.19-1.49-12.72-15.24-24.45-29.19 15.75-17.55 30.07-33.61 31.5-35.09" fill="#e26969"/>
</svg>
