<svg fill="currentColor" xmlns="http://www.w3.org/2000/svg" viewBox="0 -29.69 253.11 253.11">
  <path d="M185.46 91.38c15.67-10 60.23-42.37 67.64-89.51a1.61 1.61 0 0 0-2.68-1.44c-10.63 9.76-46.44 39.19-97 44.92a1.6 1.6 0 0 0-1.43 1.47c-1.43 20.17-4.43 48.05-17.82 84.1l-7.44-4.3-7.72 4.46c-13.45-36.09-16.4-64.06-17.88-84.21a1.6 1.6 0 0 0-1.43-1.47C49.14 39.67 13.33 10.24 2.7.48A1.61 1.61 0 0 0 .02 1.87c7.41 47.14 52 79.47 67.64 89.51a1.61 1.61 0 0 1-1 3 108.78 108.78 0 0 1-38.81-12.26 1.62 1.62 0 0 0-2.32 1.86c8.19 29.54 40.44 45.5 52.45 50.52a1.6 1.6 0 0 1-.24 3c-6.21 1.51-17.41 3.65-27.27 2.51a1.61 1.61 0 0 0-1.44 2.62c8.39 10.51 27.93 16 42.29 17.62l.88.23 5.5 16.48 29.06 16.78 29.06-16.78 6-16.71c14.36-1.63 33.9-7.11 42.29-17.62a1.61 1.61 0 0 0-1.44-2.62c-9.86 1.14-21.06-1-27.27-2.51a1.6 1.6 0 0 1-.24-3c12-5 44.26-21 52.45-50.52a1.62 1.62 0 0 0-2.32-1.86 108.78 108.78 0 0 1-38.81 12.26 1.61 1.61 0 0 1-1-3"/>
</svg>
