<svg xmlns="http://www.w3.org/2000/svg" viewBox="0 0 255.24 189.19"><defs><style>.cls-2{clip-path:url(#clip-path)}.cls-3{fill:#231f20}</style><clipPath id="clip-path" transform="translate(-22.38 -55.4)"><path fill="none" d="M0 0h300v300H0z"/></clipPath></defs><g id="Layer_2" data-name="Layer 2"><g class="cls-2" id="Layer_1-2" data-name="Layer 1"><g class="cls-2"><path class="cls-3" d="M129.5 175.7c-22.72 0-41.14 9.21-41.14 20.58s18.42 20.57 41.14 20.57 41.15-9.21 41.15-20.57-18.43-20.58-41.15-20.58" transform="translate(-22.38 -55.4)"/><path class="cls-3" d="M166.89 151.83a63.13 63.13 0 0 0-6.1 11h9.51l40.81 35.34-40.81 35.38H88.7l-40.81-35.34 40.81-35.34h17.2a113.08 113.08 0 0 1 3-11H75.94l-53.56 46.34 53.56 46.39h107.12l53.55-46.39-53.55-46.38z" transform="translate(-22.38 -55.4)"/><path class="cls-3" d="M129.5 205.3a18 18 0 0 1-18-18 107 107 0 0 1 91.6-105.72V55.4l74.52 43-74.52 43V118a71.13 71.13 0 0 0-55.65 69.31 18 18 0 0 1-17.95 18" transform="translate(-22.38 -55.4)"/></g></g></g></svg>