<svg xmlns="http://www.w3.org/2000/svg" viewBox="0 0 228 277.88"><defs><style>.cls-2{clip-path:url(#clip-path)}.cls-3{fill:#231f20}</style><clipPath id="clip-path" transform="translate(-36 -11.06)"><path fill="none" d="M0 0h300v300H0z"/></clipPath></defs><g id="Layer_2" data-name="Layer 2"><g class="cls-2" id="Layer_1-2" data-name="Layer 1"><g class="cls-2"><path class="cls-3" d="M264 234.4v2.54c0 28.72-51 52-114 52s-114-23.28-114-52v-2.51c6.65 7.83 16.5 14.83 29.22 20.63 22.81 10.4 52.91 16.13 84.76 16.13s61.95-5.73 84.76-16.13c12.74-5.81 22.59-12.82 29.24-20.66" transform="translate(-36 -11.06)"/><path class="cls-3" d="M264 209.19c0 28.72-51 52-114 52s-114-23.28-114-52c0-21.69 29.12-40.28 70.5-48.07v58.07h87v-58.07c41.38 7.79 70.5 26.38 70.5 48.07" transform="translate(-36 -11.06)"/><path class="cls-3" d="M190.29 132.12H147.5v66.01h-67v-66.01H37.71L114 0l76.29 132.12z"/></g></g></g></svg>