<svg fill="currentColor" xmlns="http://www.w3.org/2000/svg" viewBox="0 -1.285 207.49 207.49">
  <path d="M144.83 164.76c-.27-.29-.52-.57-15-17.82-23.43 25.77-29.21 31.52-31.54 33.52a27.71 27.71 0 0 1-18.1 7c-8.25 0-20-4.66-28.36-17.75l-6.36-10 8.24-8.5c1.4-1.46 12.68-14.06 24.63-27.4l16.55-18.48C82.12 90.12 64.79 69.47 64.02 68.5l-8.34-10.43 9.4-9.49c7.36-7.43 28.57-20.72 44.59-20.72 9 0 14.48 3.89 17.47 7.15.17.2.55.6 15 17.82 1.47-1.62 2.86-3.15 4.2-4.61V10a10 10 0 0 0-10-10H10A10 10 0 0 0 0 10v184.92a10 10 0 0 0 10 10h126.37a10 10 0 0 0 10-10v-28.65a20.16 20.16 0 0 1-1.54-1.51"/>
  <path d="M207.48 38.13c-3.22-5.07-13.43-16.48-24.06-7.4-3.62 3.09-21.13 22.22-41.66 44.94-14.02-16.72-25.41-30.21-25.69-30.49-7.17-7.83-32.86 6.45-40.33 14 .64.81 19.66 23.47 39 46.51-25.13 28-48 53.64-50.27 56 3.23 5.07 13.44 16.48 24.06 7.4 3.63-3.1 21.15-22.23 41.69-45 14 16.72 25.37 30.19 25.67 30.52 7.16 7.83 32.85-6.45 40.33-14-1.89-2.36-20.29-24.3-39-46.55 25.11-28 48-53.6 50.23-56" fill="#e26969"/>
</svg>
