<svg xmlns="http://www.w3.org/2000/svg" viewBox="0 0 240 199.46">
  <path d="M2.1.33c8.27 7.59 36.13 30.5 75.47 34.95a1.25 1.25 0 0 1 1.11 1.15c1.56 21.36 5.24 53.9 28.69 98.31a1.26 1.26 0 0 0 1.82.45c2.79-1.92 5.61-4 7-5a1.24 1.24 0 0 0 .37-1.59c-2.66-5-15-29.09-20.24-52.12a1.24 1.24 0 0 1 .63-1.38c12.29-6.55 55.92-26.73 65.28-31a1.24 1.24 0 0 1 1.77 1.13v77.94a1.25 1.25 0 0 1-.34.87l-37 38.68a1.23 1.23 0 0 0-.35.92l1.69 34.51a1.25 1.25 0 0 1-1.25 1.31H66.81a1.25 1.25 0 0 1-1.16-1.73l12.86-31.71a1.27 1.27 0 0 0 .09-.47V139.1a1.23 1.23 0 0 0-.69-1.12c-2-1-7.37-4.43-5.81-11.81a1.25 1.25 0 0 0-1.1-1.44c-11.17-1.27-26.37-5.54-32.9-13.71a1.25 1.25 0 0 1 1.12-2c7.67.89 16.39-.78 21.22-1.95a1.25 1.25 0 0 0 .19-2.37c-9.35-3.9-34.44-16.32-40.81-39.3a1.26 1.26 0 0 1 1.8-1.45 84.53 84.53 0 0 0 30.2 9.54 1.25 1.25 0 0 0 .8-2.3C40.45 63.29 5.78 38.13 0 1.46A1.25 1.25 0 0 1 2.1.33m144.66 199.13h91.74a1.5 1.5 0 0 0 1.5-1.52c-.07-9.3-3.46-58.34-67.25-58.68a1.5 1.5 0 0 0-1.11.48c-4.58 4.94-24.42 25.34-27.71 28.71a1.54 1.54 0 0 0-.42 1.14l1.75 28.46a1.5 1.5 0 0 0 1.5 1.41"/>
</svg>
