<svg xmlns="http://www.w3.org/2000/svg" viewBox="0 0 266.55 204.92"><defs><style>.cls-2{clip-path:url(#clip-path)}</style><clipPath id="clip-path" transform="translate(-16.72 -47.54)"><path fill="none" d="M0 0h300v300H0z"/></clipPath></defs><g id="Layer_2" data-name="Layer 2"><g class="cls-2" id="Layer_1-2" data-name="Layer 1"><g class="cls-2"><path d="M114.73 129.2a33.5 33.5 0 1 1 0-45h48.36V57.54a10 10 0 0 0-10-10H26.72a10 10 0 0 0-10 10v184.92a10 10 0 0 0 10 10h126.37a10 10 0 0 0 10-10V129.2z" transform="translate(-16.72 -47.54)" fill="#231f20"/><path d="M229.31 137.86V119.2H109.8a23.49 23.49 0 1 1 0-25h119.5V75.53l54 31.17z" transform="translate(-16.72 -47.54)" fill="#e26969"/><path d="M118.66 221.36a29.09 29.09 0 0 1-22.83-7.3s4.3-6.59 7.72-11.88c8.75 9 23.67 5.43 27-6.13s-4.72-20.35-15.15-20.86c-9.12-.45-16.87 14.11-19.81 19.06-11.59 20.59-20.54 25.81-31.77 26.14s-29.14-9.59-29.66-28.63 13.1-30 27-31.67A29.1 29.1 0 0 1 84 167.38s-4.31 6.6-7.72 11.89c-8.75-9-23.67-5.43-27 6.12s4.72 20.35 15.15 20.87c9.11.45 16.85-14.09 19.8-19 11.6-20.59 20.54-25.82 31.76-26.15s29.15 9.59 29.66 28.63-13.1 30-27 31.67" transform="translate(-16.72 -47.54)" fill="#fff"/></g></g></g></svg>