<svg fill="currentColor" xmlns="http://www.w3.org/2000/svg" viewBox="0 0 266.55 204.92">
  <defs>
    <mask id="persistent-bonus-mask" fill="#000">
      <rect width="100%" height="100%" fill="#fff"/>
      <path d="M101.94 173.82a29.09 29.09 0 0 1-22.83-7.3s4.3-6.59 7.72-11.88c8.75 9 23.67 5.43 27-6.13s-4.72-20.35-15.15-20.86c-9.12-.45-16.87 14.11-19.81 19.06-11.59 20.59-20.54 25.81-31.77 26.14s-29.14-9.59-29.66-28.63 13.1-30 27-31.67a29.1 29.1 0 0 1 22.84 7.29s-4.31 6.6-7.72 11.89c-8.75-9-23.67-5.43-27 6.12s4.72 20.35 15.15 20.87c9.11.45 16.85-14.09 19.8-19 11.6-20.59 20.54-25.82 31.76-26.15s29.15 9.59 29.66 28.63-13.1 30-27 31.67"/>
    </mask>
  </defs>
  <g mask="url(#persistent-bonus-mask)">
    <path d="M98.01 81.66a33.5 33.5 0 1 1 0-45h48.36V10a10 10 0 0 0-10-10H10A10 10 0 0 0 0 10v184.92a10 10 0 0 0 10 10h126.37a10 10 0 0 0 10-10V81.66z"/>
    <path d="M212.59 90.32V71.66H93.08a23.49 23.49 0 1 1 0-25h119.5V27.99l54 31.17z" fill="#e26969"/>
  </g>
</svg>
