<svg xmlns="http://www.w3.org/2000/svg" viewBox="0 0 190.55 227.45"><defs><style>.cls-2{clip-path:url(#clip-path)}.cls-3{fill:#231f20}</style><clipPath id="clip-path" transform="translate(-52.8 -39.94)"><path fill="none" d="M0 0h300v300H0z"/></clipPath></defs><g id="Layer_2" data-name="Layer 2"><g class="cls-2" id="Layer_1-2" data-name="Layer 1"><g class="cls-2"><path class="cls-3" d="M210.92 240.75c-.28-13.05 6.85-25 3.33-46.37s-22.37-48.23-37.39-69.38-34.22-47.75-53.23-58.09S91 59.41 78.74 54.87 60.47 37.38 56.25 40.38c-2.38 1.69-1.92 5.72.81 10.42l18.18 144 2.36 3.33 130 64.45c3.55 4.11 7.2 5.87 9.57 4.18 4.23-3-6-12.94-6.29-26M83.52 191.41L67.2 62.17l.07.06c10.51 8.43 26.67 6.71 42.22 15.29 13.85 7.65 27.64 19.58 54.17 56.9s33.28 54.25 36 69.84c3 17.51-3.93 32.22.58 44.91v.08z" transform="translate(-52.8 -39.94)"/><path class="cls-3" d="M58.97 141.86l3.53 15.24-35.71 24.89-5.65-24.34L0 144.32l35.72-24.88 13.24 8.34 96.05-68.18-13.92-8.55 59.46-13.23-32.02 51.82-3.51-15.96-96.05 68.18z"/></g></g></g></svg>