<svg xmlns="http://www.w3.org/2000/svg" viewBox="0 0 211.87 204.92">
  <defs>
    <clipPath id="recover-ability-mask" transform="translate(-33.13 -45.88)">
      <path d="M145.5 42.67h121.37v214.67H145.5z" fill="none"/>
    </clipPath>
  </defs>
  <path d="M140.35 177.62l-5.86 9.76-8.92-7.07c-12.71-10.06-33.19-25.92-45.43-35.4-5.08-3.94-8.73-6.76-9.82-7.62l-8.79-6.93 7.88-8c8.35-8.43 17.47-12.4 29.59-12.88l3.05-.11 2.6 1.6c.4.25.4.25 3.31 2.37 3.4 2.48 10.14 7.4 17.87 13l10.49-18.22q5.43-9.45 9.83-17c.07-40 .22-81.11.22-81.11a10 10 0 0 0-10-10H10a10 10 0 0 0-10 10v184.9a10 10 0 0 0 10 10h126.37a10 10 0 0 0 10-10v-27.42c-2.48 4.18-4.54 7.66-6 10.13"/>
  <path d="M96.51 129.79a22.61 22.61 0 0 0-2.6.49c9.66 7.48 23.6 18.28 35.09 27.28.59-1 1.2-2 1.83-3.1l-7.66-5.44c-11-7.83-21.78-15.67-26.66-19.23" fill="#231f20"/>
  <path d="M189.32 74.63c-2.69-4.23-11-6.51-18.76-5-3.71 5.13-27.53 47.13-41.6 71.25-15-10.67-29.27-21.17-29.57-21.35-10 .39-16.64 3.62-22.87 9.92 3.68 2.91 37.24 28.78 55.25 43 11.06-18.4 55.79-95.14 57.55-97.84" fill="#e26969"/>
  <g clip-path="url(#recover-ability-mask)">
    <path d="M205.87 22.63a8.64 8.64 0 0 0-8.64-8.64H88.13a8.63 8.63 0 0 0-8.63 8.64v159.65a8.63 8.63 0 0 0 8.63 8.63h109.1a8.63 8.63 0 0 0 8.64-8.63v-24.74c-.49-.42 0-134.91 0-134.91z" stroke="#000" stroke-miterlimit="10" stroke-width="12" stroke-dasharray="14 14" fill="none"/>
  </g>
</svg>
