<svg fill="currentColor" xmlns="http://www.w3.org/2000/svg" viewBox="0 0 246.24 204.92">
  <defs>
    <mask id="refresh-item-mask" fill="#000">
      <rect width="100%" height="100%" fill="#fff"/>
      <path d="M36.57 62.9a5.25 5.25 0 1 1-10.49 0c1.66 0 3.31-1.2 5.24-1.2 1.6 0 3.43 1.2 5.25 1.2"/>
      <path d="M27.55 93.14h7.55L33.88 66.8h-5.11l-1.22 26.34z"/>
      <path d="M48.12 96.32V94l-16.79-1.4L14.54 94v2.32l16.79 1.39 16.79-1.39z"/>
      <path d="M47.12 95.16a2.69 2.69 0 1 1 2.68 2.69 2.68 2.68 0 0 1-2.68-2.69m-37 0a2.69 2.69 0 1 1 2.69 2.69 2.68 2.68 0 0 1-2.69-2.69m14.42 90.44l6.79 6.45 6.78-6.45V95.83l-6.78.81-6.79-.81v89.77z"/>
    </mask>
  </defs>
  <g mask="url(#refresh-item-mask)">
    <path d="M231.24 48.55h-48.37a88.9 88.9 0 0 1 11.75 15h36.62v126.37H31.32a15 15 0 0 0 15 15h184.92a15 15 0 0 0 15-15V63.55a15 15 0 0 0-15-15M119.41 24.46a127.19 127.19 0 0 1 27 4.63V10a10 10 0 0 0-10-10h-18.2z"/>
    <path d="M121.72 69.85l1.24 24.4-86.32-44.16L114.03 0h-104a10 10 0 0 0-10 10v184.92a10 10 0 0 0 10 10h126.34a10 10 0 0 0 10-10V77.52q-10.16-5.9-24.65-7.67"/>
    <path d="M109.89 34.11c31.62.19 56.94 10.17 73.6 29.12 18.63 21.23 22.47 49.39 20.95 74.23a23.51 23.51 0 1 1-25-.61c1.71-24.55-3.29-44.08-14.74-57.1-14-15.92-35.44-20.28-53.55-20.61l.97 18.32-55.51-28.39 52.32-33.86z" fill="#e26969"/>
  </g>
</svg>
