<svg xmlns="http://www.w3.org/2000/svg" viewBox="0 0 246.24 204.92">
  <defs>
    <style>.sword{fill:#fff}.cls-2{clip-path:url(#clip-path)}.cls-3{fill:#231f20}</style>
    <clipPath id="clip-path" transform="translate(-26.88 -47.54)">
      <path fill="none" d="M0 0h300v300H0z" />
    </clipPath>
  </defs>
  <g id="Layer_2" data-name="Layer 2">
    <g class="cls-2" id="Layer_1-2" data-name="Layer 1">
      <g class="cls-2">
        <path class="cls-3"
              d="M258.12 96.09h-48.37a88.9 88.9 0 0 1 11.75 15h36.62v126.37H58.2a15 15 0 0 0 15 15h184.92a15 15 0 0 0 15-15V111.09a15 15 0 0 0-15-15M146.29 72a127.19 127.19 0 0 1 27 4.63V57.54a10 10 0 0 0-10-10h-18.2z"
              transform="translate(-26.88 -47.54)" />
        <path class="cls-3"
              d="M148.6 117.39l1.24 24.4-86.32-44.16 77.39-50.09h-104a10 10 0 0 0-10 10v184.92a10 10 0 0 0 10 10h126.34a10 10 0 0 0 10-10v-117.4q-10.16-5.9-24.65-7.67"
              transform="translate(-26.88 -47.54)" />
        <path
          d="M136.77 81.65c31.62.19 56.94 10.17 73.6 29.12C229 132 232.84 160.16 231.32 185a23.51 23.51 0 1 1-25-.61c1.71-24.55-3.29-44.08-14.74-57.1-14-15.92-35.44-20.28-53.55-20.61L139 125 83.49 96.61l52.32-33.86z"
          transform="translate(-26.88 -47.54)" fill="#e26969" />
        <path class="sword" d="M63.45 110.44a5.25 5.25 0 1 1-10.49 0c1.66 0 3.31-1.2 5.24-1.2 1.6 0 3.43 1.2 5.25 1.2"
              transform="translate(-26.88 -47.54)" />
        <path class="sword" d="M27.55 93.14h7.55L33.88 66.8h-5.11l-1.22 26.34z" />
        <path class="sword" d="M48.12 96.32V94l-16.79-1.4L14.54 94v2.32l16.79 1.39 16.79-1.39z" />
        <path class="sword" d="M74 142.7a2.69 2.69 0 1 1 2.68 2.69A2.68 2.68 0 0 1 74 142.7m-37 0a2.69 2.69 0 1 1 2.69 2.69A2.68 2.68 0 0 1 37 142.7"
              transform="translate(-26.88 -47.54)" />
        <path class="sword" d="M24.54 185.6l6.79 6.45 6.78-6.45V95.83l-6.78.81-6.79-.81v89.77z" />
      </g>
    </g>
  </g>
</svg>
