<svg fill="currentColor" xmlns="http://www.w3.org/2000/svg" viewBox="0 0 215.71 252.5">
  <path d="M33.85 172.09S-.15 121.95 0 119.25c.29-5.94 48.06-56.67 57-61.12s30.26-4.45 44.5-8 24.92-8 29.37-1.78-3.56 36.49-14.24 41.83c-18.17 9.09-32.93 8-32.93 8l-4.45 5.34s27.31 27.88 22.25 49c-5.34 22.25-19.58 45.4-53.41 54.3-11.24 2.93-14.24-34.73-14.24-34.73"/>
  <path d="M109.98 105.84a2.31 2.31 0 0 0-2.67 3.14c4.94 11.68 15.92 45.63-5.84 79.13-18.69 28.79-49 29.38-49 29.38l7.42 35h61.46l5.4-31.18a2.36 2.36 0 0 1 4.47-.59c2.58 5.71 5.82 15.87 6.61 31.77h41.52s-7.24-42.13-4.59-59.93c2.07-13.95 28.48-42.43 28.48-42.43l-10.09-24.62zM23.76 70.53l-5.91-40.86S41.99 6.25 52.51 2.97C60.23.6 69.43 7.42 69.43 7.42l1.78 35s-15.14 1.83-20.18 4.46c-7.81 4.14-27.27 23.65-27.27 23.65m63.47-30.47l.62-30.27S108.03.29 116.04 0s19.81 14.25 19.81 14.25-2.41 17.8-6.53 18.69-42.13 7.12-42.13 7.12m63.24-16.32s-16.92 50.51-18.69 70.91c-.6 6.83 28.48 12.46 30.26 8s19.88-63.19 19-70.32-22-12.75-30.56-8.6M189 53.41s-19 52.52-16.32 55.48c5.36 6 24.63 9.2 30-.59s13.05-32 13.05-37.38-4.15-15.14-7.71-16.92c-4-2-13.65-3-19-.59"/>
</svg>
