<svg xmlns="http://www.w3.org/2000/svg" viewBox="0 0 245.2 204.92"><defs><style>.cls-2{clip-path:url(#clip-path)}</style><clipPath id="clip-path" transform="translate(-27.4 -47.54)"><path fill="none" d="M0 0h300v300H0z"/></clipPath></defs><g id="Layer_2" data-name="Layer 2"><g class="cls-2" id="Layer_1-2" data-name="Layer 1"><g class="cls-2"><path d="M125.4 129.2a33.49 33.49 0 1 1 0-45h48.36V57.54a10 10 0 0 0-10-10H37.4a10 10 0 0 0-10 10v184.92a10 10 0 0 0 10 10h126.37a10 10 0 0 0 10-10V129.2z" transform="translate(-27.4 -47.54)" fill="#231f20"/><path d="M272.6 106.7a23.49 23.49 0 0 1-43.38 12.5H120.47a23.49 23.49 0 1 1 0-25h108.74a23.49 23.49 0 0 1 43.39 12.5" transform="translate(-27.4 -47.54)" fill="#e26969"/><path d="M134.5 215.82l18.5-32.11h-11.15a43.65 43.65 0 1 0-19.25 49.11 7 7 0 1 0-7.31-11.94A29.67 29.67 0 1 1 127 183.71h-11z" transform="translate(-27.4 -47.54)" fill="#fff"/></g></g></g></svg>