<svg fill="currentColor" xmlns="http://www.w3.org/2000/svg" viewBox="0 0 245.2 204.92">
  <defs>
    <mask id="round-bonus-mask" fill="#000">
      <rect width="100%" height="100%" fill="#fff"/>
      <path d="M107.1 168.28l18.5-32.11h-11.15a43.65 43.65 0 1 0-19.25 49.11 7 7 0 1 0-7.31-11.94 29.67 29.67 0 1 1 11.71-37.17h-11z"/>
    </mask>
  </defs>
  <g mask="url(#round-bonus-mask)">
    <path d="M98 81.66a33.49 33.49 0 1 1 0-45h48.36V10a10 10 0 0 0-10-10H10A10 10 0 0 0 0 10v184.92a10 10 0 0 0 10 10h126.37a10 10 0 0 0 10-10V81.66z"/>
    <path d="M245.2 59.16a23.49 23.49 0 0 1-43.38 12.5H93.07a23.49 23.49 0 1 1 0-25h108.74a23.49 23.49 0 0 1 43.39 12.5" fill="#e26969"/>
  </g>
</svg>
