<svg xmlns="http://www.w3.org/2000/svg" viewBox="0 0 277.16 239.31"><defs><style>.cls-2{clip-path:url(#clip-path)}.cls-3{fill:#231f20}</style><clipPath id="clip-path" transform="translate(-11.42 -30.34)"><path fill="none" d="M0 0h300v300H0z"/></clipPath></defs><g id="Layer_2" data-name="Layer 2"><g class="cls-2" id="Layer_1-2" data-name="Layer 1"><g class="cls-2"><path class="cls-3" d="M269.93 143.87a119.93 119.93 0 0 0-232.35-34.82l34.79-35.47L82 108.21a80.11 80.11 0 0 1 146.52 25l-16.71-4.3 21.27 76.34 55.49-56.58z" transform="translate(-11.42 -30.34)"/><path class="cls-3" d="M227.64 226.41L218 191.79a80.12 80.12 0 0 1-146.53-25l16.7 4.3-21.26-76.34-55.49 56.57 18.65 4.81a119.94 119.94 0 0 0 232.36 34.81z" transform="translate(-11.42 -30.34)"/></g></g></g></svg>