<svg xmlns="http://www.w3.org/2000/svg" viewBox="0 0 246.24 204.92">
  <defs>
    <style>.sword{fill:#fff}.cls-2{clip-path:url(#clip-path)}.cls-3{fill:#231f20}</style>
    <clipPath id="clip-path" transform="translate(-26.88 -47.54)">
      <path fill="#fff" d="M0 0h300v300H0z" />
    </clipPath>
  </defs>
  <g id="Layer_2" data-name="Layer 2">
    <g class="cls-2" id="Layer_1-2" data-name="Layer 1">
      <g class="cls-2">
        <path class="cls-3"
              d="M137 113.35c-2.95 0-6 .13-9.17.4a33.5 33.5 0 1 1-3.61-44.82c4.36-.36 8.65-.54 12.81-.54a117.92 117.92 0 0 1 36.21 5.3V57.54a10 10 0 0 0-10-10H36.88a10 10 0 0 0-10 10v184.92a10 10 0 0 0 10 10h126.37a10 10 0 0 0 10-10v-118.8c-8.84-6.84-21-10.31-36.24-10.31"
              transform="translate(-26.88 -47.54)" />
        <path class="cls-3"
              d="M258.12 96.09h-48.37a88.9 88.9 0 0 1 11.75 15h36.62v126.37H58.21a15 15 0 0 0 15 15h184.91a15 15 0 0 0 15-15V111.09a15 15 0 0 0-15-15"
              transform="translate(-26.88 -47.54)" />
        <path
          d="M228.19 168.55c-1.79-31.57-13-56.35-32.81-72-22.12-17.55-50.47-19.96-75.19-17.18a23.5 23.5 0 1 0 1.88 24.92c24.43-3 44.19 1 57.77 11.82 16.62 13.18 22 34.37 23.3 52.44h-18.35l31.17 54 31.16-54z"
          transform="translate(-26.88 -47.54)" fill="#e26969" />
        <path class="sword" d="M63.45 110.44a5.25 5.25 0 1 1-10.49 0c1.66 0 3.31-1.2 5.25-1.2 1.59 0 3.42 1.2 5.24 1.2"
              transform="translate(-26.88 -47.54)" />
        <path class="sword" d="M27.55 93.14h7.55L33.88 66.8h-5.11l-1.22 26.34z" />
        <path class="sword" d="M48.12 96.32V94l-16.79-1.4L14.54 94v2.32l16.79 1.39 16.79-1.39z" />
        <path class="sword" d="M74 142.7a2.69 2.69 0 1 1 2.68 2.69A2.68 2.68 0 0 1 74 142.7m-37 0a2.69 2.69 0 1 1 2.69 2.69A2.68 2.68 0 0 1 37 142.7"
              transform="translate(-26.88 -47.54)" />
        <path class="sword" d="M24.54 185.6l6.79 6.45 6.78-6.45V95.83l-6.78.81-6.79-.81v89.77z" />
      </g>
    </g>
  </g>
</svg>
