<svg xmlns="http://www.w3.org/2000/svg" viewBox="0 0 246.24 204.92">
  <defs>
    <mask id="spend-item-mask">
      <rect width="100%" height="100%" fill="#fff"/>
      <path d="M36.57 62.9a5.25 5.25 0 1 1-10.49 0c1.66 0 3.31-1.2 5.25-1.2 1.59 0 3.42 1.2 5.24 1.2"/>
      <path d="M27.55 93.14h7.55L33.88 66.8h-5.11l-1.22 26.34z"/>
      <path d="M48.12 96.32V94l-16.79-1.4L14.54 94v2.32l16.79 1.39 16.79-1.39z"/>
      <path d="M47.12 95.16a2.69 2.69 0 1 1 2.68 2.69 2.68 2.68 0 0 1-2.68-2.69m-37 0a2.69 2.69 0 1 1 2.69 2.69 2.68 2.68 0 0 1-2.69-2.69m14.42 90.44l6.79 6.45 6.78-6.45V95.83l-6.78.81-6.79-.81v89.77z"/>
    </mask>
  </defs>
  <g mask="url(#spend-item-mask)">
    <path d="M110.12 65.81c-2.95 0-6 .13-9.17.4a33.5 33.5 0 1 1-3.61-44.82c4.36-.36 8.65-.54 12.81-.54a117.92 117.92 0 0 1 36.21 5.3V10a10 10 0 0 0-10-10H10A10 10 0 0 0 0 10v184.92a10 10 0 0 0 10 10h126.37a10 10 0 0 0 10-10V76.12c-8.84-6.84-21-10.31-36.24-10.31"/>
    <path d="M231.24 48.55h-48.37a88.9 88.9 0 0 1 11.75 15h36.62v126.37H31.33a15 15 0 0 0 15 15h184.91a15 15 0 0 0 15-15V63.55a15 15 0 0 0-15-15"/>
    <path d="M201.31 121.01c-1.79-31.57-13-56.35-32.81-72-22.12-17.55-50.47-19.96-75.19-17.18a23.5 23.5 0 1 0 1.88 24.92c24.43-3 44.19 1 57.77 11.82 16.62 13.18 22 34.37 23.3 52.44h-18.35l31.17 54 31.16-54z" fill="#e26969"/>
  </g>
</svg>
