<svg xmlns="http://www.w3.org/2000/svg" viewBox="0 0 231.38 231.38"><defs><style>.cls-2{clip-path:url(#clip-path)}.cls-3{fill:#231f20}</style><clipPath id="clip-path" transform="translate(-34.31 -34.31)"><path fill="none" d="M0 0h300v300H0z"/></clipPath></defs><g id="Layer_2" data-name="Layer 2"><g class="cls-2" id="Layer_1-2" data-name="Layer 1"><g class="cls-2"><path class="cls-3" d="M150 34.31A115.69 115.69 0 1 0 265.69 150 115.69 115.69 0 0 0 150 34.31m0 202.76A87.07 87.07 0 1 1 237.07 150 87.07 87.07 0 0 1 150 237.07" transform="translate(-34.31 -34.31)"/><path class="cls-3" d="M150 77.06A72.94 72.94 0 1 0 222.94 150 72.94 72.94 0 0 0 150 77.06m0 113.64a40.7 40.7 0 1 1 40.7-40.7 40.7 40.7 0 0 1-40.7 40.7" transform="translate(-34.31 -34.31)"/></g></g></g></svg>