<svg xmlns="http://www.w3.org/2000/svg" viewBox="0 0 230.06 193.7"><defs><clipPath id="a" transform="translate(-34.97 -53.15)"><path fill="none" d="M0 0h300v300H0z"/></clipPath></defs><g data-name="Layer 2"><g data-name="Layer 1" clip-path="url(#a)"><path d="M96.85 0a96.85 96.85 0 1 0 96.85 96.85A96.85 96.85 0 0 0 96.85 0m0 179.68a82.83 82.83 0 1 1 82.83-82.83 82.84 82.84 0 0 1-82.83 82.83m107.83-51.96a1.88 1.88 0 0 1-2.89-2.09 97.17 97.17 0 0 0 0-57.56 1.88 1.88 0 0 1 2.89-2.09l24.58 29.33a1.88 1.88 0 0 1 0 3.08z" fill="#231f20"/></g></g></svg>