<svg fill="currentColor" xmlns="http://www.w3.org/2000/svg" viewBox="0 -18.02 228 228">
  <path d="M96-.02a96 96 0 1 0 96 96 96 96 0 0 0-96-96m0 178.06a82.09 82.09 0 1 1 82.07-82.06A82.08 82.08 0 0 1 96 178.06m106.85-51.49a1.86 1.86 0 0 1-2.86-2.07 96.52 96.52 0 0 0 0-57 1.86 1.86 0 0 1 2.86-2.07l24.36 29.06a1.88 1.88 0 0 1 0 3.06z"/>
  <path d="M95.98 28.7l17.93 24.01 29.65-4.31-4.31 29.66 24.02 17.92-24.02 17.93 4.31 29.65-29.65-4.3-17.93 24.01-17.92-24.01-29.66 4.3 4.31-29.65L28.7 95.98l24.01-17.92L48.4 48.4l29.66 4.31L95.98 28.7z"/>
</svg>
