<svg xmlns="http://www.w3.org/2000/svg" viewBox="0 0 181.48 228.45"><defs><style>.cls-2{clip-path:url(#clip-path)}</style><clipPath id="clip-path" transform="translate(-59.26 -35.78)"><path fill="none" d="M0 0h300v300H0z"/></clipPath></defs><g id="Layer_2" data-name="Layer 2"><g class="cls-2" id="Layer_1-2" data-name="Layer 1"><g class="cls-2"><path d="M83.58 127.83L59.3 209.65a.85.85 0 0 0 1 1.08l23.7-4.08a.85.85 0 0 1 1 .66l10.17 48.17a.85.85 0 0 0 1.67-.12l4.47-67.81a.85.85 0 0 0-1-.89L78.81 190a.84.84 0 0 1-1-.94l7.38-60.9a.84.84 0 0 0-1.64-.34" transform="translate(-59.26 -35.78)"/><path d="M206.89 36L97 148.92a.85.85 0 0 0 .61 1.45h62.05a.85.85 0 0 1 .76 1.23L105.56 263a.85.85 0 0 0 1.38 1L235.5 127.24a.85.85 0 0 0-.57-1.43l-67.48-4.53a.85.85 0 0 1-.7-1.23l41.51-83a.85.85 0 0 0-1.37-1M239.51 178l-65.83 31.26a.85.85 0 0 0-.15 1.45l14.29 10.92a.85.85 0 0 1-.06 1.39l-60.5 39.28a.85.85 0 0 0 .8 1.5l92.88-40.39a.86.86 0 0 0 .13-1.5l-16.37-10.8a.85.85 0 0 1-.08-1.37l35.81-30.32a.85.85 0 0 0-.92-1.42" transform="translate(-59.26 -35.78)"/></g></g></g></svg>