<svg xmlns="http://www.w3.org/2000/svg" viewBox="0 0 499.17 485.56">
  <defs>
    <mask id="body-mask">
      <rect width="100%" height="100%" fill="#fff"/>
      <path d="M135.02 237.22c-8.49 0-18.23-.76-18.23-6.7 0-3.65 2.6-5.92 53.62-25.81 8.76-3.42 16.42-6.41 20.74-8.26.76-1.95 1.75-4.54 2.92-7.58 22.79-59.5 25.74-62.27 29.37-62.27 1.19 0 2.79.56 3.72 3.22 3.75 10.86 3.25 74.69-15.5 89.42-14.18 11.14-54.19 18-76.64 18z"/>
      <path d="M223.44 129.6c4.09 0 5.34 72.38-13.64 87.28-13.48 10.6-52.83 17.34-74.78 17.34-9.12 0-15.23-1.16-15.23-3.7 0-4.09 60.12-25.77 73.71-31.82 5.13-13 25.85-69.1 29.94-69.1m0-6c-4.56 0-7 4.09-9.88 9.88-2 3.9-4.35 9.25-7.33 16.38-5.27 12.63-11.1 27.86-15 37.93l-2.45 6.39c-4.42 1.85-11.5 4.61-19.49 7.73-11.33 4.42-24.18 9.42-34.4 13.77-5.68 2.42-9.92 4.36-13 5.94-3.65 1.89-8.18 4.24-8.18 8.9 0 2.48 1.15 6.9 8.86 8.65a58.05 58.05 0 0 0 12.37 1.05c22.4 0 63.23-6.63 78.49-18.62 11.19-8.79 15.6-31.37 17.33-48.77 1.76-17.79 1.39-37.53-.85-44-1.64-4.73-5.12-5.24-6.55-5.24m84.98 202.93c-13.93 0-44-4-50.42-13.13a55.91 55.91 0 0 1-7.34-13.41 55.76 55.76 0 0 1-7.35 13.43c-6.38 9.14-36.47 13.11-50.41 13.11a41.58 41.58 0 0 1-8.13-.63c-4.36-.9-5.28-3-5.28-4.67 0-3.15 3-4.64 17.17-11.18 8.76-4.05 19.66-9.08 26.75-13.82s11.61-17.5 15.16-27.72 5.94-17.11 11.08-17.11h2c5.14 0 7.5 6.82 11.09 17.15s7.94 22.9 15.09 27.68 18 9.75 26.76 13.8c14.21 6.55 17.21 8.05 17.21 11.2 0 4.65-6.44 5.3-13.41 5.3"/>
      <path d="M251.58 254.39c6.82 0 10.23 34.78 24.52 44.33s42.63 19.77 42.63 22.5c0 1.57-4.22 2.3-10.41 2.3-15.35 0-42.83-4.5-48-11.85-5.45-7.69-8.4-14.09-9.76-24.73-1.42 10.64-4.37 17-9.82 24.73-5.14 7.35-32.61 11.85-48 11.85-6.18 0-10.41-.73-10.41-2.3 0-2.73 28.29-13 42.58-22.5s17.76-44.33 24.58-44.33h2m0-6h-2c-5.78 0-8.62 5.87-9.56 7.8a108.6 108.6 0 0 0-4.35 11.33c-3.23 9.27-7.64 22-14 26.2-6.9 4.61-17.69 9.59-26.35 13.59-4.45 2.06-8.3 3.83-11.2 5.35-3.44 1.79-7.71 4-7.71 8.56 0 1.81.75 6.18 7.67 7.61a44.55 44.55 0 0 0 8.74.69 148.32 148.32 0 0 0 29.09-3.31c18.9-4.09 22.58-9.37 23.8-11.1a70.61 70.61 0 0 0 4.87-7.77 70.71 70.71 0 0 0 4.9 7.8c1.18 1.7 4.87 7 23.77 11.07a148.3 148.3 0 0 0 29.08 3.31 44.41 44.41 0 0 0 8.74-.69c6.93-1.43 7.67-5.8 7.67-7.61 0-4.54-4.28-6.77-7.71-8.57-2.92-1.52-6.78-3.3-11.24-5.36-8.67-4-19.44-9-26.36-13.57-6.31-4.21-10.71-16.9-13.92-26.17a112.17 112.17 0 0 0-4.36-11.35c-.93-1.93-3.78-7.81-9.56-7.81m56.91 173.83c-13.94 0-44.06-4-50.48-13.11a55.85 55.85 0 0 1-7.35-13.42 55.76 55.76 0 0 1-7.35 13.43c-6.41 9.14-36.53 13.1-50.47 13.1a42 42 0 0 1-8.09-.62c-4.34-.9-5.26-3-5.26-4.67 0-3.15 3-4.64 17.17-11.18 8.76-4.05 19.66-9.08 26.75-13.82s11.61-17.5 15.16-27.71 5.95-17.12 11.08-17.12h2c5.14 0 7.5 6.82 11.09 17.15s7.94 22.91 15.1 27.68 18 9.76 26.75 13.8c14.21 6.55 17.21 8.05 17.21 11.2 0 4.65-6.41 5.29-13.34 5.29"/>
      <path d="M251.58 350.1c6.82 0 10.23 34.78 24.52 44.33s42.63 19.77 42.63 22.5c0 1.56-4.19 2.29-10.34 2.29-15.35 0-42.89-4.51-48-11.84-5.45-7.69-8.4-14.09-9.76-24.73-1.42 10.64-4.37 17-9.82 24.73-5.14 7.33-32.68 11.84-48 11.84-6.15 0-10.35-.73-10.35-2.29 0-2.73 28.29-12.95 42.58-22.5s17.76-44.33 24.58-44.33h2m0-6h-2c-5.78 0-8.62 5.87-9.56 7.8a110.38 110.38 0 0 0-4.35 11.33c-3.23 9.28-7.64 22-14 26.2-6.9 4.61-17.69 9.6-26.35 13.6-4.45 2.05-8.3 3.83-11.2 5.34-3.44 1.8-7.71 4-7.71 8.56 0 1.81.75 6.18 7.65 7.61a45 45 0 0 0 8.7.68 148.93 148.93 0 0 0 29.11-3.31c18.92-4.09 22.61-9.35 23.83-11.08a72.37 72.37 0 0 0 4.88-7.78 70.83 70.83 0 0 0 4.9 7.81c1.19 1.7 4.89 7 23.81 11.05a148.85 148.85 0 0 0 29.11 3.31 45.07 45.07 0 0 0 8.7-.68c6.9-1.43 7.64-5.8 7.64-7.61 0-4.54-4.28-6.77-7.71-8.56-2.92-1.52-6.78-3.3-11.24-5.37-8.67-4-19.44-9-26.36-13.57-6.31-4.21-10.71-16.9-13.92-26.16a111.51 111.51 0 0 0-4.36-11.36c-.93-1.93-3.78-7.81-9.56-7.81m114.53-106.88c-22.45 0-62.46-6.84-76.64-18-18.75-14.73-19.25-78.56-15.5-89.42.92-2.66 2.53-3.22 3.72-3.22 3.63 0 6.58 2.77 29.37 62.27 1.16 3 2.16 5.64 2.91 7.58 4.32 1.85 12 4.84 20.74 8.26 51 19.89 53.63 22.16 53.63 25.81 0 5.94-9.75 6.7-18.23 6.7"/>
      <path d="M277.74 129.6c4.09 0 24.81 56.05 29.94 69.1 13.59 6.05 73.71 27.73 73.71 31.82 0 2.54-6.12 3.7-15.23 3.7-21.95 0-61.3-6.74-74.78-17.34-19-14.9-17.74-87.28-13.64-87.28m0-6c-1.43 0-4.92.51-6.55 5.24-2.24 6.46-2.62 26.2-.85 44 1.73 17.4 6.14 40 17.33 48.77 15.26 12 56.09 18.62 78.49 18.62a57.89 57.89 0 0 0 12.36-1.05c7.72-1.75 8.87-6.17 8.87-8.65 0-4.66-4.53-7-8.18-8.9-3-1.58-7.28-3.52-13-5.94-10.22-4.35-23.07-9.35-34.4-13.77-8-3.12-15.08-5.88-19.49-7.73l-2.41-6.41c-3.86-10.07-9.69-25.3-15-37.93-3-7.13-5.37-12.48-7.32-16.38-2.91-5.79-5.32-9.88-9.88-9.88"/>
    </mask>
  </defs>
  <g mask="url(#body-mask)">
    <path d="M499.16 99.59c-21.82 76.38-80.46 117.29-80.46 117.29v231.9s-36.83 36.78-169.12 36.78-169.12-36.78-169.12-36.78v-231.9S21.82 175.97 0 99.59C0 99.59 125.47 1.4 145.93.03s30 40.92 103.65 40.92S332.77-1.33 353.23.03s145.93 99.56 145.93 99.56"/>
  </g>
</svg>
