<svg fill="currentColor" xmlns="http://www.w3.org/2000/svg" viewBox="-84.885 0 485.56 485.56">
  <path d="M266.36 84.96c-22.47-22.43-56.47-34.85-85.38-39.28C174.49 20.39 161.29 0 157.2 0s-16.54 20.44-22.64 45.72c-28.84 4.45-62.76 16.87-85.14 39.24C-.81 135.19 0 169.78 0 379.84c42.56 70 72.4 105.72 72.4 105.72s34.64-102.14 22.28-184.52c-10.78-7.19-27.41-7.33-37.63-14.13-5.39-3.59-9-16.91-9-16.91s46.45-21 93.13-19.61v137.63s3 9.62 16.71 9.62 16.71-9.62 16.71-9.62V250.39c46.68-1.38 93.13 19.61 93.13 19.61s-4.23 12.82-10.38 16.91c-10.29 6.84-25.95 7.26-36.25 14.13-12.36 82.38 22.28 184.52 22.28 184.52s29.84-35.7 72.4-105.72c0-210.06.81-244.65-49.42-294.88"/>
</svg>
