<svg fill="currentColor" xmlns="http://www.w3.org/2000/svg" viewBox="-28.35 0 485.56 485.56">
  <defs>
    <mask id="legs-mask" fill="#000">
      <rect width="100%" height="100%" fill="#fff"/>
      <path d="M220.74 93.9l-.6 3.86c-.95 6.1-1.91 12.34-2.88 18.63-.2 1.28-.4 2.56-.62 3.85H131.9a13.17 13.17 0 1 1 0-26.34zm-6.98 44.65c-.17 1.16-.35 2.31-.54 3.46-1 6.34-2 12.58-2.88 18.63-.22 1.43-.43 2.85-.65 4.25H131.9a13.17 13.17 0 1 1 0-26.34zm-6.83 44.64c-.27 1.84-.54 3.64-.79 5.4-1 6.92-1.86 13.21-2.55 18.64-.1.79-.2 1.55-.29 2.3h-65.59a13.17 13.17 0 0 1 0-26.34zm5.5 70.98h-68.9a13.17 13.17 0 0 1 0-26.34h58.36a28.59 28.59 0 0 0 .73 3.85c1.36 5.16 4.13 11.55 7.79 18.63.66 1.27 1.34 2.56 2 3.86"/>
    </mask>
  </defs>
  <g mask="url(#legs-mask)">
    <path d="M428.86 405.21c-87.35 85-193.32 73.36-193.32 73.36s0-5.81-3.49-16.3c-22.13-4.66-75.7-1.16-81.52-1.16s-17.47 18.63-21 24.45c-15.13 0-103.65-25.62-117.62-43.09-7-22.13 15.14-152.56 27.95-211.95C-22.99 61.65 7.29 12.78 7.29 12.78c64-21 101.31-12.82 138.58 1.16s80.35 5.82 83.85 9.31c1.44 1.45-3.13 32.87-9 70.68l-.6 3.86c-.95 6.1-1.91 12.34-2.88 18.63-.2 1.28-.4 2.56-.62 3.85-1 6.11-1.92 12.25-2.88 18.31-.17 1.16-.35 2.31-.54 3.46-1 6.34-2 12.58-2.88 18.63-.22 1.43-.43 2.85-.65 4.25-1 6.38-1.9 12.52-2.76 18.3-.27 1.84-.54 3.64-.79 5.4-1 6.92-1.86 13.21-2.55 18.64-.1.79-.2 1.55-.29 2.3a163.08 163.08 0 0 0-1.53 16.33 17.31 17.31 0 0 0 .12 2 27.21 27.21 0 0 0 .74 3.85c1.35 5.16 4.12 11.55 7.78 18.63.66 1.27 1.34 2.56 2 3.86 15.65 28.81 43.39 66.23 47.53 75.34 74.54-1.16 111.8 17.47 111.8 17.47l33.77-7s22.14 15.14 23.3 65.22"/>
  </g>
</svg>
