<svg fill="currentColor" xmlns="http://www.w3.org/2000/svg" viewBox="-8.805 0 480.41 480.41">
  <path d="M460.07 243.58c-3.67 4.91-16.42 35.85-31.12 43.2s-95.55 67.43-110.31 73.53-62.49 7.37-68.62 14.72-112.75 105.38-112.75 105.38-31.77-18-66.23-53.45l22.13-28.62 25.4-32.86a2 2 0 0 0-2.17-3l-3.2 1.1-74.12 25.51A289 289 0 0 1 0 314.96s123.78-73.53 128.69-88.23 6.12-52.68 6.12-52.68-8.57-42.92 4.91-65 51.47-45.32 51.47-45.32l16.59 5.17 35.35 13.81s-40.91 24.83-42.73 26.67 4.15 19.18 11.63 19.45c3.67.14 38.81-20.26 48.05-25.92 43.44 57.39 46 95.63 46 103s-16.85 16.79-49.64 23.9c-25.04 5.4-60.82-63.35-60.82-63.35s-22.74 7.38-17.69 17.51c26.54 53.14 51.4 68.63 62.89 73.7s92.25-17.53 92.54-42.39c.63-54-56.48-137-65.66-144.35-6.59-5.27-28.31-14.44-39.63-18.29 6.24-6.25 6.38-6.44 15.91-15.62 4.78-4.6 9.65-9.24 14.35-13.59 12.07-11.22 22.84-20.45 27.22-22.22 12.27-4.91 49 6.13 57.62 12.26s11 52.69 11 52.69 23.27-8.58 29.41-4.91 35.22 26.06 36.46 33.41-4.6 42.6-4.6 42.6 12.18 1.52 17.15 5.36c6.68 5.17 16.85 27.72 18.08 33.85s-11.93 34.32-11.93 34.32 16.66 8.69 19.66 11.97c5.82 6.43 5.39 15.91 1.7 20.82"/>
</svg>
