<svg fill="currentColor" xmlns="http://www.w3.org/2000/svg" viewBox="0 0 440.91 480.41">
  <defs>
    <mask id="small-item-mask">
      <rect width="100%" height="100%" fill="#fff"/>
      <path fill="#000" d="M138.46 173.2l-4.35 39.17s68.19 11.6 97.21 7.25 97.14-21.72 108.77-17.37 11.61-21.76-13.06-26.11-103 5.8-124.77 2.9-63.8-5.84-63.8-5.84"/>
    </mask>
  </defs>
  <g mask="url(#small-item-mask)">
    <path d="M81.84 36.85c-22.75 25.6-16 74 30.47 127.68-34.82-2.9-98.66-7.25-110.27 7.25s30.47 59.49 23.21 82.7c40.63-20.31 53.69-47.88 84.15-40.62-2.9 21.76-2.9 30.47-24.66 59.48s-62.39 158.15 36.27 190.07 105.91 5.79 153.79 5.79 95.76 36.27 142.19-21.76 21.76-185.7-43.53-264.05c1.45-14.51 60.94-63.84 36.27-105.91-8.7-11.61-62.38-11.61-75.44-14.51 13.06-33.37-2.9-75.44-34.82-59.49s-72.55 68.19-85.6 69.65c-6.53.72-33.93-3.27-60.94-17.41S99.26 17.26 81.84 36.85"/>
  </g>
</svg>
