<svg xmlns="http://www.w3.org/2000/svg" viewBox="0 0 440.91 480.41"><defs><style>.cls-2{clip-path:url(#clip-path)}</style><clipPath id="clip-path" transform="translate(-79.54 -59.8)"><path fill="none" d="M0 0h600v600H0z"/></clipPath></defs><g id="Layer_2" data-name="Layer 2"><g class="cls-2" id="Layer_1-2" data-name="Layer 1"><g class="cls-2"><path d="M161.38 96.65c-22.75 25.6-16 74 30.47 127.68-34.82-2.9-98.66-7.25-110.27 7.25s30.47 59.49 23.21 82.7c40.63-20.31 53.69-47.88 84.15-40.62-2.9 21.76-2.9 30.47-24.66 59.48s-62.39 158.15 36.27 190.07S306.46 529 354.34 529s95.76 36.27 142.19-21.76 21.76-185.7-43.53-264.05c1.45-14.51 60.94-63.84 36.27-105.91-8.7-11.61-62.38-11.61-75.44-14.51 13.06-33.37-2.9-75.44-34.82-59.49s-72.55 68.19-85.6 69.65c-6.53.72-33.93-3.27-60.94-17.41s-53.67-38.46-71.09-18.87" transform="translate(-79.54 -59.8)" fill="#231f20"/><path d="M218 233l-4.35 39.17s68.19 11.6 97.21 7.25S408 257.7 419.63 262.05s11.61-21.76-13.06-26.11-103 5.8-124.77 2.9S218 233 218 233" transform="translate(-79.54 -59.8)" fill="#fff"/></g></g></g></svg>