<svg xmlns="http://www.w3.org/2000/svg" viewBox="0 0 528.3 456.32">
  <defs>
    <mask id="two-hands-mask">
      <rect width="100%" height="100%" fill="#fff"/>
      <path d="M237.79 59.45s93.14 59.71 135.36 166.95" stroke="#000" stroke-linecap="round" stroke-miterlimit="10" stroke-width="20"/>
    </mask>
  </defs>
  <g mask="url(#two-hands-mask)">
    <path d="M525.84 242.62c-3.31 4.43-14.81 32.35-28.08 39s-86.26 60.83-99.53 66.35-56.4 6.65-61.92 13.28-101.74 95.09-101.74 95.09-23.57-13.38-51.16-39.7c17.39-16.11 36.47-33.85 48.74-45.48 4.74-4.5 7.89-7.54 10-9.65 5-1.07 13.93-2.28 19.72-3.06 14.56-2 27.14-3.65 36.41-7.52 9.06-3.76 25.44-15 60.67-39.59 15.1-10.56 35.78-25 40.66-27.58 16.72-8.39 27.24-26.49 36.58-44.32.68-1.3 1.57-3 2-3.85 11.13-15.8 9.56-38.54-3.85-53.38-.35-.39-.77-.85-1.33-1.41s-1.28-1.22-2.2-2c3.84-11.05 4.68-18.15 3.27-25.14-1.56-7.79-6.62-18.4-8.73-22.6-7.84-15.66-14-21.51-17.89-24.55q-.81-.63-1.65-1.2c2-17.22 1.18-22.27.8-24.54-1.78-10.55-8.35-19.49-24.27-33-7.7-6.56-17-13.62-21.78-16.47q-.75-.45-1.53-.87c4.11-3.37 7.38-5.73 9.3-6.5 11.06-4.43 44.24 5.53 52 11.06s10 47.55 10 47.55 21-7.75 26.54-4.43 31.78 23.51 32.9 30.14-4.15 38.44-4.15 38.44 11 1.37 15.47 4.84c6 4.66 15.21 25 16.32 30.54s-10.77 31-10.77 31 15 7.82 17.68 10.78c5.26 5.8 4.86 14.36 1.54 18.79"/>
    <path d="M318.83 49.68c.54 5.87.76 10 .76 10s-.22-4.16-.77-10" fill="#fff"/>
    <path d="M415.15 219.78c-3.32 4.43-14.82 32.34-28.09 39s-86.28 60.81-99.55 66.38-56.39 6.64-61.92 13.27c-1.1 1.33-5.85 5.95-12.74 12.48-12.19 11.55-31.06 29.1-48.3 45.06-21.64 20-40.69 37.56-40.69 37.56s-28.71-16.37-59.77-48.29l-28.84-34.2A260.81 260.81 0 0 1 0 284.16s111.68-66.32 116.15-79.59 5.51-47.54 5.51-47.54-7.73-38.72 4.43-58.63 46.45-40.9 46.45-40.9l17.7 5.53s56.4-57.51 67.45-61.93a20.88 20.88 0 0 1 7.52-1.1c14.3 0 38.06 7.58 44.46 12.15 2.18 1.56 3.91 6 5.29 11.59.15.62.3 1.25.44 1.9s.29 1.3.42 2c.07.33.14.67.2 1 .14.68.26 1.36.38 2s.25 1.39.36 2.09.23 1.4.33 2.1c.06.38.12.77.17 1.15.71 4.84 1.23 9.66 1.6 13.68.55 5.87.77 10 .77 10s5.28-2 11.26-3.48a48.74 48.74 0 0 1 11.1-1.78 8.3 8.3 0 0 1 4.17.83c5.53 3.31 31.78 23.5 32.9 30.14s-4.15 38.43-4.15 38.43 11 1.37 15.48 4.84c6 4.67 15.21 25 16.31 30.55s-10.77 31-10.77 31 15 7.82 17.69 10.78c5.25 5.8 4.86 14.37 1.54 18.8"/>
  </g>
</svg>
